<?xml version="1.0" encoding="UTF-8"?>
<svg id="Layer_1" data-name="Layer 1" xmlns="http://www.w3.org/2000/svg" viewBox="0 0 500 500">
  <defs>
    <style>
      .cls-1 {
        fill: #129786;
      }
    </style>
  </defs>
  <path class="cls-1" d="M254.52,110.85l134.79,82.62v17.94c-2.49,8.03-9.19,12.43-17.38,13.07,4.2,11.54-2.94,22.5-15.23,22.81v94.02c12.31.06,20.14,12.12,14.67,23.38h11.14c2.53,0,5.76,4.46,6.79,6.52v11.41c-1.73,3.01-2.99,5.11-6.51,6.27l-263.91.27c-9.38-.5-10.03-16.77-5.45-21.78.61-.66,3.7-2.69,4.37-2.69h11.14c-5.54-11.18,2.47-23.37,14.67-23.38l.41-26.5c1.41-3.09,7.75-1.77,7.75.69v25.82h24.46v-94.03h-24.46v52.45c0,2.54-7.35,4.3-8.12-.58l-.03-51.87c-12.22.04-19.48-11.49-15.22-22.82-8.01.11-16.56-6.15-17.39-14.41-.25-2.47-.33-15.43.39-16.99.45-.97,1.54-1.43,2.37-1.98l126.42-77.95,5.61-2.27h8.7ZM369.75,191.29c-1.79-1.83-4.38-3.2-6.57-4.57-33.05-20.7-66.94-42.34-100.55-61.96-3.83-2.23-8.07-5.62-12.64-5.54-4.37.07-8.57,3.38-12.27,5.54-34.44,20.1-71.7,42.71-104.9,64.68-.77.51-1.91.94-2.22,1.85h178.55c3.22,0,3.22,8.15,0,8.15H119.18v8.42c0,4.11,4.81,8.25,8.95,7.9h243.54c4.33.54,9.49-3.55,9.49-7.9v-8.42h-56.25c-3.22,0-3.22-8.15,0-8.15h44.84ZM143.52,224.06c-9.77,1.22-10.64,11.49-1.75,14.49,13.76-1.29,31.16,1.86,44.48-.01,7.91-1.12,9.2-13.42-1.65-14.56-9.29-.98-31.92-1.06-41.09.09ZM214.84,223.9h-15.22c4.65,11.81-2.3,22.39-14.71,23.69l.04,93.71c12.5.36,19.27,12,14.67,23.38h15.22c-5.14-11.85,2.38-22.49,14.7-23.68l-.02-93.72c-12.37-.33-19.76-11.96-14.67-23.38ZM229.4,224.06c-9.96,1.27-9.71,13.04-1.65,14.39,13.76-1.07,31.05,1.9,44.39.08,8.67-1.18,8.95-13.45-1.65-14.56-9.24-.97-32-1.07-41.09.09ZM300.72,223.9h-15.22c5.09,11.68-2.42,22.56-14.7,23.68l.02,93.72c12.37.33,19.76,11.96,14.67,23.38h15.22c-4.62-11.79,2.23-22.45,14.71-23.69l-.04-93.71c-12.42-.34-19.29-12.06-14.67-23.38ZM315.28,224.06c-9.56,1.22-9.94,12-1.19,14.47h44.48c9.18-3.19,7.75-13.48-2.21-14.56-9.13-.98-32.08-1.06-41.09.09ZM262.13,247.28h-23.92v94.03h23.92v-94.03ZM348.55,247.28h-24.46v94.03h24.46v-94.03ZM141.32,350.13c-8.47,3.28-7.18,13.36,2.11,14.49,9.04,1.1,32,.96,41.18,0,9.88-1.04,10.69-11.85,1.65-14.56l-44.94.07ZM227.75,350.13c-8.14,1.37-8.38,13.33,2.11,14.48,9.31,1.01,31.31,1.01,40.63,0,10.65-1.16,10.28-13.38,1.65-14.56-13.34-1.82-30.64,1.15-44.39.08ZM313.62,350.13c-8.66,3.24-7.46,13.47,2.11,14.48,9.18.96,32.14,1.11,41.18,0,9.56-1.16,10.53-11.78,1.66-14.58l-44.95.09ZM381.19,372.8H119.16v8.22h262.04v-8.22Z"/>
  <path class="cls-1" d="M254.25,153.25c9.03,1.12,10.68,9.98,9.48,17.63-.3,1.94-2.24,4.79-3.76,6.02-1.42,1.15-5.05,2.16-5.21,2.4-.8,1.16.19,7.42-4.82,7.1-4.86-.32-3.8-6.74-4.11-7.06-.43-.44-8.09,1.37-9.13-3.1-2.26-9.79,14.63-3.58,17.85-5.83.69-.48,1.42-8.04-.85-8.46-5.16-.95-9.79,1.89-14.43-2.97-3.97-4.15-3.93-15.52.22-19.67,1.91-1.91,6.05-2.69,6.28-2.96.65-.78-1.08-6.41,3.63-7,6.43-.81,4.56,6.49,5.11,7.06.64.67,8.53-1.92,9.23,3.58,1.16,9.09-14.8,3.15-17.96,5.35-1.11.77-.24,6.31-.51,7.92,2.85.25,6.19-.34,8.97,0Z"/>
</svg>