<?xml version="1.0" encoding="UTF-8"?>
<svg id="Layer_1" data-name="Layer 1" xmlns="http://www.w3.org/2000/svg" viewBox="0 0 500 500">
  <defs>
    <style>
      .cls-1 {
        fill: #129786;
      }
    </style>
  </defs>
  <path class="cls-1" d="M374.41,193.36h-163.85c-2.62,0-8.38-10.2-11.35-11.41-6.83.06-14.77-.88-21.49-.26-5.7.53-9.94,11.67-13.74,11.67h-38.38v51.09c0,2.84-7.1,4.38-7.93-.01v-90.51c1.71-12.55,11.89-22.55,24.58-23.58h216.03c12.57,1.31,22.71,11.51,24.09,24.09v191.15c-1.38,12.57-11.5,22.77-24.09,24.09l-217.07-.02c-12.48-1.71-22.11-11.58-23.58-24.06l.3-84.45c2.53-3.7,7.14-2.69,7.68,1.83l.05,81.47c1.18,9.5,8.59,16.6,18.18,17.29l213.36-.03c7.46-.16,17.21-9.25,17.21-16.67v-151.67ZM374.41,184.89v-29.91c0-7.43-9.79-16.46-17.21-16.67l-213.36-.03c-7.8-.39-18.24,8.97-18.24,16.7v29.91h36.26c3.79-3.73,6.41-9.41,12.01-10.76,3.52-.85,23.27-.88,26.93-.13,5.6,1.16,11.51,10.88,12.41,10.88h161.2Z"/>
  <path class="cls-1" d="M263.06,216.83c2.78,2.76,1.43,6.87,1.84,10.33,1.92-.03,9.87,4.38,10.7,4.22s3.66-3.95,5.26-4.79c2.83-1.47,5.46-1.18,8.05.63,1.48,1.03,11.82,11.36,12.68,12.73,3.08,4.91-1.13,9.67-4.76,12.67l4.04,10.54c7.97-.45,12.51.66,13.2,9.3.36,4.57.8,16.01-2.81,18.99s-9.78,1.46-10.4,1.99c-.42.36-2.65,9.06-4.14,10.28,3.37,3.56,7.19,6.29,5.44,11.93-.91,2.95-11.33,10.81-13.55,13.97-6.05,3.95-9.15-1.24-13.38-4.39l-10.35,4.23c-.05,5.02.84,10.34-4.98,12.23-2.25.73-15.93.79-18.62.37-6.53-1.03-6.46-7.35-6.2-12.6-1.92.03-9.87-4.38-10.7-4.22s-3.66,3.95-5.26,4.79c-2.83,1.47-5.46,1.18-8.05-.63-1.48-1.03-11.82-11.36-12.68-12.73-3.08-4.91,1.13-9.67,4.76-12.67l-4.04-10.54c-7.97.45-12.51-.66-13.2-9.3-.36-4.57-.8-16.01,2.81-18.99s9.78-1.46,10.4-1.99c.42-.36,2.65-9.06,4.14-10.28-3.37-3.56-7.19-6.29-5.44-11.93.91-2.95,11.33-10.81,13.55-13.97,6.05-3.95,9.15,1.24,13.38,4.39,1.2-1.25,10.05-3.76,10.35-4.23.48-.75-.25-5.93.32-7.89.53-1.84,3.23-4.02,5.03-4.5,2.36-.62,17.27-.55,19.46.16.6.2,2.68,1.44,3.14,1.89ZM256.88,222.47h-13.76v8.73c0,3.15-7.53,4.28-10.05,5.3-3.03,1.23-8.07,5.08-11.12,3.68-1.37-.63-5.34-6.25-6.55-6.04-1.25,1.56-9.04,8.19-9.26,9.3-.46,2.33,6.69,5.54,6.27,9.41-.13,1.25-3.19,5.88-3.96,7.73s-2.81,10.58-4.77,10.58h-9.26v14.29h9.26c1.96,0,3.98,8.68,4.77,10.58s3.83,6.48,3.96,7.73c.34,3.13-4.51,6.75-6.31,9.03-.17.94,8.06,8.33,9.3,9.68,1.21.21,5.18-5.41,6.55-6.04,2.96-1.36,8.48,2.56,11.5,3.83,2.13.9,9.67,2.2,9.67,5.15v8.73h13.76v-8.73c0-.14,1.14-2.18,1.43-2.41,1.32-1.04,4.3-1.2,5.96-1.84,2.62-1.02,9.51-4.91,11.41-5.04,3.96-.28,5.56,4.82,8.92,6.35,1.35-1.55,9.36-8.51,9.36-9.76-1.22-2.99-6.76-5.3-6.37-8.95.13-1.25,3.19-5.88,3.96-7.73s2.81-10.58,4.77-10.58h9.26v-14.29h-9.26c-1.97,0-3.97-8.68-4.77-10.58-.85-2.02-3.8-6.16-3.96-7.74-.33-3.33,4.77-6.28,6.63-8.68v-.53s-9.62-9.49-9.62-9.49c-1.21-.21-5.18,5.41-6.55,6.04-3.04,1.39-8.09-2.45-11.12-3.68-2.52-1.03-10.05-2.15-10.05-5.3v-8.73Z"/>
  <path class="cls-1" d="M307.07,149.02c16.62-1.46,18.67,24.08,1.95,25.27-16.19,1.16-18.46-23.83-1.95-25.27ZM306.49,157.47c-4.5,1.33-3.17,9.57,2.3,8.67,6.07-.99,4.28-10.62-2.3-8.67Z"/>
  <path class="cls-1" d="M271.59,149.01c16.34-1.72,18.94,24.07,1.96,25.29-16.01,1.14-18.61-23.53-1.96-25.29ZM271.02,157.47c-4.5,1.33-3.17,9.57,2.3,8.67,6.07-.99,4.28-10.62-2.3-8.67Z"/>
  <path class="cls-1" d="M342.54,149.02c16.69-1.46,18.53,24.09,1.95,25.27s-18.46-23.83-1.95-25.27ZM341.96,157.47c-4.5,1.33-3.17,9.57,2.3,8.67,6.07-.99,4.28-10.62-2.3-8.67Z"/>
  <path class="cls-1" d="M247.24,249.1c35.35-3.33,44.26,47.96,11.22,57.28-41.67,11.75-52.67-53.38-11.22-57.28ZM249.83,257.09c-27.87.25-27.45,42.72.35,42.47,27.92-.25,27.42-42.72-.35-42.47Z"/>
</svg>