<?xml version="1.0" encoding="UTF-8"?>
<svg id="Layer_1" data-name="Layer 1" xmlns="http://www.w3.org/2000/svg" viewBox="0 0 500 500">
  <defs>
    <style>
      .cls-1 {
        fill: #129786;
      }

      .cls-2 {
        font-family: Oswald-Bold, Oswald;
        font-size: 36.83px;
        font-weight: 700;
      }

      .cls-3 {
        letter-spacing: 0em;
      }

      .cls-4 {
        letter-spacing: 0em;
      }
    </style>
  </defs>
  <text class="cls-2" transform="translate(88.06 -25.83)"><tspan x="0" y="0">Mar</tspan><tspan class="cls-3" x="57.57" y="0">k</tspan><tspan x="77.31" y="0">et D</tspan><tspan class="cls-4" x="138.67" y="0">a</tspan><tspan x="156.13" y="0">ta Providers</tspan></text>
  <g>
    <path class="cls-1" d="M394.35,383.1v11.27H111.41c-8.11-3.78-7.65-15.01,1.4-16.92l275.93.28c2.78.95,4.09,3.08,5.62,5.37Z"/>
    <path class="cls-1" d="M346.86,105.93c19.76-2.84,35.47,15.19,28.6,34.23-2.84,7.87-11.35,15.26-19.76,16.31-3.58.45-7.43-.52-10.68,0l-40.03,43.46c-.64,1.42,1.99,4.59,2.67,6.36,7.94,20.73-11.93,40.88-32.79,33.35-8.11-2.93-15.42-11.6-16.36-20.27-.41-3.8.38-7.57.63-11.3l-28.6-21.58c-7.31,4.03-15.29,5.35-23.3,2.44-1.49-.54-4.39-2.76-5.62-2.27l-28.27,21.42c.24,3.73,1.04,7.5.63,11.3-2.22,20.52-29.13,29.06-43.63,14.31-18.87-19.2,1.42-51.31,27.27-41.93,1.49.54,4.39,2.76,5.62,2.27l28.27-21.42c-.26-3.75-1.07-7.83-.58-11.81,1.03-8.23,8.25-16.73,15.91-19.6,20.25-7.59,39.55,10.53,33.94,31.14l28.47,21.69c1.2.48,4.47-1.88,6.02-2.43,5.01-1.77,9.59-1.35,14.79-.95l40.35-43.72c.63-1.4-2.16-4.91-2.83-6.76-5.2-14.42,3.77-32.01,19.29-34.23Z"/>
    <path class="cls-1" d="M376.88,360.55h-50.73v-147.39c0-.71,2.32-3.61,3.1-4.22,1.49-1.17,2.62-1.54,4.48-1.72,11.53-1.12,24.9.86,36.63.06,2.07-.07,6.52,4.25,6.52,5.88v147.39Z"/>
    <path class="cls-1" d="M241.6,360.55h-50.73v-113.57c0-.71,2.32-3.61,3.1-4.22,1.49-1.17,2.62-1.54,4.48-1.72,11.53-1.12,24.9.86,36.63.06,2.07-.07,6.52,4.25,6.52,5.88v113.57Z"/>
    <path class="cls-1" d="M309.24,360.55h-50.73v-79.75c0-.71,2.32-3.61,3.1-4.22,1.49-1.17,2.62-1.54,4.48-1.72,11.53-1.12,24.9.86,36.63.06,2.07-.07,6.52,4.25,6.52,5.88v79.75Z"/>
    <path class="cls-1" d="M173.97,360.55h-50.73v-62.84c0-.71,2.32-3.61,3.1-4.22,1.49-1.17,2.62-1.54,4.48-1.72,11.53-1.12,24.9.86,36.63.06,2.07-.07,6.52,4.25,6.52,5.88v62.84Z"/>
  </g>
</svg>