<?xml version="1.0" encoding="UTF-8"?>
<svg id="Layer_1" data-name="Layer 1" xmlns="http://www.w3.org/2000/svg" viewBox="0 0 500 500">
  <defs>
    <style>
      .cls-1 {
        fill: none;
        stroke: #49dffb;
        stroke-miterlimit: 10;
        stroke-width: 17px;
      }

      .cls-2 {
        letter-spacing: 0em;
      }

      .cls-3 {
        fill: #49dffb;
      }

      .cls-4 {
        font-family: Oswald-Bold, Oswald;
        font-size: 36.83px;
        font-weight: 700;
      }
    </style>
  </defs>
  <circle class="cls-1" cx="299.45" cy="156.84" r="54.54"/>
  <path class="cls-3" d="M192.95,388.76c-2.76.24-7.78.24-10.54,0-26.78-2.35-49.01-26.85-48.6-53.72.28-18.47,21.06-50.71,31.2-66.58,5.02-7.86,11.87-19.69,17.69-26.51,5.21-6.1,8.08-2.53,11.65,2.39,5.51,7.59,10.9,16.19,15.98,24.12,10.21,15.94,30.97,47.98,31.2,66.58.34,26.9-21.76,51.37-48.6,53.72ZM231.49,332.95c-3.23-3.64-9.62-2.27-10.89,2.52-.38,1.42-.21,3.17-.46,4.52-1.39,7.68-5.02,14.67-10.94,19.8-3.68,3.19-10.16,5.02-8.27,11.18,1.32,4.31,5.67,5.33,9.48,3.5,10.15-4.85,18.86-18.26,21.38-28.98.84-3.55,2.28-9.62-.31-12.55Z"/>
  <g>
    <path class="cls-3" d="M366.19,337.19c-2.39,7.11-8.07,12.14-14.43,15.73-26.89,15.18-80.87,15.59-106.85-1.76-11.12-7.43-14.54-17.12-10.17-30.06,2.79,4.83,7.11,8.92,11.87,11.81,25.99,15.8,77.41,15.86,103.97,1.39,5.39-2.94,11.53-7.28,13.83-13.2,1.37.48.95,2.22,1.78,3.13v12.97Z"/>
    <g>
      <path class="cls-3" d="M366.19,301.86c-1.55,4.22-4,7.75-7.38,10.72-24.42,21.42-92.34,21.32-117.15.69-8.72-7.25-10.72-16.9-6.91-27.51,5.78,9.85,16.71,15.02,27.22,18.34,24.75,7.82,60.44,7.49,84.3-3.2,7.05-3.16,14.75-7.94,18.15-15.14,1.56-.34.69,2.03,1.78,2.68v13.42Z"/>
      <g>
        <path class="cls-3" d="M366.19,221.36v12.97c-3.75,10.93-14.97,16.88-25.21,20.58-26.34,9.51-72.9,9.36-96.59-6.98-13.63-9.4-16.14-26.82-3.17-37.98,24.44-21.01,95.29-21.39,118.74,1.34,2.85,2.77,4.85,6.38,6.24,10.07Z"/>
        <path class="cls-3" d="M366.19,267.87c-1.92,5.82-5.8,10.16-10.75,13.6-26.04,18.12-83.92,17.93-110.34.63-11.25-7.37-14.74-17.33-10.35-30.32,3.17,5.94,8.23,10.03,14.05,13.2,26.21,14.28,73.17,14.25,99.84,1.19,6.01-2.94,13.32-7.94,15.77-14.39l1.78,3.13v12.97Z"/>
      </g>
    </g>
    <path class="cls-3" d="M366.19,370.72c-4.96,14.37-22.54,20.78-36.15,23.93-24.41,5.65-74.61,5.02-92.18-15.87-4.54-5.4-6.6-16.17-3.82-22.63,1.2-2.79,1.58.23,2.34,1.31,9.8,13.93,35.87,19.55,51.93,20.86,21.33,1.74,58.85-1.8,73.64-19.22.71-.84,2.26-3.82,2.68-4.03,1.04-.52.69,2.4,1.56,2.68v12.97Z"/>
  </g>
  <path class="cls-3" d="M304.13,151.25c-2.01-1.9-.4-5.26-3.57-7.02-3.58-1.98-7.75,2-5.94,5.66,1.58,3.21,5,2.2,7.77,2.96,9.99,2.76,12.74,16.4,4.81,22.98-.74.61-4.01,2.27-4.13,2.48-.27.45-.08,1.33-.25,1.95-.87,3.16-5.01,3.97-7.38,1.91-1.63-1.42-.91-2.96-1.44-3.86-.12-.21-3.33-1.81-4.13-2.48-3-2.52-5.34-7.62-4.43-11.57.72-3.11,5.28-4.08,7.42-1.88s.52,5.71,3.83,7.18c5.52,2.46,9.74-6.87,1.67-8.27-1.92-.33-3.04-.17-5.05-1-9.06-3.76-10.93-16.11-3.44-22.42.8-.67,4-2.27,4.13-2.48.25-.42.12-1.47.32-2.16,1.11-3.84,7.34-3.81,8.5.22.18.63,0,1.5.26,1.94.18.31,2.29,1.15,2.87,1.53,3.71,2.46,6.91,8.23,5.62,12.73-.87,3.04-5.21,3.71-7.43,1.6Z"/>
  <text class="cls-4" transform="translate(24.96 -18.95)"><tspan x="0" y="0">Cash &amp; Liquidity Mana</tspan><tspan class="cls-2" x="332.37" y="0">g</tspan><tspan x="350.79" y="0">ement</tspan></text>
</svg>