<?xml version="1.0" encoding="UTF-8"?>
<svg id="Layer_1" data-name="Layer 1" xmlns="http://www.w3.org/2000/svg" viewBox="0 0 500 500">
  <defs>
    <style>
      .cls-1 {
        letter-spacing: 0em;
      }

      .cls-2 {
        fill: #49dffb;
      }

      .cls-3 {
        letter-spacing: 0em;
      }

      .cls-4 {
        font-family: Oswald-Bold, Oswald;
        font-size: 36.83px;
        font-weight: 700;
      }
    </style>
  </defs>
  <g>
    <g>
      <path class="cls-2" d="M278.43,198.33c1.33-6.13-4.24-24.28,6.74-22.59,1.6.25,4.25,2.74,4.25,4.17v18.42h11.31c1.98,0,7.87,5.99,7.45,8.71l-.32,130.24c-.67,2.52-5.32,7.09-7.77,7.09h-10.66v17.77c0,2.2-3.33,4.74-5.56,4.82-1.85.07-5.43-2.67-5.43-4.17v-18.42h-10.66c-.27,0-3.02-1.31-3.53-1.64-3.99-2.6-4.92-7.13-5.23-11.57-2.71-39.36,2.08-81.82.04-121.5-.43-3.8,4.1-11.32,8.07-11.32h11.31Z"/>
      <path class="cls-2" d="M357.27,127.89h11.31c2.33,0,8.04,6.4,7.43,9.37l-.31,128.93c-.64,3.07-5.4,7.74-8.42,7.74h-10.02c-.73,5.16,2.94,23.27-5.98,22.5-1.24-.11-5.01-2.6-5.01-3.43v-19.06h-10.66c-3.68,0-9.53-7.25-8.75-11.29l.02-124.74c-.32-3.11,4.61-10.01,7.43-10.01h11.95c1.28-5.88-3.79-23.07,5.51-22.68,8.74.36,4.49,16.99,5.48,22.68Z"/>
    </g>
    <g>
      <path class="cls-2" d="M142.73,226.11c.8-5.5-3.08-23.18,6.1-22.59,1.39.09,4.89,2.29,4.89,3.53v19.06h10.66c3.68,0,9.53,7.25,8.75,11.29l-.02,124.74c.32,3.11-4.61,10.01-7.43,10.01h-11.95c-.49,5.64.66,12.28.01,17.78-.91,7.79-11,5.04-11-.01v-17.77h-11.31c-2.33,0-8.04-6.4-7.43-9.37l.31-128.93c.64-3.07,5.4-7.74,8.42-7.74h10.02Z"/>
      <path class="cls-2" d="M210.58,143.72c.39-1.82,3.5-4.25,5.49-4.24,2.07.01,5.49,2.17,5.49,4.24v18.42h10.66c1.69,0,6.19,3.65,7.06,5.22,1.09,1.95,1.54,5.72,1.69,8,2.7,39.14-2.08,81.39-.04,120.85-.58,3.38-1.06,7.39-3.89,9.68-.39.32-3.94,2.29-4.18,2.29h-11.31c-1.02,5.54,3.65,24.76-6.64,22.49-1.3-.29-4.34-2.98-4.34-4.07v-18.42h-11.31c-1.98,0-7.87-5.99-7.45-8.71l.32-130.24c.67-2.52,5.32-7.09,7.77-7.09h10.66c.77-5.26-1.04-13.57,0-18.42Z"/>
    </g>
  </g>
  <text class="cls-4" transform="translate(38.53 -25.83)"><tspan x="0" y="0">T</tspan><tspan class="cls-3" x="16.39" y="0">r</tspan><tspan x="30.39" y="0">ade Finance Mana</tspan><tspan class="cls-1" x="297.45" y="0">g</tspan><tspan x="315.87" y="0">ement</tspan></text>
</svg>