<?xml version="1.0" encoding="UTF-8"?>
<svg id="Layer_1" data-name="Layer 1" xmlns="http://www.w3.org/2000/svg" viewBox="0 0 500 500">
  <defs>
    <style>
      .cls-1 {
        letter-spacing: 0em;
      }

      .cls-2 {
        fill: #129786;
      }

      .cls-3 {
        font-family: Oswald-Bold, Oswald;
        font-size: 36.83px;
        font-weight: 700;
      }

      .cls-4 {
        fill: none;
        stroke: #129786;
        stroke-miterlimit: 10;
        stroke-width: 9px;
      }
    </style>
  </defs>
  <text class="cls-3" transform="translate(62.48 -18.95)"><tspan x="0" y="0">Commodity Mana</tspan><tspan class="cls-1" x="258.71" y="0">g</tspan><tspan x="277.12" y="0">ement</tspan></text>
  <g>
    <g>
      <path class="cls-2" d="M364.91,333.99c-2.6,7.73-8.77,13.2-15.69,17.11-29.25,16.51-87.96,16.96-116.21-1.92-12.09-8.08-15.82-18.62-11.06-32.7,3.03,5.25,7.73,9.7,12.91,12.85,28.27,17.18,84.2,17.25,113.08,1.51,5.86-3.2,12.54-7.92,15.04-14.36,1.5.52,1.03,2.42,1.94,3.4v14.11Z"/>
      <g>
        <path class="cls-2" d="M364.91,295.56c-1.69,4.59-4.35,8.43-8.02,11.66-26.56,23.29-100.43,23.19-127.42.75-9.48-7.88-11.66-18.38-7.52-29.92,6.29,10.71,18.18,16.34,29.6,19.95,26.92,8.51,65.74,8.15,91.69-3.48,7.66-3.44,16.04-8.64,19.74-16.46,1.69-.37.75,2.21,1.93,2.91v14.59Z"/>
        <g>
          <path class="cls-2" d="M364.91,208.01v14.11c-4.08,11.88-16.28,18.36-27.42,22.38-28.65,10.34-79.29,10.18-105.06-7.59-14.83-10.22-17.56-29.17-3.45-41.31,26.59-22.86,103.64-23.26,129.15,1.45,3.1,3.01,5.28,6.94,6.78,10.96Z"/>
          <path class="cls-2" d="M364.91,258.59c-2.09,6.33-6.31,11.05-11.7,14.79-28.33,19.71-91.28,19.5-120.01.68-12.24-8.01-16.03-18.85-11.26-32.98,3.45,6.46,8.95,10.9,15.28,14.36,28.51,15.53,79.58,15.5,108.6,1.29,6.53-3.2,14.48-8.63,17.15-15.65l1.94,3.4v14.11Z"/>
        </g>
      </g>
      <path class="cls-2" d="M364.91,370.47c-5.4,15.63-24.51,22.6-39.32,26.03-26.55,6.14-81.16,5.46-100.26-17.27-4.93-5.87-7.18-17.59-4.16-24.61,1.31-3.04,1.72.25,2.55,1.42,10.66,15.16,39.02,21.27,56.48,22.69,23.2,1.89,64-1.96,80.1-20.9.77-.91,2.46-4.15,2.91-4.38,1.13-.56.75,2.61,1.69,2.91v14.11Z"/>
    </g>
    <g>
      <g>
        <polyline class="cls-4" points="253.5 93.19 335.57 93.19 335.57 152.52"/>
        <polyline class="cls-4" points="253.5 107.52 320.77 107.52 320.77 152.52"/>
      </g>
      <polygon class="cls-4" points="328.45 170.69 322.7 161.25 317.4 151.55 328.45 151.29 339.5 151.55 334.19 161.25 328.45 170.69"/>
    </g>
    <g>
      <path class="cls-2" d="M207.95,352.38c-3.05,0-3.17,1.9-3.17,6.28v1.56c0,4.32.23,6.69,3.17,6.69s3.17-2.42,3.17-6.69v-1.56c0-4.38-.06-6.28-3.17-6.28Z"/>
      <path class="cls-2" d="M177.06,332.15c-3.05,0-3.17,1.9-3.17,6.28v1.56c0,4.32.23,6.69,3.17,6.69s3.17-2.42,3.17-6.75v-1.44c0-4.38-.06-6.34-3.17-6.34Z"/>
      <path class="cls-2" d="M194.41,288.17c-32.76,0-59.32,26.56-59.32,59.32s26.56,59.32,59.32,59.32,59.32-26.56,59.32-59.32-26.56-59.32-59.32-59.32ZM166.16,340.28v-2.08c0-8.47,2.83-12.11,10.9-12.11s10.95,3.57,10.95,11.99v2.31c0,8.24-2.94,12.28-10.95,12.28s-10.9-4.09-10.9-12.39ZM187.95,372.85h-5.25l14.36-46.69h5.19l-14.3,46.69ZM218.91,360.57c0,8.3-3,12.34-10.95,12.34s-10.84-4.09-10.84-12.39v-2.08c0-8.42,2.77-12.11,10.84-12.11s10.95,3.57,10.95,11.99v2.25Z"/>
    </g>
  </g>
</svg>