<?xml version="1.0" encoding="UTF-8"?>
<svg id="Layer_1" data-name="Layer 1" xmlns="http://www.w3.org/2000/svg" viewBox="0 0 500 500">
  <defs>
    <style>
      .cls-1 {
        letter-spacing: 0em;
      }

      .cls-2 {
        fill: #129786;
      }

      .cls-3 {
        font-family: Oswald-Bold, Oswald;
        font-size: 36.83px;
        font-weight: 700;
      }
    </style>
  </defs>
  <g>
    <g>
      <path class="cls-2" d="M321.6,220.02c1.04-.18,3.4-1.85,3.71-2.91,3.14-10.69-16.3-5.13-17.77-7.09-7.45-11.54-1.46-23.1,12.92-20.44,7.9,1.46,6.31,12.43,13.87,12.51,7.97.09,8.74-7.9,5.62-13.67-5.97-11.04-24.86-13.38-35.69-9.68-13.59,4.65-19.92,18.81-12.46,31.59-1.36.04-2.76-.19-4.1.23s-2.09,2.23-3.26,2.29c-.97.05-6.23-2.31-7.92-2.78-8.48-2.33-17.18-3.52-25.97-3.82,6.77-48.97,64.58-72.34,103.39-40.49,35.76,29.34,28.58,86.63-13.02,106.19l-9.38-19.1c1.63-1.06,3.47-.89,5.43-1.68,7-2.83,6.87-12.99.37-13.83-5.08-.66-11.46,2.84-17.49-.31-2.81-1.47-6.14-7.36-9.49-8.88.33-2.71,1.63-5.4.29-8.15,3.3-.41,7.83.56,10.95,0Z"/>
      <path class="cls-2" d="M194.02,119.69c18.82,1.74,38.09,15.11,47.45,31.23,1.97,3.39,7.4,14.89,7.04,18.38-.12,1.18-5.96,10.43-7.05,12.85-3.67,8.07-5.87,16.76-6.74,25.6-24.56,3.84-46.55,17.81-61.3,37.58-47.77-10.28-67.1-69.19-33.4-105.54,9.35-10.08,25.43-18.79,39.23-20.1,3.77-.36,10.99-.35,14.77,0ZM178.74,194.04h-12.99c-1.66,0-4.22,2.03-4.33,3.86-.09,1.62,1.75,4.29,3.31,4.29h14.01v12.99c0,3.31,4.95,5.75,7.89,5.75,2.88,0,7.89-2.55,7.89-5.75v-12.99h14.01c1.56,0,3.4-2.67,3.31-4.29-.1-1.83-2.67-3.86-4.33-3.86h-12.99c-.64-9.13,7.68-5.34,13.46-6.14,3.71-.52,5.31-4.99,2.09-7.12-2.28-1.51-5.27-.68-7.67-1-.71-.09-.88.28-.75-.76l14.37-23.83c3.16-7.73-7.83-12.71-13.11-8.01-1.02.91-2.61,3.91-3.39,5.27-4.52,7.83-7.96,16.62-12.9,24.27l-15.61-28.69c-4.56-5.38-15.45-2.23-14.15,6,.81,5.13,11.57,18.53,14.32,24.38.22.46.59.69.41,1.37-3.33-.25-10.88-.35-10.09,4.71.96,6.15,11.68,1.99,15.19,3.69,1.43.69,2.38,4.33,2.03,5.86Z"/>
    </g>
    <g>
      <path class="cls-2" d="M329.44,301.19c0,43.85-35.54,79.39-79.39,79.39s-79.39-35.54-79.39-79.39,35.54-79.39,79.39-79.39,79.39,35.54,79.39,79.39ZM246.47,307.11v27.5c-3.78.29-9.15-.86-11.96-3.57-5.18-5-3.43-15.96-13.68-15.24-9.65.68-8.15,11.09-4.62,17.24,6,10.46,18.81,14.56,30.26,14.81.12,3.14-1.34,13.15,4.14,12.48,5-.61,3.18-9.06,3.5-12.47,17.41-.89,33.36-9.14,32.61-28.81-.72-18.69-16.75-24.48-32.62-27.22v-25.46c5.48-.2,9.65,2.54,13.25,6.35,2.64,2.8,4.59,7.38,8.95,7.88,3.63.41,7.77-1.84,8.64-5.53,3.22-13.67-20.42-21.9-30.85-21.42.17-2.93.79-12.42-4.21-11.64-4.51.71-3.33,8.43-3.42,11.64-16.65-.05-31.92,10.21-31.09,28.29.75,16.45,17.28,22.57,31.09,25.18Z"/>
      <path class="cls-2" d="M254.11,334.61v-25.97c6.63,1.21,15.62,3.97,16.32,11.94.84,9.46-8.03,14.21-16.32,14.03Z"/>
      <path class="cls-2" d="M246.47,266.36v23.94c-5.01-1.21-12.21-3.16-14.15-8.51-3.5-9.65,5.72-15.34,14.15-15.43Z"/>
    </g>
  </g>
  <text class="cls-3" transform="translate(30.02 -30.9)"><tspan x="0" y="0">Currency Risk Mana</tspan><tspan class="cls-1" x="303.16" y="0">g</tspan><tspan x="321.58" y="0">ement</tspan></text>
</svg>