<?xml version="1.0" encoding="UTF-8"?>
<svg id="Layer_1" data-name="Layer 1" xmlns="http://www.w3.org/2000/svg" viewBox="0 0 500 500">
  <defs>
    <style>
      .cls-1 {
        fill: #129786;
      }

      .cls-2 {
        font-family: Oswald-Bold, Oswald;
        font-size: 36.83px;
        font-weight: 700;
      }

      .cls-3 {
        letter-spacing: -.02em;
      }
    </style>
  </defs>
  <g>
    <g>
      <path class="cls-1" d="M372.35,345.26c-2.07,6.48-6.62,11.18-13.62,11.98h-217.74c-7.29-.83-12.81-6.37-13.64-13.64v-141.19c.8-7.07,6.15-12.64,13.18-13.61h87.55c6.29.52,8.87,9.34,4.18,13.4-.33.29-3.03,1.91-3.22,1.91h-86.36v30.62h86.36c.6,0,3.06,1.72,3.59,2.29,2.71,2.94,2.76,8.42-.37,11.11-.33.29-3.03,1.91-3.22,1.91h-86.36v91.87h214.35v-55.74c0-.6,1.72-3.06,2.29-3.59,4.31-3.97,10.95-1.86,13.02,3.35v59.33Z"/>
      <path class="cls-1" d="M201.84,282.75c4.17,4.16,2.07,12.25-3.92,13.19-9.88,1.56-23.62-1.08-33.91,0-7.97-1.96-8.22-12.85-.4-15.17,10.74.64,23.34-1.25,33.86-.11,1.63.18,3.22.93,4.37,2.09Z"/>
    </g>
    <g>
      <path class="cls-1" d="M372.35,171.09c-.68,14.43.92,29.69,0,44.02-2.03,31.72-18.05,53.99-43.58,71.49-3.29,2.25-13.56,9.17-16.92,9.4-3.92.27-8.38-3.06-11.7-5.09-21.75-13.28-39.99-30.75-46.79-56.08-5.46-20.32-2.91-41.26-3.51-62.09-.06-1.93,1.23-3.45,2.21-4.97,17.47-7.63,34.93-16.56,52.85-23.23,3.27-1.21,6.08-2.68,9.69-1.1,16.5,7.91,34.51,13.86,50.91,21.82,3.3,1.6,5.14,2.3,6.85,5.83ZM310.51,159.21l-44.87,19.29c-.48.37-.43.9-.49,1.42-.75,6.28-.21,17.32,0,23.97.85,25.85,5.84,43.98,25.85,61.23,2.19,1.89,18.87,14.25,20.25,14.03,15.38-9.39,30.97-21.06,38.69-37.88,5.31-11.56,6.68-24.34,7.11-36.91.29-8.48-.06-17.19-.25-25.63l-44.74-19.4c-.51-.25-1.01-.22-1.56-.13Z"/>
      <path class="cls-1" d="M297.88,240.3l-17.02-25.8c-2.68-7.85,6.49-13.84,12.66-8.49,2.02,1.75,9.72,15.34,10.65,15.31l24.4-30.61c7.38-5.61,16.34,1.32,12.21,9.82l-31.6,39.69c-3.08,2.94-8.23,3.06-11.31.07Z"/>
    </g>
  </g>
  <text class="cls-2" transform="translate(157.02 -18.95)"><tspan class="cls-3" x="0" y="0">P</tspan><tspan x="20.44" y="0">aymaents</tspan></text>
</svg>