<?xml version="1.0" encoding="UTF-8"?>
<svg id="Layer_2" data-name="Layer 2" xmlns="http://www.w3.org/2000/svg" viewBox="0 0 191.81 35.34">
  <defs>
    <style>
      .cls-1 {
        fill: #fff;
      }
    </style>
  </defs>
  <g id="Layer_1-2" data-name="Layer 1">
    <g>
      <path class="cls-1" d="M0,0h14.06c2.68,0,4.69.67,6.18,1.79,1.64,1.34,2.53,3.27,2.53,5.65,0,2.75-1.12,4.46-3.35,5.51v.15c2.98.97,4.69,3.65,4.69,6.85s-1.19,5.43-3.12,6.92c-1.64,1.19-3.72,1.71-6.55,1.71H0V0ZM12.65,11.16c1.49,0,2.6-.82,2.6-2.53s-1.12-2.46-2.68-2.46h-4.84v4.91h4.91v.07ZM13.32,22.25c1.71,0,2.98-1.04,2.98-2.9,0-2.01-1.34-2.9-2.98-2.9h-5.51v5.88h5.51v-.07Z"/>
      <path class="cls-1" d="M25.37,0h7.37v28.64h-7.37V0Z"/>
      <path class="cls-1" d="M34.23,18.45c0-6.47,4.17-10.79,10.64-10.79s10.57,4.39,10.57,10.79-4.09,10.79-10.57,10.79-10.64-4.32-10.64-10.79ZM48.06,18.45c0-3.57-1.12-5.8-3.35-5.8s-3.27,2.23-3.27,5.8,1.04,5.88,3.27,5.88c2.23-.07,3.35-2.31,3.35-5.88Z"/>
      <path class="cls-1" d="M56.25,18.45c0-6.47,4.17-10.79,10.64-10.79s10.49,4.32,10.49,10.79-4.09,10.79-10.57,10.79-10.57-4.32-10.57-10.79ZM70.09,18.45c0-3.57-1.12-5.8-3.35-5.8s-3.27,2.23-3.27,5.8,1.04,5.88,3.27,5.88c2.23-.07,3.35-2.31,3.35-5.88Z"/>
      <path class="cls-1" d="M78.87,8.18h6.84v3.05h.15c1.34-2.38,3.2-3.65,6.18-3.65,2.6,0,4.54,1.26,5.51,3.5h.15c1.64-2.68,3.79-3.5,6.32-3.5,4.76,0,6.77,3.5,6.77,8.18v12.8h-7.14v-11.53c0-2.08-.67-3.42-2.46-3.42s-2.68,1.64-2.68,3.87v11.09h-7.14v-11.53c0-2.08-.67-3.42-2.46-3.42s-2.68,1.64-2.68,3.87v11.09h-7.37V8.18Z"/>
      <path class="cls-1" d="M119.79,25.89h-.07v2.68h-6.85V0h7.14v10.27h.15c1.34-1.79,3.2-2.75,5.8-2.75,5.13,0,8.11,4.61,8.11,10.79,0,6.92-3.2,10.94-8.56,10.94-2.23,0-4.54-1.04-5.73-3.35ZM126.71,18.23c0-3.27-1.19-5.43-3.35-5.43s-3.57,2.16-3.57,5.43,1.41,5.43,3.57,5.43,3.35-2.08,3.35-5.43Z"/>
      <path class="cls-1" d="M134.89,18.38c0-6.4,4.24-10.79,10.34-10.79,3.05,0,5.36.97,7.14,2.68,2.38,2.31,3.42,5.88,3.35,10.04h-13.69c.3,2.53,1.49,3.87,3.65,3.87,1.26,0,2.38-.6,2.83-1.93h6.92c-1.19,4.69-4.84,6.99-9.97,6.99-6.32-.07-10.57-4.39-10.57-10.86ZM142.03,16.22h6.55c-.15-2.46-1.49-3.72-3.2-3.72-2.01-.07-3.12,1.34-3.35,3.72Z"/>
      <path class="cls-1" d="M163.83,11.68h.15c1.49-2.83,3.42-3.94,5.88-3.94.6,0,.97.07,1.19.22v6.25h-.15c-4.24-.74-6.7,1.26-6.7,5.88v8.56h-7.22V8.18h6.85v3.5Z"/>
      <path class="cls-1" d="M171.79,28.64h6.92c.3.89,1.19,1.71,2.9,1.71,2.31,0,3.12-1.41,3.12-3.57v-1.49h-.15c-1.12,1.34-2.68,2.31-4.91,2.31-4.39,0-8.26-3.27-8.26-9.67,0-5.88,3.12-10.42,7.89-10.42,2.75,0,4.39,1.12,5.51,2.83h.15v-2.23h6.85v17.71c0,3.27-1.12,5.8-2.83,7.29-1.79,1.56-4.32,2.23-7.22,2.23-5.51.07-9.3-2.16-9.97-6.7ZM185.04,17.63c0-2.53-1.19-4.61-3.27-4.61s-3.27,1.79-3.27,4.61,1.26,4.69,3.27,4.69c2.01,0,3.27-2.01,3.27-4.69Z"/>
    </g>
  </g>
</svg>