<?xml version="1.0" encoding="UTF-8"?>
<svg id="Layer_2" data-name="Layer 2" xmlns="http://www.w3.org/2000/svg" viewBox="0 0 186.94 24.3">
  <defs>
    <style>
      .cls-1 {
        fill: #fff;
      }
    </style>
  </defs>
  <g id="Layer_1-2" data-name="Layer 1">
    <path class="cls-1" d="M80.88,15.8h12.33l-6.51-10.52-11.97,18.99h-5.44L83.84,1.48c1.1-1.57,3.26-1.96,4.83-.86.32.22.6.5.83.82l14.6,22.83h-5.44l-2.56-4.25h-12.47l-2.72-4.23M137.47,20.03V.23h-4.63v21.75c0,.61.25,1.2.69,1.62.44.45,1.05.71,1.68.7h21.03l2.74-4.25h-21.54M60.97,16.49c4.49,0,8.13-3.64,8.13-8.13S65.46.23,60.97.23h-20.22v24.04h4.62V4.49h15.32c2.15,0,3.89,1.74,3.89,3.89s-1.74,3.89-3.89,3.89h-13.03l13.8,12.01h6.71l-9.27-7.78h2.08M12.33,24.27h13.97c6.64-.17,11.88-5.69,11.71-12.33-.17-6.39-5.31-11.54-11.71-11.71h-13.97C5.7.07.18,5.31,0,11.94c-.17,6.64,5.07,12.16,11.71,12.33.21,0,.42,0,.62,0M25.99,20.04h-13.35c-4.3-.14-7.67-3.73-7.53-8.03.13-4.1,3.43-7.4,7.53-7.53h13.35c4.3-.14,7.89,3.23,8.03,7.53.14,4.3-3.23,7.89-7.53,8.03-.17,0-.33,0-.5,0M113.75,24.27h14.26l2.7-4.23h-16.65c-4.3.14-7.89-3.23-8.03-7.53-.14-4.3,3.23-7.89,7.53-8.03.17,0,.33,0,.5,0h13.55l2.73-4.25h-16.6c-6.64-.17-12.16,5.07-12.33,11.71-.17,6.64,5.07,12.16,11.71,12.33.21,0,.42,0,.62,0M170.28,20.04c-3.48,0-6.54-2.31-7.49-5.66h19.76l2.72-4.24h-22.47c.95-3.35,4.01-5.67,7.49-5.66h13.56l2.71-4.25h-16.58c-6.64.17-11.88,5.69-11.71,12.33.17,6.39,5.31,11.54,11.71,11.71h14.26l2.71-4.23h-16.66"/>
  </g>
</svg>