<?xml version="1.0" encoding="UTF-8"?>
<svg id="Layer_2" data-name="Layer 2" xmlns="http://www.w3.org/2000/svg" viewBox="0 0 119.62 47.58">
  <defs>
    <style>
      .cls-1 {
        fill: #fff;
      }
    </style>
  </defs>
  <g id="Layer_1-2" data-name="Layer 1">
    <path class="cls-1" d="M33.42,0v21.55h2.05V0h26.69v21.55h2.05V0h26.69v25.64l2.15-1.99V0h26.59v37.02s-.14.15-.15.15h-7.31l-2.25,8.94c-2.98.6-6.01,1.18-9.05,1.38-5.35.35-12.31-.07-14.29-6.05-.45-1.37-.57-2.83-.59-4.27h-3.53l-2.2,9.81h-6.54l2.15-9.81h-4.04l-6.34,9.81h-5.57l-.1-9.81h-2.86l-2.76,9.81h-6.65l2.86-9.81h-15.85l-3.12,9.91h-6.39l2.97-9.91h-10.74l4.7,9.91h-7.11l-5.11-9.91-.78.07-3.11,9.85H.13s-.2-.14-.11-.21l6.71-22V0h26.69ZM32.4,1.02H7.75v20.53h5.93l-3.07,10.32,9.76-10.32h7.92l-12.33,12.67c-.08.28.72,1.88.84,1.92l11.49-.03,4.09-13.28V1.02ZM61.13,1.02h-24.64v20.53c4.87.45,14.35-2.09,14.01,5.67-.14,3.26-1.61,6.61-4.57,8.2l-1.46.73h6.24l4.19-14.61h6.24V1.02ZM89.86,1.02h-24.64v35.13l.73-.07c2.95-4.78,6.07-9.46,9.08-14.2.07-.1.11-.21.12-.34h10.53l-3.07,14.61h3.58c.19-2.45,1.12-4.91,2.3-7.05.24-.44,1.22-1.77,1.27-2.1.12-.75-.11-1.66.11-2.44V1.02ZM118.6,1.02h-24.64v21.96c1.94-1.18,4.08-2,6.32-2.42,3.9-.73,11.5-.96,13.77,3.03.85,1.5.89,3.53.29,5.11h-7.4c.33-2.85-1.91-3.66-4.35-3.48-5.25.38-8.34,6.21-8.64,10.93h6.03l1.07-4.09h12.42l-1.02,4.09h6.14V1.02ZM36.08,32.68h3.43c2.53,0,4.08-1.9,4.6-4.19.38-1.67.25-2.45-1.56-2.73-1.48-.23-3.07-.08-4.56-.14l-1.9,7.05ZM59.8,36.16v-7.92s-.11-.57-.2-.56l-2.35,8.48h2.56ZM76.06,36.16l1.79-8.48-5.37,8.48h3.58ZM105.3,37.18h-11.45c.09.83.17,1.54.49,2.32,1.55,3.72,6.47,3.22,9.71,2.56l1.25-4.88Z"/>
  </g>
</svg>