<?xml version="1.0" encoding="UTF-8"?>
<svg id="Layer_2" data-name="Layer 2" xmlns="http://www.w3.org/2000/svg" viewBox="0 0 196 36.65">
  <defs>
    <style>
      .cls-1 {
        fill: #fff;
      }
    </style>
  </defs>
  <g id="Layer_1-2" data-name="Layer 1">
    <g id="layer1">
      <g id="g3359">
        <g id="g3371">
          <path id="path3356" class="cls-1" d="M185.61,31.45c0-2.87,2.33-5.19,5.2-5.19s5.19,2.33,5.19,5.19-2.33,5.19-5.19,5.19-5.2-2.33-5.2-5.19"/>
          <path id="path3360" class="cls-1" d="M19.94,17.69c0-3.29-.64-5.73-1.91-7.32-1.27-1.59-3.2-2.38-5.79-2.38h-2.76v20.12h2.11c2.88,0,4.99-.85,6.33-2.57,1.34-1.71,2.02-4.33,2.02-7.85M29.77,17.35c0,5.99-1.61,10.61-4.83,13.86-3.22,3.24-7.75,4.87-13.59,4.87H0V.15h12.14c5.63,0,9.98,1.47,13.04,4.42,3.06,2.95,4.59,7.21,4.59,12.78"/>
          <path id="path3362" class="cls-1" d="M61.21,36.07h9.03V0h-9.03v36.07Z"/>
          <path id="path3366" class="cls-1" d="M82.92,22.62c0,2.3.3,4.05.9,5.26.6,1.21,1.61,1.81,3.02,1.81s2.39-.6,2.97-1.81c.58-1.21.86-2.96.86-5.26s-.29-4.01-.88-5.18c-.59-1.17-1.59-1.75-3-1.75s-2.38.58-2.98,1.74c-.6,1.16-.9,2.89-.9,5.19M99.87,22.62c0,4.38-1.15,7.8-3.45,10.25-2.3,2.45-5.52,3.68-9.66,3.68s-7.13-1.25-9.48-3.76c-2.35-2.51-3.52-5.9-3.52-10.17s1.15-7.76,3.45-10.18c2.3-2.42,5.53-3.63,9.69-3.63,2.57,0,4.84.56,6.81,1.68,1.97,1.12,3.49,2.72,4.56,4.81,1.07,2.09,1.6,4.53,1.6,7.32"/>
          <path id="path3370" class="cls-1" d="M103.46,36.07h9.03V9.28h-9.03v26.79Z"/>
          <path id="path3372" class="cls-1" d="M103.45,6.04h9.03V0h-9.03v6.04Z"/>
          <path id="path3376" class="cls-1" d="M130.78,29.24c1.22,0,2.67-.31,4.37-.92v6.74c-1.22.54-2.38.92-3.48,1.15-1.1.23-2.39.34-3.87.34-3.03,0-5.22-.76-6.56-2.28-1.34-1.52-2.01-3.86-2.01-7.01v-11.05h-3.16v-6.93h3.16V2.44l9.1-1.58v8.43h5.76v6.93h-5.76v10.43c0,1.73.82,2.6,2.45,2.6"/>
          <path id="path3380" class="cls-1" d="M151.68,29.24c1.22,0,2.67-.31,4.37-.92v6.74c-1.22.54-2.38.92-3.48,1.15-1.1.23-2.39.34-3.87.34-3.03,0-5.22-.76-6.56-2.28s-2.01-3.86-2.01-7.01v-11.05h-3.16v-6.93h3.16V2.34l9.1-1.48v8.43h5.76v6.93h-5.76v10.43c0,1.73.82,2.6,2.45,2.6"/>
          <path id="path3384" class="cls-1" d="M167.44,19.35c.12-1.47.54-2.54,1.26-3.23.72-.69,1.61-1.03,2.67-1.03,1.16,0,2.08.38,2.76,1.16.69.77,1.04,1.8,1.07,3.1h-7.76,0ZM180.18,11.96c-2.15-2.1-5.19-3.16-9.13-3.16-4.14,0-7.33,1.21-9.56,3.63-2.23,2.42-3.35,5.89-3.35,10.42s1.21,7.76,3.62,10.13c2.41,2.37,5.79,3.56,10.15,3.56,2.09,0,3.89-.14,5.4-.43,1.5-.28,2.95-.79,4.36-1.52l-1.39-6.04c-1.02.42-2,.74-2.92.95-1.33.31-2.79.46-4.37.46-1.74,0-3.11-.43-4.12-1.28-1.01-.85-1.54-2.03-1.61-3.52h16.14v-4.11c0-3.96-1.07-6.99-3.22-9.09"/>
          <path id="path3388" class="cls-1" d="M41.76,19.35c.12-1.47.54-2.54,1.26-3.23.72-.69,1.61-1.03,2.67-1.03,1.15,0,2.07.38,2.76,1.16.69.77,1.04,1.8,1.07,3.1h-7.76ZM54.5,11.96c-2.15-2.1-5.19-3.16-9.13-3.16-4.14,0-7.33,1.21-9.56,3.63-2.23,2.42-3.35,5.89-3.35,10.42s1.21,7.76,3.62,10.13c2.41,2.37,5.79,3.56,10.15,3.56,2.09,0,3.89-.14,5.4-.43,1.5-.28,2.95-.79,4.36-1.52l-1.39-6.04c-1.02.42-2,.74-2.92.95-1.33.31-2.79.46-4.38.46-1.74,0-3.11-.43-4.12-1.28-1.01-.85-1.54-2.03-1.61-3.52h16.14v-4.11c0-3.96-1.07-6.99-3.22-9.09"/>
        </g>
      </g>
    </g>
  </g>
</svg>