<?xml version="1.0" encoding="UTF-8"?>
<svg id="Layer_2" data-name="Layer 2" xmlns="http://www.w3.org/2000/svg" viewBox="0 0 190.23 49.35">
  <defs>
    <style>
      .cls-1 {
        fill: #fff;
      }
    </style>
  </defs>
  <g id="Layer_1-2" data-name="Layer 1">
    <g>
      <path class="cls-1" d="M45.71,6.97s.04.72.2,1c.1.18.36.23.4.31.22.44.23,1.14.76,1.53.42,0,.18-.68.35-1.07.32-.71.5.11,1.07.11.41,0,.76-.49,1.19-.46.03,1.05-.68,1.74-1.11,2.61l1.28.34v9.62c-.94.91-1.12,1.58-1.63,2.65-.2.41-.71.77-.75,1.31-.06.9,1.13,1.73,1.89,1.97l-1.58,1.03c.41.07,1.72.68,1.26,1.18-.13.14-.8-.27-1.04-.31-.89-.13-1.7.44-2.12,1.18.41.17,1.55-.07,1.71.5.27.95-.5.97-.93,1.39-.16.16-.77,1.21-.63,1.34.15.03,1.74-.69,1.58-.08-.15.56-1.61,2.63-2.06,3.16-1.86,2.22-4.51,4.04-7.31,4.87-1.71.51-1.93.46-3.63-.09-4.04-1.29-7.29-4.32-9.14-8.09.35-.35,1.53.4,1.74.24-.24-.4-.37-.92-.7-1.27-.26-.27-.83-.45-.85-.49-.18-.3-.23-1.17.28-1.33.66-.19,2.22.17.63-.93-.49-.34-.85-.47-1.45-.37-.29.05-.98.62-1.07.2-.16-.76,1.3-1.02,1.26-1.1-.19-.18-.35-.4-.58-.53-.31-.18-.86-.18-1-.5.56.04,1.74-.88,1.85-1.38.26-1.15-.31-1.12-.63-1.82-.52-1.14-.73-1.92-1.7-2.88v-9.56s1.42-.24,1.42-.24c-.61-.78-1.16-1.55-1.11-2.61.82.55,1.23.55,2.05,0,.13.34.12.68.17,1.02.02.16-.11.54.23.4.53-.22,1.28-2.27,1.6-2.85l18.08.02ZM37.67,14.2c-.16-.27.22-.8-.42-.92-.19-.04-1.6-.06-1.66,0-.12.12.3.95-.39,1.11-.59.13-.45-.53-.56-.95l-1.74.32c-.08.08.44,1.66.55,1.89.73,1.51.91.72,2.21.63.56-.04,1.34-.03,1.9,0,.94.07,1.45.78,2.1-.43.11-.2.67-1.86.6-1.94-.87-.34-2.05-.99-1.83.48-.05.05-.71-.09-.77-.18ZM38.9,16.93c-.73-.39-4.46-.52-4.7.24-.05.14-.31,2.09-.29,2.2.04.23.68.34.9.39l-.32.47h1.11s-.32.79-.32.79c1.27.01.27,1,.34,1.32s.61.37.61.5c0,.43-.55.48-.61.58-.1.17.45,1.52.64,1.61.63.28,2.84.38,3.52.27.4-.07.43-.44.23-.63-.06-.06-1.32.32-1.66.32-2.47-.03-2.77-3.04-.29-3.15.49-.02.97.24,1.48.15l-.65-5.04ZM34.17,19.76c-.94.12-.95,1.03-1.27-.47-.34.11-.49.45-.47.79-.35-.28-.64-.39-1.1-.32l.31.79c-.36-.18-.78-.3-.95.16.26-.08.6.4.32.56-.2.11-.77-.56-.94.02-.26.89.7.97.9,1.21.21.26-.02.75.83.59.04.26-.42.19-.47.39-.13.5.98.7,1.26.39s-.61-.31-.31-.63c.03-.04.69.3.95.16-.54,1.02,1.26.66,1.11.08-.05-.2-.52-.14-.47-.39.94.24.58-.51.83-.76.13-.13.59-.03.77-.3.59-.87-.4-.73-.49-.85-.17-.23.81-1.45-.79-.31v-1.11ZM30.85,31.14c.22.04.56-.08.8.07.42.27-.29.78.23.72l1.74-1.74.24.24c.45-.42.37-1.17.48-1.34,0-.01.25.13.32.07.16-.14.1-.44.18-.52.19-.18,4-.9,4.48-.83.74.1.89.86,1.48,1.04.77.24,1.73-.3,1.89.79.11.73.16,1.5-.78,1.27-.19-.05-1.18-.97-1.09-.34.16,1.22.42.71.61.89.1.1-.04.56.02.62.05.06,1.38.02,1.59-.08.19-.1.22-.37.36-.51.12-.11.46-.03.56-.3.11-.31-.03-.82.02-1.17l.31.16c.1-.64-.29-.97-.63-1.42l.63.08c-.44-1.59-2.45-.45-2.84-2.29,1.59.44,3.43-.97,2.51-2.59-.77-1.35-2.07-.18-3.11-.14-.43.02-.83-.2-1.23-.19-.31,0-2.31.61-1.97-.47.29-.94,2.88.69,3.48.31l-.32-.39c1.16.52,2.06-.59,3.08.31.29.09-.36-1.44-1.58-1.44-.23,0-.82.2-.86.17-.05-.04-.23-1.04-.87-.95-.54.08.54.98-.36,1.24-.66.19-3.92-1.21-3.52,1.2.27,1.64,3.01.68,3.88.7.32,0,.17.46.46.33.18-.08.37-.45.7-.56,1.77-.57,2.1,1.5.85,1.79-1.1.25-1.82-.31-2.83-.42-1.35-.15-2.72.22-4.01-.34.32.99-.69,2.4-1.52,2.82-.33.17-.98.15-1.1.32-.17.24,0,.9-.07.96-.03.03-.54-.05-.79.08-.33.16-.59,1.09-.88,1.16-.14.03-.38-.13-.58-.09s-1.18.24-1.22.28c-.02.02-.01.45,0,.47.03.04.54-.19.88-.18s.36.17.38.18c-.87-.08-.72.66-.24,1.11l.24-1.11ZM34.45,23.99c-.04.08-.3.14-.41.29-1.31,1.96-1.69,1.25-2.77-.43-.07-.11-.8-2.06-1.2-1.17-.17.37.42.18.47.24.28.27-1.34,1.63-.16,1.42-.36.6-.33,1.08-.16,1.74l.79-.63c-.34.8-.55,1.67.32,2.21.02-.3-.06-.99.32-1.11-.21.75-.16,1.2.16,1.89l.31-1.1c.01.6-.08,1.33.56,1.58-.03-.85.66-1.14.87-1.89v.79c.98-.11,1.36-1.21,1.26-2.05.3-.1.01,1.26.47.79.23-.24.36-1.57,0-1.89h.48c-.21-.44-.61-.99-.48-1.5.05-.21.63.13.48-.39-1.27-.56-1.02.69-1.31,1.22ZM29.9,23.24c-.83-.01-.81.46-1.2.94-.12.14-.61.18-.38.48.02.02.29,0,.44.26.81,1.39.11,2.25,1.92,3.3,1.43.83.06-.5-.13-.82-.7-1.16-.55-1.56-.72-2.67-.03-.2-.39-.35-.39-.46,0-.09.64-.67.45-1.03ZM32.27,24.18c-.8,0,.22,1.05.56,1.05.83,0,1.05-1.61.56-1.05-.02.02,0,.37-.15.56-.43.55-1.01.03-.96-.56ZM39.83,28.33c-.31-.32-1.41-.15-1.86-.19.41,1.25.9,1.93-.68,2.56-.31.13-.87.09-.9.12-.04.03.34.65,0,.95,1.83.42,2.46-1.38,4.09-1.75.11-.22-.55-1.58-.65-1.68Z"/>
      <path class="cls-1" d="M4.45,4.27l.5-2.42c.14-.37.4-.72.76-.9.02,2.34.91,4.59,1.97,6.64.76,1.46,2.18,2.9,1.98,4.66-.06.53-.42.94-.47,1.44-.24,2.44,3.98,3.72,3.93,1.26-.02-.88-1.06-3.37-1.65-4.04-.35-.4-.39.61-.86.47-.42-.53.08-2.87,0-2.99-.04-.06-.61-.14-.63-.17-.04-.05.25-1.02.31-1.19.18-.5.5-.85.64-1.33-.66.3-2.08.16-2.37-.56-.18-.46.68-.03.63-.39-1.05-.33-1.36-1.53-1.26-2.53.87.87,1.99,1.6,3.26,1.72,1.5.14,3.51-1.69,4.76-1.13.23.1.4.42.63.48.32.09.7,0,1.04.07.68.15.97,1.07.9,1.7-.32.05-.41-.27-.72-.32-1.03-.17-.92.42-1.41.8-.59.46-1.63.48-1.98,1.34,1.14,0,2.11.64,3.16.08-.2,1.8-1.34,1.1-2.43,1.12-.68.01-1.57.59-2.23-.18-.29-.34-.09-.81-.4-.94-.02.68-.12,1.2.52,1.61,1.03.67,1.47-.13,2.05,0,.24.05.57.44.87.56.47.18,2.36.58,2.72.44.21-.08,2.25-1.39,2.52-1.6,1.57-1.19,1.19-1.32,3.29-2.09.5-.18.86-.75,1.63-.5.09.48-.44.3-.57.78-.06.23.14.59.1.64s-.63-.04-.77.43c-.13.43.46,1.26-.38,1.12-.41-.06-.98-.81-1.3-.13-.35.74.32,1.48.23,1.58-.24-.04-.48-.13-.72-.02-.39.16-.26.44-.54.5l-.24-1.1c-.36.7-1.44,1.14-1.03,2.05l-.63-.16c-.24.28.86.95,1.01,1.12.75.86,1.28,1.98,1.2,3.14-.36-.28-.51-.83-1.11-.79.61.95.67,1.91.47,3l-2.05-.63,2.05,3.24c1.51,1.29,2.06,2.03,2.81,3.83.18.44.85.73.43,1.47-.19.33-.56-.34-.85-.4-.2-.04-.54.14-.64.07-.25-.18.01-1.24-1.43-.47-.27-.29,1.41-2.78-1.74-1.58.07-.64-.04-.93-.63-1.18l1.26-.47-1.98-1.66c-.13.65-.11,1.39-.63,1.89-.11,0-.83-1.07-.93-1.28-.15-.29-.22-.9-.25-.93-.08-.07-.63.16-.86.15-.67-.03-1.28-.59-1.36-1.25-.42.17-.04.97.16,1.19.58.67,1.43.4,1.72.58.04.02.35.75.33.83-.04.19-2.81,2.07-2.83,2.7-.04,1.39,2.86,1.71,3.74,2.11,1.69.77,1.58,2.57,2.42,3.98l-1.11-.31-.32,1.26c1,.12,1.96.29,2.91.63.6-.17-.36-1.85.02-2.68.31-.67.55.06.87.23.49.25.91-.21.47.87,1.14-.42.63.11,1.1.57.21.21.62.19.65.32.16.56-.37,1.04-.54,1.52-.14.41.32.85-.74.76l.47.55c-.51.8-1.26.6-2.05.4l.63.79c-.86.37-1.35.34-2.21,0l.16.47c-1,.12-1.69-.17-2.29-.95l-.16.47c-.45-.27-.51-.96-.8-1.26s-.67-.26-.95-.47c-.92-.73.32-3.49-.15-4.43-.32-.64-2.45-.37-3.02-.77-.27-.19-.64-1.22-.67-1.56-.04-.55.28-.94.2-1.46-1.61,1.53.26,3.08.24,4.51,0,.47-.43.99-.56,1.49-.22.81-.23,1.56-.07,2.38-.31.18-.96-.34-1.11-.25-.11.07-1.24,2.04-1.24,2.22-.02.47.52,1.96,1.13,1.8.24-.06,1.66-1.18,1.69-.22.02.76-.6.45-.87.71-.2.2-.19.73-.25.78-.15.13-1.25-.27-1.24.73,0,.42.74.93-.13,1-.6.05-1.03-.84-1.38-1.23l-.08.95c-.98-.37-1.34-1.77-.95-2.68-.28-.06-.41.13-.51.35-.15.32,0,.83-.28.91-.44-.87-.31-1.74-.32-2.68l-.63.95c-.5-1.4.91-2,1.07-2.96.08-.47-.16-.95-.13-.99.03-.03.54-.06.87-.31,1.08-.84.63-2.06.39-3.16l-1.02,1.58c-1.24,1.63-3.72,1.66-4.59-.32-1.33-3.01,1.61-5.58.91-7.7-.13-.39-.68-1.22-1.14-.91.01,1.15.6,1.95,0,3.08l-.63-.63c.1,1.05-.57,1.96-.64,3-.71-.47-1.09-1.42-.79-2.21H.17c-.09-.08.48-1.96.42-2.3-.04-.25-.72-.28-.58-.7.71-.18,1.09-1.12,1.82-1.26,2.31-.43,3.58,1,3.39,3.23-.14,1.65-2.36,4.8-.79,6.33,1.37,1.34,2.62-1.18,3.01-2.21.31-.8,1.12-4.29,1.61-4.63.15-.11,1.3-.28,1.61-.52.61,1.92,2.6-.17,2.23-1.41-.38.72-.62,1.36-1.43,1.73-.33-.33-.53-.79-.55-1.26-.32.18-.51.48-.83.67-1.96,1.11-1-.36-1.53-.76-.2-.16-1.48.29-1.88.07-.31-.66-.21-1.35-.02-2.03-.86.31-1.84.01-2.53-.55l1.26-1.34c-1.54.07-2.94.15-3.79-1.35.54-.16,1.09-.24,1.62-.43.29-.1.89-.34,1.06-.6-1.45-.13-3.55-1.7-3.95-3.09-.08-.29.04-.21.23-.23.79-.1,1.7.5,2.45-.08C1.55,11.61,0,10.43.18,8.7c.64.33,1.3.71,2.05.63-.86-1.23-1.89-2.72-1.7-4.3.03-.27.13-.82.44-.91-.16.43,1.29,2.68,1.58,2.37-.62-2.08-.85-4.38.32-6.32l.4,1.73,1.18,2.37ZM14.56,4.59s.03-.35,0-.48l-.63.4c.5.72,1.37.67,1.58-.24-.38-.33-.78.51-.95.32Z"/>
      <path class="cls-1" d="M67.69,17.86c.17.33,1.25,1,1.24,1.34,0,.42-1.93.97-2.35.55-.08.42.17,1.77-.15,1.99-.65.17-1.35.13-1.91-.25-.04,1.33-.16,1.7-1.38.98-.21-.13-.84-.81-.99-.67-.08,1.35-.68,1.42-1.43.4-.24-.33-.21-.72-.47-.87-.44.75,1.12,2.54,1.71,2.19.08-.05.36-.89.57-.91.09,0,1.55.71,1.67.84.7.77,1.22,3.91,1.81,5.15,1.5,3.13,3.82,1.78,3.04-1.46-.44-1.85-1.68-3.09-.95-5.15.52-1.47,2.4-2.09,3.71-1.24.34.22.44.48.71.71.23.2,1.01.39.59.67-.13.09-.51.05-.55.25-.08.4.34,1.94.49,2.43l-.63-.16c.1.94-.1,1.87-.95,2.37.1-1.05-.57-1.96-.64-3-.23-.03-.32.76-.63.47-.37-.34-.09-2.24.14-2.75-.36-.57-.85-.03-1.07.33-.93,1.54.93,4.04,1.08,5.82.2,2.3-1.01,4.37-3.56,3.56-1.14-.36-1.71-1.7-2.44-2.54-.14,1.07-.7,2.45.54,3.17.27.16.69.13.71.16.05.05-.02,1,.04,1.3.19.94,1.14,1.04,1.06,2.39,0,.14-.08.6-.31.57-.03-.41-.04-1.06-.47-1.26.21.97.18,1.75-.16,2.69-.23.07-.43-1.55-.79-1.1.07,1.04.04,2.1-.95,2.69l-.08-1.11c-.38.38-.69,1.33-1.29,1.39-.19.02-.68-.24-.68-.36,0-.03.28-.24.31-.49.13-.8-.64-1.08-1.27-.7.28-1.52-.89-1.03-.95-1.1-.04-.05-.2-.87.09-.94,1.07-.26,1.83,1.72,2.44-.39.38-1.3-.14-1.44-.73-2.45-.11-.18-.21-.62-.23-.64-.11-.08-.92.56-1.26.31.77-1.24-.53-2.92-.56-3.87s.96-2.13.88-3.16c-.03-.37-.39-1.39-.8-1.11.6.48.24,2.33-.2,2.73-.47.44-2.85.25-3.21.83-.19.31.46,3.29.18,4.12-.19.56-.62.38-1.05.69-.58.42-.52,1.61-1.25.88-.2.9-1.44.99-2.22.95l.31-.63c-.7.43-1.52.66-2.21.08l.47-.71c-.86.25-1.59.34-2.05-.55l.47-.39c-.83.07-.53-.55-.75-1.07-.1-.23-.39-.38-.48-.63-.34-.97.42-.57.72-.87.39-.39-.24-1.05.98-.6-.34-1.14-.11-.59.47-.87.18-.09.65-.83.94-.37.26.42-.32,2.64-.14,2.83l3-.63c-.06-.2-.27-1.22-.32-1.26-.18-.13-.83.53-1.1.24.74-.96.74-2.32,1.51-3.23.95-1.11,2.39-.88,3.55-1.51,2.18-1.18.47-2.26-.72-3.24-.22-.18-.99-.59-1.02-.64-.03-.04.38-.81.48-.86.21-.13.61-.08.9-.2.69-.3,1.11-.83,1.15-1.62l-1.07,1.06c-.27.28-1.4-.02-1.46.04-.03.03-.03.55-.17.85-.23.49-.62.99-1.01,1.36-.39-.48-.35-.95-.4-1.5-.01-.14.1-.54-.23-.39-.55.24-1.35,1.35-1.98,1.66l1.42.47c-.67.21-.82.46-.79,1.18-.65-.2-1.1-.51-1.8-.18-.39.6.33,1.17.06,1.75-1.49-.83-1.02.32-1.27.63-.05.07-1.43-.58-1.26.47-1.12-.69-.1-1.32.19-1.94,1-2.13,1.39-1.9,2.65-3.51.79-1.01,1.25-2.32,2.22-3.23-.77-.08-1.45.16-2.05.63-.38-1.12-.12-2.11.31-3.16-.03-.04-.54.29-.64.38-.22.2-.21.54-.46.56,0-1.9.96-3.13,2.37-4.26l-.79.16c.49-1.02-.53-1.43-1.03-2.21-.18.27.07.94-.32,1.1,0-.55-.93-.38-1.03-.47-.17-.17.58-.99.08-1.58-.46-.55-1.07.29-1.58.16-.46-.12.13-.66-.04-1.06s-.55-.43-.63-.56c-.2-.32.02-.96-.67-1.14.61-.63,1.16.09,1.74.31,2,.77,1.65.86,3.17,2.04.83.64,1.82.99,2.63,1.65.96-.07,2-.11,2.88-.54.22-.11.38-.47.59-.51.33-.07.95.48,1.81.21.58-.18,1.29-1.23.63-1.67.11.62-.45,1.18-1.04,1.26s-.97-.29-1.4-.29c-.35,0-.7.25-1.09.24-.8-.02-1.37-.55-1.21-1.37.76.56,1.72.15,2.61,0,.15-.03.54.11.4-.23-.22-.53-1.39-.74-1.82-1.03-.72-.48-.83-1.69-2.13-.48-.09-.87.06-1.7,1.03-1.89.88-.17.86-.28,1.32-.41,1.81-.51,3.27,1.26,5.14,1.02,1.06-.14,2.18-.85,2.94-1.57.16,1.18-.26,2.02-1.26,2.61l.63-.08c-.02,1.24-1.52.92-2.37.95.43.34,1.22,2.15.79,2.45-.14.09-.44.05-.47.08-.07.07.33,1.43.28,1.93-.18,2.12-.93.34-1.07.44-.55,1.04-2.87,5.19-.7,5.52,1.29.2,2.69-.8,2.97-2.08.16-.73-.43-1.25-.52-1.95-.2-1.67,1.38-3.37,2.13-4.8,1.02-1.97,1.9-4.23,1.82-6.48,1.14.7,1.06,2.15,1.18,3.32l1.22-2.1.6-1.85c1.11,2.09.86,4.15.16,6.32.94-.58,1.32-1.61,1.82-2.53.43.97.25,2.09-.12,3.04-.3.79-.9,1.4-1.23,2.17.67.1,1.22-.26,1.82-.48.37,1.57-1.34,2.92-2.76,3.16.52.7,1.7.13,2.45.15.66.02-.24,1.14-.4,1.35-.73.94-1.95,1.86-3.16,1.98.57.69,1.69.85,2.53.95-.07.44-1.17,1.42-1.5,1.42h-2.29ZM59.14,4.29s-.37-.09-.46-.17v.48s-1.36-.7-1.11-.08c.37.92,1.97.32,1.56-.22Z"/>
      <path class="cls-1" d="M188.33,9.49v5.85c-.51.09-.69-.36-1.05-.61-5.98-3.99-14.61-2.47-16.11,5.34-1.3,6.81,1.63,12.88,9.02,13.44,1.2.09,2.82.1,3.87-.39v-7.03c-1.86-.04-3.73-.01-5.53.47v-5.53c3.84.79,7.8.37,11.7.47-.19.99-.42,2.06-.48,3.07-.17,2.81-.15,6.67,0,9.49.03.49.46,2.33.3,2.58-7.71,2.33-17.76,2.16-22.78-5.08-2.77-3.99-3.03-10.06-1.35-14.53,3.37-8.94,14.33-10.53,22.41-7.55Z"/>
      <path class="cls-1" d="M158.61,8.54v5.53c-3.62-1.64-7.67-1.21-11.54-1.26v7.59c3.28.03,6.56.08,9.8-.47v5.53c-1.63-.47-3.19-.38-4.83-.47-1.29-.07-3.33-.39-4.58-.16-.13.02-.4.13-.4.24v8.3c4.26.07,8.51.13,12.49-1.58v5.85h-19.45c.59-1.55.99-3.15,1.11-4.81-.34-6.41.43-13.25,0-19.61-.11-1.61-.57-3.16-1.11-4.66h18.5Z"/>
      <path class="cls-1" d="M131.41,15.18l-2.27-1.45c-2.69-1.69-9.04-2.13-9.03,2.32,0,1.31.61,2.14,1.66,2.83,4.16,2.74,11.41,2.75,12,9.34.94,10.53-11.85,11.32-18.97,8.14v-6.32l3.32,2.29c2.92,1.77,10.5,2.37,9.79-2.83-.17-1.28-1.46-2.14-2.52-2.7-4.08-2.15-10.61-2.81-11.07-8.69-.79-9.98,9.74-11.68,17.08-8.7v5.77Z"/>
      <path class="cls-1" d="M98.05,8.54c-.07.56-.4,1.04-.55,1.58-.14.49-.55,2.06-.55,2.45v20.78c2.94.03,5.9.08,8.76-.64,1-.25,1.93-.72,2.94-.94v5.85h-18.82c.82-1.85,1.17-3.9,1.27-5.92.27-5.25.3-12.31,0-17.55-.11-1.92-.48-3.86-1.26-5.61h8.22Z"/>
      <path class="cls-1" d="M6.18,39.04l1.9-.16c.13.64-1.42.39-1.42.47v4.74c6.84-1.1,13.09,3.54,19.92,2.37v-4.58c-1.94.2-3.65.1-5.56-.21-1.67-.27-4.69-.92-6.21-1.53-.24-.1-.46-.12-.4-.47,2.86.54,5.69,1.68,8.62,1.89.36.03,2.52.1,2.61,0,.06-.06-.16-.8.32-1.03.89-.44,3.68.42,3.92,1.46.06.27-.06.88.12,1.01.22.15,2.27.54,2.7.59,1.96.26,4.34.34,6.3.18.68-.06,3.46-.41,3.92-.66s.15-.77.35-1.23c.4-.91,3-1.79,3.87-1.35.4.2.2.88.57,1.01.3.1,1.91.05,2.35.02,2.85-.18,5.75-1.32,8.54-1.9.26.17-.01.36-.19.44-1.25.57-4.88,1.34-6.34,1.57-.88.14-2.27.37-3.12.37-.61,0-1.47-.26-2.12-.26-.13,0-.32.06-.32.17v4.5c6.84,1.21,13.07-3.46,19.92-2.37v-4.74c0-.07-1.17.06-1.42-.16-.31-.43,1.9-.26,1.9-.16v5.53c-6.72-1.53-13.66,3.65-20.28,2.33-.91-.18.07-.88-.97-.74-1.65.23-.38,1.57-1.14,2.02-.41.25-2.57.66-3.19.77-3.15.55-6.53.54-9.68-.03-.52-.09-3.18-.62-3.3-.97-.27-.8.54-1.63-.91-1.78-1.06-.11-.05.55-.97.73-6.61,1.33-13.56-3.84-20.28-2.33v-5.53ZM44.45,43.15c-5.14,1.44-10.52,1.52-15.65,0v4.74c5.08,1.34,10.7,1.69,15.65-.24v-4.5Z"/>
      <path class="cls-1" d="M59.63.32c.09.09-.37.6,0,1.03.55.64.86-.55,1.03-.55.08,0,1.29.74,1.34.8.14.21-.67.83,0,1.18.6.31.53-.3.65-.38.2-.14,1.12.51.93.77-1.81.9-2.48.39-4.07-.28-.37-.16-1.27-.3-1.47-.43-.28-.19.14-1.99.16-2.45.21.04,1.37.26,1.42.32Z"/>
      <path class="cls-1" d="M15.04,0c-.18.57.45,2.12,0,2.45-1.48.2-2.48,1.33-4,1.14-.51-.06-1.03-.34-1.54-.43-.04-.05.62-.76.73-.78.33-.06.49.81,1.17.22.32-.28-.37-.57-.09-1.02.17-.26,1.01-.54,1.27-.79.11-.03.22.75.47.77.04,0,.69-.27.71-.31.1-.14-.35-.9-.31-.94.06-.06,1.52-.38,1.58-.32Z"/>
      <path class="cls-1" d="M22.15,42.99s.49-.03.6.03c.1.06.34.8.59.91.26.12.37-.47.62-.64.19-.13.33-.18.56-.15v2.37h-.47s0-1.58,0-1.58c-.26.03-.54.79-.71.79-.13,0-.42-.77-.71-.79v1.58s-.48,0-.48,0c.07-.36-.09-2.44,0-2.53Z"/>
      <path class="cls-1" d="M64.09,40.34c.88-.48.45.48.43.98-.01.53.01,1,.17,1.51h-.63s.16-1.58.16-1.58c-.43-.12-.51.58-.71.63-.44.11-.4-.77-.87-.63-.21.36.22,1.52.16,1.58-.02.02-.48.02-.63.16.19-.82.3-1.73,0-2.53.86-.32.82.3,1.34.79.24-.12.48-.85.59-.91Z"/>
      <path class="cls-1" d="M8.4,42.83c.26-.76.26-1.77,0-2.53,3.21-.55,3.22,3.04,0,2.53ZM9.03,42.52c1.68.08,1.74-2.01,0-1.9v1.9Z"/>
      <path class="cls-1" d="M51.88,42.83c-.07.45,1.1,2.01,1.11,2.13,0,.17-.54.33-.63.24-.04-.04.05-.41,0-.46-.08-.07-1.03.06-1.16.14-.31.18.28.86-.73.64.47-.73.67-1.75,1.07-2.48.1-.18,0-.27.35-.2Z"/>
      <path class="cls-1" d="M57.1,6.48c-1.37-.64-3.74,1.27-3.79-1.1.43.03.57.39,1.04.47.96.15,2.1-.63,2.76.64Z"/>
      <path class="cls-1" d="M19.47,42.36c-.14.57-.45,2.13.27,2.34,1.06.31.87-.73.84-1.48-.02-.43-.42-.99.45-.3-.33.99.35,2.62-1.35,2.15-1.19-.33-.79-1.73-.85-2.72h.63Z"/>
      <path class="cls-1" d="M19.59,6.45c-.55.54-1.8-.09-2.42-.13-.22-.01-1.22.33-1.02-.07.44-.88,2.28-.22,3.01-.47.43-.15.32-.47.62-.56,0,.33.05.98-.19,1.23Z"/>
      <path class="cls-1" d="M61.05,40.62c-.09.81.39,2.47-.71,2.68-1.79.34-1.22-1.05-1.43-2.21l.56-.15c.14.79-.46,2.16.68,2.02s.33-2.25.43-2.34c.04-.03.34.02.47,0Z"/>
      <path class="cls-1" d="M48.24,43.15c.89-.13,2.66-.09,1.75,1.2-.5.71-1.59-.13-1.28,1.17h-.47v-2.37ZM49.66,44.24c.37-.44-.42-1.02-.94-.78v.95c.16,0,.91-.13.94-.17Z"/>
      <path class="cls-1" d="M15.35,41.88c-2.09-1.45-2.15,2.1,0,1.42v.47c-1.13.15-2.3-.5-2.02-1.78.32-1.48,2.5-.76,2.02-.11Z"/>
      <path class="cls-1" d="M55.36,42.51c-2.09-.43-1.98,2.64,0,1.58.47.66-1.66,1.1-1.89-.08-.14-.7,0-1.36.64-1.72.44-.25,1.24-.5,1.25.22Z"/>
      <path class="cls-1" d="M13.93,39.67c-.69-.71-2.01-1.18-1.42-2.37,1.12.26,1.49,1.3,1.42,2.37Z"/>
      <path class="cls-1" d="M58.05,41.25c.16.76-.33.33-.64.54-.25.17-.17,1.23-.15,1.6.02.54.43.56-.47.7v-2.05c-.19-.07-.73.23-.79.16-.02-.02-.02-.46,0-.47.07-.08,1.76-.3,2.06-.47Z"/>
      <path class="cls-1" d="M17.25,44.41c-.91-.14-.5-.17-.47-.71.01-.27.06-1.61,0-1.67-.05-.05-.62.04-.79,0l.08-.48c.28.19,1.91.4,1.97.48.04.04-.02.34,0,.47l-.79-.32v2.21Z"/>
      <path class="cls-1" d="M59.15,39.67c.02-.47.11-1.07.34-1.48.27-.49,1.21-1.34,1.26-.34.04.81-1.08,1.24-1.59,1.82Z"/>
      <path class="cls-1" d="M14.56,38.56c-.5-.66-1.44-1.14-1.26-2.05,1.09-.17,1.12,1.26,1.26,2.05Z"/>
      <path class="cls-1" d="M12.67,39.67c-.8.16-2.49-1.28-1.03-1.28.72,0,.79.76,1.03,1.28Z"/>
      <path class="cls-1" d="M47.93,7.12c.19.75-.43.72-.71,1.11-.21.28-.12.72-.39.79-.29-.95-.14-2.09,1.1-1.89Z"/>
      <path class="cls-1" d="M62,38.41c.27,1.12-.67.85-1.42,1.26.08-.91.44-1.46,1.42-1.26Z"/>
      <path class="cls-1" d="M59.78,36.51c.26,1-.57,1.17-1.1,1.9-.07-.78.14-1.92,1.1-1.9Z"/>
      <path class="cls-1" d="M22.94,26.55c-.03-.23.24-.13.37-.35.12-.19.62-1.52,1.14-.77s-.89,1.32-1.51,1.11Z"/>
      <path class="cls-1" d="M49.29,28.19c-.24-.17-.65-.28-.73-.53,1.18-.83,2.47,1.11,1.18.96-.35-.04-.32-.34-.45-.43Z"/>
      <path class="cls-1" d="M26.11,8.86c.24-.83-.89-1.04-.95-1.11-.1-.15.01-.54.25-.61.84-.25,1.44,1.3.69,1.73Z"/>
      <path class="cls-1" d="M46.19,7.43c-.08-.7-.03-1.52.86-1.58.77.73-.44,1.15-.86,1.58Z"/>
      <path class="cls-1" d="M24.52,27.66c-.28.37-1.36,1.32-1.74.79-.35-.49,1.24-1.27,1.74-.79Z"/>
      <path class="cls-1" d="M48.54,29.41c.14.21,0,.79-.38.78-.08,0-1.34-.64-1.34-.72,0-.37,1.59-.27,1.72-.07Z"/>
      <path class="cls-1" d="M27.05,7.43c-.21-.3-1-.56-1.12-.74-.27-.39-.09-1.13.58-.69.44.29.61.93.54,1.43Z"/>
      <path class="cls-1" d="M26.42,29.4l-1.74.79c-.47-1.19.93-1.06,1.74-.79Z"/>
      <path class="cls-1" d="M49.47,25.49c.17.17.36.84.67,1.06-.49.1-1.29-.18-1.51-.63-.21-.42.45-.82.84-.43Z"/>
      <path class="cls-1" d="M21.52,25.76l1.2-1.09c.8-.09.59.77.06,1.01-.4.17-.85.06-1.26.08Z"/>
      <path class="cls-1" d="M51.56,25.76c-.89.06-1.78.04-1.58-1.1.24-.25,1.36.88,1.58,1.1Z"/>
      <path class="cls-1" d="M12.35,40.62c-.24.83-.23,1.7,0,2.53h-.63c.2-.8.3-1.74,0-2.53h.63Z"/>
      <path class="cls-1" d="M53.46,23.87c-.15-.27-.89-1.45-.24-1.58.56-.11.85,1.37.24,1.58Z"/>
      <path class="cls-1" d="M20.1,22.29c.03.22.16.4.1.64-.05.18-.52.8-.72.94-.18-.66-.32-1.63.63-1.58Z"/>
      <path class="cls-1" d="M48.24,32.56c-.06.06-.41-.15-.57-.14-.18,0-1.03.35-.85-.09.13-.3.83-.65,1.16-.54.29.09.33.69.26.78Z"/>
      <path class="cls-1" d="M26.42,32.56c-.52.02-.93-.31-1.42,0v-.79c.68-.13,1.09.24,1.42.79Z"/>
      <path class="cls-1" d="M23.89,10.75c-.34.1-1.36-.04-1.26-.55.11-.59,1.55.31,1.26.55Z"/>
      <path class="cls-1" d="M50.46,10.59c-.07.1-1.05.2-1.26.16.1-.28.76-.84,1.02-.79.19.04.33.5.24.63Z"/>
      <path class="cls-1" d="M37.18,19.29h-1.27c-.38-2.23,1.67-2.24,1.27,0Z"/>
      <path class="cls-1" d="M30.69,44.73c.76-.21.84.95,1.19,1.11.26.12.37-.47.62-.64.19-.13.33-.18.56-.15v2.53h-.63c.27-.54.13-1.16.16-1.74l-.71.79-.71-.94c-.12.77.43,1.84-.63,1.58-.08-.06.16-.2.16-.24v-2.29Z"/>
      <path class="cls-1" d="M42.55,44.73c-.23.82-.24,1.7,0,2.53h-.63c.21-.48.24-1.08.08-1.58l-.79.95c-.07.03-.31-.8-.71-.63l.16,1.58h-.63c.31-.74.15-1.59.07-2.37.58-.68.98.88,1.35.63.16-.5.5-1.2,1.11-1.1Z"/>
      <path class="cls-1" d="M39.07,45.2c-.42.92.35,2.63-1.19,2.7-1.68.07-.7-1.55-1.18-2.54h.63c-.15.56-.4,2.28.53,2.17,1.27-.15-.15-2.43,1.21-2.33Z"/>
      <path class="cls-1" d="M35.75,45.36v.47s-1.11-.16-1.11-.16c-.08.85.03.6.72.63.33.02.28.09.23.4-.03.22-1.25-.4-.96.63.13.46,1.64-.32,1.27.56l-1.74-.16c.24-.78.23-1.59,0-2.37h1.58Z"/>
    </g>
  </g>
</svg>