<?xml version="1.0" encoding="UTF-8"?>
<svg id="Layer_2" data-name="Layer 2" xmlns="http://www.w3.org/2000/svg" xmlns:xlink="http://www.w3.org/1999/xlink" viewBox="0 0 3432.92 2156.26">
  <defs>
    <style>
      .cls-1 {
        fill: url(#linear-gradient-241);
      }

      .cls-2 {
        fill: url(#linear-gradient-132);
      }

      .cls-3 {
        fill: url(#linear-gradient-118);
      }

      .cls-4 {
        fill: url(#linear-gradient-162);
      }

      .cls-5 {
        fill: url(#linear-gradient-61);
      }

      .cls-6 {
        fill: url(#linear-gradient-136);
      }

      .cls-7 {
        fill: url(#linear-gradient-15);
      }

      .cls-8 {
        fill: url(#linear-gradient-13);
      }

      .cls-9 {
        fill: url(#linear-gradient-107);
      }

      .cls-10 {
        fill: url(#linear-gradient-28);
      }

      .cls-11 {
        fill: url(#linear-gradient-158);
      }

      .cls-12 {
        fill: url(#linear-gradient-230);
      }

      .cls-13 {
        fill: url(#linear-gradient-65);
      }

      .cls-14 {
        fill: url(#linear-gradient-201);
      }

      .cls-15 {
        fill: url(#linear-gradient-145);
      }

      .cls-16 {
        fill: url(#linear-gradient-69);
      }

      .cls-17 {
        fill: url(#linear-gradient-53);
      }

      .cls-18 {
        fill: url(#linear-gradient-222);
      }

      .cls-19 {
        fill: url(#linear-gradient-42);
      }

      .cls-20 {
        fill: url(#linear-gradient-199);
      }

      .cls-21 {
        fill: url(#linear-gradient-46);
      }

      .cls-22 {
        fill: url(#linear-gradient-273);
      }

      .cls-23 {
        fill: url(#linear-gradient-182);
      }

      .cls-24 {
        fill: url(#linear-gradient-264);
      }

      .cls-25 {
        fill: url(#linear-gradient-155);
      }

      .cls-26 {
        fill: url(#linear-gradient-256);
      }

      .cls-27 {
        fill: url(#linear-gradient-142);
      }

      .cls-28 {
        fill: url(#linear-gradient-190);
      }

      .cls-29 {
        fill: url(#linear-gradient-70);
      }

      .cls-30 {
        fill: url(#linear-gradient-205);
      }

      .cls-31 {
        fill: url(#linear-gradient-251);
      }

      .cls-32 {
        fill: url(#linear-gradient-60);
      }

      .cls-33 {
        fill: url(#linear-gradient-209);
      }

      .cls-34 {
        fill: url(#linear-gradient-93);
      }

      .cls-35 {
        fill: url(#linear-gradient-95);
      }

      .cls-36 {
        fill: url(#linear-gradient-2);
      }

      .cls-37 {
        fill: url(#linear-gradient-100);
      }

      .cls-38 {
        fill: url(#linear-gradient-150);
      }

      .cls-39 {
        fill: url(#linear-gradient-87);
      }

      .cls-40 {
        fill: url(#linear-gradient-223);
      }

      .cls-41 {
        fill: url(#linear-gradient-163);
      }

      .cls-42 {
        fill: url(#linear-gradient-64);
      }

      .cls-43 {
        fill: url(#linear-gradient-173);
      }

      .cls-44 {
        fill: url(#linear-gradient-56);
      }

      .cls-45 {
        fill: url(#linear-gradient-43);
      }

      .cls-46 {
        fill: url(#linear-gradient-25);
      }

      .cls-47 {
        fill: url(#linear-gradient-82);
      }

      .cls-48 {
        fill: url(#linear-gradient-239);
      }

      .cls-49 {
        fill: url(#linear-gradient-198);
      }

      .cls-50 {
        fill: url(#linear-gradient-231);
      }

      .cls-51 {
        fill: url(#linear-gradient-138);
      }

      .cls-52 {
        fill: url(#linear-gradient-211);
      }

      .cls-53 {
        fill: url(#linear-gradient-10);
      }

      .cls-54 {
        fill: url(#linear-gradient-12);
      }

      .cls-55 {
        fill: url(#linear-gradient-40);
      }

      .cls-56 {
        fill: url(#linear-gradient-27);
      }

      .cls-57 {
        fill: url(#linear-gradient-174);
      }

      .cls-58 {
        fill: url(#linear-gradient-68);
      }

      .cls-59 {
        fill: url(#linear-gradient-202);
      }

      .cls-60 {
        fill: url(#linear-gradient-267);
      }

      .cls-61 {
        fill: url(#linear-gradient-172);
      }

      .cls-62 {
        fill: url(#linear-gradient-196);
      }

      .cls-63 {
        fill: url(#linear-gradient-37);
      }

      .cls-64 {
        fill: url(#linear-gradient-289);
      }

      .cls-65 {
        fill: url(#linear-gradient-159);
      }

      .cls-66 {
        fill: url(#linear-gradient-248);
      }

      .cls-67 {
        fill: url(#linear-gradient-277);
      }

      .cls-68 {
        fill: url(#linear-gradient-188);
      }

      .cls-69 {
        fill: url(#linear-gradient-75);
      }

      .cls-70 {
        fill: url(#linear-gradient-274);
      }

      .cls-71 {
        fill: url(#linear-gradient-55);
      }

      .cls-72 {
        fill: url(#linear-gradient-116);
      }

      .cls-73 {
        fill: url(#linear-gradient-232);
      }

      .cls-74 {
        fill: url(#linear-gradient-280);
      }

      .cls-75 {
        fill: url(#linear-gradient-39);
      }

      .cls-76 {
        fill: url(#linear-gradient-160);
      }

      .cls-77 {
        fill: url(#linear-gradient-271);
      }

      .cls-78 {
        fill: url(#linear-gradient-192);
      }

      .cls-79 {
        fill: url(#linear-gradient-176);
      }

      .cls-80 {
        fill: url(#linear-gradient-89);
      }

      .cls-81 {
        fill: url(#linear-gradient-262);
      }

      .cls-82 {
        fill: url(#linear-gradient-220);
      }

      .cls-83 {
        fill: url(#linear-gradient-52);
      }

      .cls-84 {
        fill: url(#linear-gradient-215);
      }

      .cls-85 {
        fill: url(#linear-gradient-113);
      }

      .cls-86 {
        fill: url(#linear-gradient-254);
      }

      .cls-87 {
        fill: url(#linear-gradient-122);
      }

      .cls-88 {
        fill: url(#linear-gradient-166);
      }

      .cls-89 {
        fill: url(#linear-gradient-58);
      }

      .cls-90 {
        fill: url(#linear-gradient-191);
      }

      .cls-91 {
        fill: url(#linear-gradient-175);
      }

      .cls-92 {
        fill: url(#linear-gradient-171);
      }

      .cls-93 {
        fill: url(#linear-gradient-242);
      }

      .cls-94 {
        fill: url(#linear-gradient-152);
      }

      .cls-95 {
        fill: url(#linear-gradient-47);
      }

      .cls-96 {
        fill: url(#linear-gradient-26);
      }

      .cls-97 {
        fill: url(#linear-gradient-217);
      }

      .cls-98 {
        fill: url(#linear-gradient-74);
      }

      .cls-99 {
        fill: url(#linear-gradient-257);
      }

      .cls-100 {
        fill: url(#linear-gradient-181);
      }

      .cls-101 {
        fill: url(#linear-gradient-146);
      }

      .cls-102 {
        fill: url(#linear-gradient-97);
      }

      .cls-103 {
        fill: url(#linear-gradient-72);
      }

      .cls-104 {
        fill: url(#linear-gradient-157);
      }

      .cls-105 {
        fill: url(#linear-gradient-4);
      }

      .cls-106 {
        fill: url(#linear-gradient-238);
      }

      .cls-107 {
        fill: url(#linear-gradient-35);
      }

      .cls-108 {
        fill: url(#linear-gradient-30);
      }

      .cls-109 {
        fill: url(#linear-gradient-125);
      }

      .cls-110 {
        fill: url(#linear-gradient-161);
      }

      .cls-111 {
        fill: url(#linear-gradient-76);
      }

      .cls-112 {
        fill: url(#linear-gradient-260);
      }

      .cls-113 {
        fill: url(#linear-gradient-240);
      }

      .cls-114 {
        fill: url(#linear-gradient-143);
      }

      .cls-115 {
        fill: url(#linear-gradient-235);
      }

      .cls-116 {
        fill: url(#linear-gradient-109);
      }

      .cls-117 {
        fill: url(#linear-gradient-73);
      }

      .cls-118 {
        fill: url(#linear-gradient-252);
      }

      .cls-119 {
        fill: url(#linear-gradient-71);
      }

      .cls-120 {
        fill: url(#linear-gradient-44);
      }

      .cls-121 {
        fill: url(#linear-gradient-144);
      }

      .cls-122 {
        fill: url(#linear-gradient-96);
      }

      .cls-123 {
        fill: url(#linear-gradient-49);
      }

      .cls-124 {
        fill: url(#linear-gradient-3);
      }

      .cls-125 {
        fill: url(#linear-gradient-34);
      }

      .cls-126 {
        fill: url(#linear-gradient-270);
      }

      .cls-127 {
        fill: url(#linear-gradient-5);
      }

      .cls-128 {
        fill: url(#linear-gradient-225);
      }

      .cls-129 {
        fill: url(#linear-gradient-38);
      }

      .cls-130 {
        fill: url(#linear-gradient-91);
      }

      .cls-131 {
        fill: url(#linear-gradient-149);
      }

      .cls-132 {
        fill: url(#linear-gradient-22);
      }

      .cls-133 {
        fill: url(#linear-gradient-24);
      }

      .cls-134 {
        fill: url(#linear-gradient-133);
      }

      .cls-135 {
        fill: url(#linear-gradient-226);
      }

      .cls-136 {
        fill: url(#linear-gradient-94);
      }

      .cls-137 {
        fill: url(#linear-gradient-261);
      }

      .cls-138 {
        fill: url(#linear-gradient-233);
      }

      .cls-139 {
        fill: url(#linear-gradient-54);
      }

      .cls-140 {
        fill: url(#linear-gradient-147);
      }

      .cls-141 {
        fill: url(#linear-gradient-221);
      }

      .cls-142 {
        fill: url(#linear-gradient-92);
      }

      .cls-143 {
        fill: url(#linear-gradient-90);
      }

      .cls-144 {
        fill: url(#linear-gradient-33);
      }

      .cls-145 {
        fill: url(#linear-gradient-194);
      }

      .cls-146 {
        fill: url(#linear-gradient-79);
      }

      .cls-147 {
        fill: url(#linear-gradient-249);
      }

      .cls-148 {
        fill: url(#linear-gradient-78);
      }

      .cls-149 {
        fill: url(#linear-gradient-51);
      }

      .cls-150 {
        fill: url(#linear-gradient-8);
      }

      .cls-151 {
        fill: url(#linear-gradient-247);
      }

      .cls-152 {
        fill: url(#linear-gradient-272);
      }

      .cls-153 {
        fill: url(#linear-gradient-268);
      }

      .cls-154 {
        fill: url(#linear-gradient-229);
      }

      .cls-155 {
        fill: url(#linear-gradient-234);
      }

      .cls-156 {
        fill: url(#linear-gradient-66);
      }

      .cls-157 {
        fill: url(#linear-gradient-57);
      }

      .cls-158 {
        fill: url(#linear-gradient-77);
      }

      .cls-159 {
        fill: url(#linear-gradient-131);
      }

      .cls-160 {
        fill: url(#linear-gradient-129);
      }

      .cls-161 {
        fill: url(#linear-gradient-168);
      }

      .cls-162 {
        fill: url(#linear-gradient-276);
      }

      .cls-163 {
        fill: url(#linear-gradient-103);
      }

      .cls-164 {
        fill: url(#linear-gradient-135);
      }

      .cls-165 {
        fill: url(#linear-gradient-121);
      }

      .cls-166 {
        fill: url(#linear-gradient-170);
      }

      .cls-167 {
        fill: url(#linear-gradient-110);
      }

      .cls-168 {
        fill: url(#linear-gradient-88);
      }

      .cls-169 {
        fill: url(#linear-gradient-189);
      }

      .cls-170 {
        fill: url(#linear-gradient-228);
      }

      .cls-171 {
        fill: url(#linear-gradient-124);
      }

      .cls-172 {
        fill: url(#linear-gradient-165);
      }

      .cls-173 {
        fill: url(#linear-gradient-128);
      }

      .cls-174 {
        fill: url(#linear-gradient-164);
      }

      .cls-175 {
        fill: url(#linear-gradient-14);
      }

      .cls-176 {
        fill: url(#linear-gradient-62);
      }

      .cls-177 {
        fill: url(#linear-gradient-156);
      }

      .cls-178 {
        fill: url(#linear-gradient-265);
      }

      .cls-179 {
        fill: url(#linear-gradient-29);
      }

      .cls-180 {
        fill: url(#linear-gradient-287);
      }

      .cls-181 {
        fill: url(#linear-gradient-284);
      }

      .cls-182 {
        fill: url(#linear-gradient-288);
      }

      .cls-183 {
        fill: url(#linear-gradient-177);
      }

      .cls-184 {
        fill: url(#linear-gradient-227);
      }

      .cls-185 {
        fill: url(#linear-gradient-20);
      }

      .cls-186 {
        fill: url(#linear-gradient-106);
      }

      .cls-187 {
        fill: url(#linear-gradient-245);
      }

      .cls-188 {
        fill: url(#linear-gradient-67);
      }

      .cls-189 {
        fill: url(#linear-gradient-139);
      }

      .cls-190 {
        fill: url(#linear-gradient-148);
      }

      .cls-191 {
        fill: url(#linear-gradient-17);
      }

      .cls-192 {
        fill: url(#linear-gradient-141);
      }

      .cls-193 {
        fill: url(#linear-gradient-50);
      }

      .cls-194 {
        fill: url(#linear-gradient-7);
      }

      .cls-195 {
        fill: url(#linear-gradient-185);
      }

      .cls-196 {
        fill: url(#linear-gradient-216);
      }

      .cls-197 {
        fill: url(#linear-gradient-269);
      }

      .cls-198 {
        fill: url(#linear-gradient-134);
      }

      .cls-199 {
        fill: url(#linear-gradient-253);
      }

      .cls-200 {
        fill: url(#linear-gradient-9);
      }

      .cls-201 {
        fill: url(#linear-gradient-236);
      }

      .cls-202 {
        fill: url(#linear-gradient-104);
      }

      .cls-203 {
        fill: url(#linear-gradient-59);
      }

      .cls-204 {
        fill: url(#linear-gradient-286);
      }

      .cls-205 {
        fill: url(#linear-gradient-11);
      }

      .cls-206 {
        fill: url(#linear-gradient-184);
      }

      .cls-207 {
        fill: url(#linear-gradient-120);
      }

      .cls-208 {
        fill: url(#linear-gradient-169);
      }

      .cls-209 {
        fill: url(#linear-gradient-108);
      }

      .cls-210 {
        fill: url(#linear-gradient-19);
      }

      .cls-211 {
        fill: url(#linear-gradient-101);
      }

      .cls-212 {
        fill: url(#linear-gradient-80);
      }

      .cls-213 {
        fill: url(#linear-gradient-183);
      }

      .cls-214 {
        fill: url(#linear-gradient-244);
      }

      .cls-215 {
        fill: url(#linear-gradient-6);
      }

      .cls-216 {
        fill: url(#linear-gradient-285);
      }

      .cls-217 {
        fill: url(#linear-gradient-258);
      }

      .cls-218 {
        fill: url(#linear-gradient-83);
      }

      .cls-219 {
        fill: url(#linear-gradient-112);
      }

      .cls-220 {
        fill: url(#linear-gradient-154);
      }

      .cls-221 {
        fill: url(#linear-gradient-203);
      }

      .cls-222 {
        fill: url(#linear-gradient-200);
      }

      .cls-223 {
        fill: url(#linear-gradient-206);
      }

      .cls-224 {
        fill: url(#linear-gradient-263);
      }

      .cls-225 {
        fill: url(#linear-gradient-278);
      }

      .cls-226 {
        fill: url(#linear-gradient-105);
      }

      .cls-227 {
        fill: url(#linear-gradient-179);
      }

      .cls-228 {
        fill: url(#linear-gradient-243);
      }

      .cls-229 {
        fill: url(#linear-gradient-137);
      }

      .cls-230 {
        fill: url(#linear-gradient-281);
      }

      .cls-231 {
        fill: url(#linear-gradient-167);
      }

      .cls-232 {
        fill: url(#linear-gradient-36);
      }

      .cls-233 {
        fill: url(#linear-gradient-21);
      }

      .cls-234 {
        fill: url(#linear-gradient-119);
      }

      .cls-235 {
        fill: url(#linear-gradient-45);
      }

      .cls-236 {
        fill: url(#linear-gradient-214);
      }

      .cls-237 {
        fill: url(#linear-gradient-180);
      }

      .cls-238 {
        fill: url(#linear-gradient-237);
      }

      .cls-239 {
        fill: url(#linear-gradient-127);
      }

      .cls-240 {
        fill: url(#linear-gradient-178);
      }

      .cls-241 {
        fill: url(#linear-gradient-85);
      }

      .cls-242 {
        fill: url(#linear-gradient-98);
      }

      .cls-243 {
        fill: url(#linear-gradient-81);
      }

      .cls-244 {
        fill: url(#linear-gradient-151);
      }

      .cls-245 {
        fill: url(#linear-gradient-255);
      }

      .cls-246 {
        fill: url(#linear-gradient-84);
      }

      .cls-247 {
        fill: url(#linear-gradient-114);
      }

      .cls-248 {
        fill: url(#linear-gradient-140);
      }

      .cls-249 {
        fill: url(#linear-gradient-210);
      }

      .cls-250 {
        fill: url(#linear-gradient-213);
      }

      .cls-251 {
        fill: url(#linear-gradient-153);
      }

      .cls-252 {
        fill: url(#linear-gradient-117);
      }

      .cls-253 {
        fill: url(#linear-gradient-48);
      }

      .cls-254 {
        fill: url(#linear-gradient-266);
      }

      .cls-255 {
        fill: url(#linear-gradient-207);
      }

      .cls-256 {
        fill: url(#linear-gradient-212);
      }

      .cls-257 {
        fill: url(#linear-gradient-204);
      }

      .cls-258 {
        fill: url(#linear-gradient-102);
      }

      .cls-259 {
        fill: url(#linear-gradient-282);
      }

      .cls-260 {
        fill: url(#linear-gradient-32);
      }

      .cls-261 {
        fill: url(#linear-gradient-86);
      }

      .cls-262 {
        fill: url(#linear-gradient-246);
      }

      .cls-263 {
        fill: url(#linear-gradient-41);
      }

      .cls-264 {
        fill: url(#linear-gradient-130);
      }

      .cls-265 {
        fill: url(#linear-gradient-197);
      }

      .cls-266 {
        fill: url(#linear-gradient-279);
      }

      .cls-267 {
        fill: url(#linear-gradient-16);
      }

      .cls-268 {
        fill: url(#linear-gradient-208);
      }

      .cls-269 {
        fill: url(#linear-gradient-111);
      }

      .cls-270 {
        fill: url(#linear-gradient-195);
      }

      .cls-271 {
        fill: url(#linear-gradient-187);
      }

      .cls-272 {
        fill: url(#linear-gradient);
      }

      .cls-273 {
        fill: url(#linear-gradient-193);
      }

      .cls-274 {
        fill: url(#linear-gradient-23);
      }

      .cls-275 {
        fill: url(#linear-gradient-31);
      }

      .cls-276 {
        fill: url(#linear-gradient-218);
      }

      .cls-277 {
        fill: url(#linear-gradient-63);
      }

      .cls-278 {
        fill: url(#linear-gradient-219);
      }

      .cls-279 {
        fill: url(#linear-gradient-115);
      }

      .cls-280 {
        fill: url(#linear-gradient-275);
      }

      .cls-281 {
        fill: url(#linear-gradient-259);
      }

      .cls-282 {
        fill: url(#linear-gradient-126);
      }

      .cls-283 {
        fill: url(#linear-gradient-283);
      }

      .cls-284 {
        fill: url(#linear-gradient-186);
      }

      .cls-285 {
        fill: url(#linear-gradient-99);
      }

      .cls-286 {
        fill: url(#linear-gradient-250);
      }

      .cls-287 {
        fill: url(#linear-gradient-18);
      }

      .cls-288 {
        fill: url(#linear-gradient-123);
      }

      .cls-289 {
        fill: url(#linear-gradient-224);
      }
    </style>
    <linearGradient id="linear-gradient" x1="111.49" y1="1074.64" x2="3314.43" y2="1074.64" gradientUnits="userSpaceOnUse">
      <stop offset="0" stop-color="#129786"/>
      <stop offset="1" stop-color="#fff"/>
    </linearGradient>
    <linearGradient id="linear-gradient-2" x1="111.49" y1="1019.24" x2="3314.43" y2="1019.24" xlink:href="#linear-gradient"/>
    <linearGradient id="linear-gradient-3" y1="957.38" y2="957.38" xlink:href="#linear-gradient"/>
    <linearGradient id="linear-gradient-4" x1="111.49" y1="903.48" x2="3314.43" y2="903.48" xlink:href="#linear-gradient"/>
    <linearGradient id="linear-gradient-5" y1="844.35" y2="844.35" xlink:href="#linear-gradient"/>
    <linearGradient id="linear-gradient-6" x1="111.49" y1="793.64" x2="3314.43" y2="793.64" xlink:href="#linear-gradient"/>
    <linearGradient id="linear-gradient-7" y1="738.76" y2="738.76" xlink:href="#linear-gradient"/>
    <linearGradient id="linear-gradient-8" x1="111.49" y1="692.21" x2="3314.43" y2="692.21" xlink:href="#linear-gradient"/>
    <linearGradient id="linear-gradient-9" y1="642.28" y2="642.28" xlink:href="#linear-gradient"/>
    <linearGradient id="linear-gradient-10" x1="111.49" y1="600.23" x2="3314.43" y2="600.23" xlink:href="#linear-gradient"/>
    <linearGradient id="linear-gradient-11" y1="555.38" y2="555.38" xlink:href="#linear-gradient"/>
    <linearGradient id="linear-gradient-12" x1="111.49" y1="517.77" x2="3314.43" y2="517.77" xlink:href="#linear-gradient"/>
    <linearGradient id="linear-gradient-13" y1="477.81" y2="477.81" xlink:href="#linear-gradient"/>
    <linearGradient id="linear-gradient-14" x1="111.49" y1="444.41" x2="3314.43" y2="444.41" xlink:href="#linear-gradient"/>
    <linearGradient id="linear-gradient-15" y1="409.04" y2="409.04" xlink:href="#linear-gradient"/>
    <linearGradient id="linear-gradient-16" x1="111.49" y1="379.57" x2="3314.43" y2="379.57" xlink:href="#linear-gradient"/>
    <linearGradient id="linear-gradient-17" y1="348.47" y2="348.47" xlink:href="#linear-gradient"/>
    <linearGradient id="linear-gradient-18" x1="111.49" y1="322.65" x2="3314.43" y2="322.65" xlink:href="#linear-gradient"/>
    <linearGradient id="linear-gradient-19" y1="295.53" x2="3314.43" y2="295.53" xlink:href="#linear-gradient"/>
    <linearGradient id="linear-gradient-20" x1="111.49" y1="273.13" x2="3314.43" y2="273.13" xlink:href="#linear-gradient"/>
    <linearGradient id="linear-gradient-21" y1="249.73" y2="249.73" xlink:href="#linear-gradient"/>
    <linearGradient id="linear-gradient-22" x1="111.49" y1="230.53" x2="3314.43" y2="230.53" xlink:href="#linear-gradient"/>
    <linearGradient id="linear-gradient-23" y1="210.64" x2="3314.43" y2="210.64" xlink:href="#linear-gradient"/>
    <linearGradient id="linear-gradient-24" x1="111.49" y1="194.48" x2="3314.43" y2="194.48" xlink:href="#linear-gradient"/>
    <linearGradient id="linear-gradient-25" y1="177.92" x2="3314.43" y2="177.92" xlink:href="#linear-gradient"/>
    <linearGradient id="linear-gradient-26" y1="164.65" y2="164.65" xlink:href="#linear-gradient"/>
    <linearGradient id="linear-gradient-27" y1="151.29" x2="3314.43" y2="151.29" xlink:href="#linear-gradient"/>
    <linearGradient id="linear-gradient-28" x1="111.49" y1="140.8" x2="3314.43" y2="140.8" xlink:href="#linear-gradient"/>
    <linearGradient id="linear-gradient-29" y1="130.51" y2="130.51" xlink:href="#linear-gradient"/>
    <linearGradient id="linear-gradient-30" x1="111.49" y1="122.71" x2="3314.43" y2="122.71" xlink:href="#linear-gradient"/>
    <linearGradient id="linear-gradient-31" y1="115.4" y2="115.4" xlink:href="#linear-gradient"/>
    <linearGradient id="linear-gradient-32" x1="111.49" y1="110.21" x2="3314.43" y2="110.21" xlink:href="#linear-gradient"/>
    <linearGradient id="linear-gradient-33" y1="105.8" y2="105.8" xlink:href="#linear-gradient"/>
    <linearGradient id="linear-gradient-34" x1="111.49" y1="103.16" x2="3314.43" y2="103.16" xlink:href="#linear-gradient"/>
    <linearGradient id="linear-gradient-35" y1="101.59" y2="101.59" xlink:href="#linear-gradient"/>
    <linearGradient id="linear-gradient-36" x1="111.49" y1="101.45" x2="3314.43" y2="101.45" xlink:href="#linear-gradient"/>
    <linearGradient id="linear-gradient-37" y1="102.68" y2="102.68" xlink:href="#linear-gradient"/>
    <linearGradient id="linear-gradient-38" x1="111.49" y1="105.01" x2="3314.43" y2="105.01" xlink:href="#linear-gradient"/>
    <linearGradient id="linear-gradient-39" y1="109.06" x2="3314.43" y2="109.06" xlink:href="#linear-gradient"/>
    <linearGradient id="linear-gradient-40" x1="111.49" y1="113.92" x2="3314.43" y2="113.92" xlink:href="#linear-gradient"/>
    <linearGradient id="linear-gradient-41" y1="120.85" y2="120.85" xlink:href="#linear-gradient"/>
    <linearGradient id="linear-gradient-42" x1="111.49" y1="128.29" x2="3314.43" y2="128.29" xlink:href="#linear-gradient"/>
    <linearGradient id="linear-gradient-43" y1="138.17" y2="138.17" xlink:href="#linear-gradient"/>
    <linearGradient id="linear-gradient-44" x1="111.49" y1="148.27" x2="3314.43" y2="148.27" xlink:href="#linear-gradient"/>
    <linearGradient id="linear-gradient-45" y1="161.2" y2="161.2" xlink:href="#linear-gradient"/>
    <linearGradient id="linear-gradient-46" x1="111.49" y1="174.05" x2="3314.43" y2="174.05" xlink:href="#linear-gradient"/>
    <linearGradient id="linear-gradient-47" y1="190.13" y2="190.13" xlink:href="#linear-gradient"/>
    <linearGradient id="linear-gradient-48" x1="111.49" y1="205.84" x2="3314.43" y2="205.84" xlink:href="#linear-gradient"/>
    <linearGradient id="linear-gradient-49" y1="225.21" y2="225.21" xlink:href="#linear-gradient"/>
    <linearGradient id="linear-gradient-50" x1="111.49" y1="243.91" x2="3314.43" y2="243.91" xlink:href="#linear-gradient"/>
    <linearGradient id="linear-gradient-51" y1="266.75" y2="266.75" xlink:href="#linear-gradient"/>
    <linearGradient id="linear-gradient-52" x1="111.49" y1="288.6" x2="3314.43" y2="288.6" xlink:href="#linear-gradient"/>
    <linearGradient id="linear-gradient-53" y1="315.1" y2="315.1" xlink:href="#linear-gradient"/>
    <linearGradient id="linear-gradient-54" x1="111.49" y1="340.41" x2="3314.43" y2="340.41" xlink:href="#linear-gradient"/>
    <linearGradient id="linear-gradient-55" y1="370.93" y2="370.93" xlink:href="#linear-gradient"/>
    <linearGradient id="linear-gradient-56" x1="111.49" y1="399.86" x2="3314.43" y2="399.86" xlink:href="#linear-gradient"/>
    <linearGradient id="linear-gradient-57" y1="434.61" y2="434.61" xlink:href="#linear-gradient"/>
    <linearGradient id="linear-gradient-58" x1="111.49" y1="467.42" x2="3314.43" y2="467.42" xlink:href="#linear-gradient"/>
    <linearGradient id="linear-gradient-59" y1="506.71" y2="506.71" xlink:href="#linear-gradient"/>
    <linearGradient id="linear-gradient-60" x1="111.49" y1="543.7" x2="3314.43" y2="543.7" xlink:href="#linear-gradient"/>
    <linearGradient id="linear-gradient-61" y1="587.84" y2="587.84" xlink:href="#linear-gradient"/>
    <linearGradient id="linear-gradient-62" x1="111.49" y1="629.24" x2="3314.43" y2="629.24" xlink:href="#linear-gradient"/>
    <linearGradient id="linear-gradient-63" y1="678.44" y2="678.44" xlink:href="#linear-gradient"/>
    <linearGradient id="linear-gradient-64" x1="111.49" y1="724.36" x2="3314.43" y2="724.36" xlink:href="#linear-gradient"/>
    <linearGradient id="linear-gradient-65" y1="778.56" y2="778.56" xlink:href="#linear-gradient"/>
    <linearGradient id="linear-gradient-66" x1="111.49" y1="828.72" x2="3314.43" y2="828.72" xlink:href="#linear-gradient"/>
    <linearGradient id="linear-gradient-67" y1="887.32" y2="887.32" xlink:href="#linear-gradient"/>
    <linearGradient id="linear-gradient-68" x1="111.49" y1="940.86" x2="3314.43" y2="940.86" xlink:href="#linear-gradient"/>
    <linearGradient id="linear-gradient-69" y1="1002.44" y2="1002.44" xlink:href="#linear-gradient"/>
    <linearGradient id="linear-gradient-70" x1="111.49" y1="1057.76" x2="3314.43" y2="1057.76" xlink:href="#linear-gradient"/>
    <linearGradient id="linear-gradient-71" y1="1120.23" y2="1120.23" xlink:href="#linear-gradient"/>
    <linearGradient id="linear-gradient-72" x1="111.49" y1="1175.3" x2="3314.43" y2="1175.3" xlink:href="#linear-gradient"/>
    <linearGradient id="linear-gradient-73" y1="1236.33" y2="1236.33" xlink:href="#linear-gradient"/>
    <linearGradient id="linear-gradient-74" x1="111.49" y1="1289.17" x2="3314.43" y2="1289.17" xlink:href="#linear-gradient"/>
    <linearGradient id="linear-gradient-75" y1="1346.78" y2="1346.78" xlink:href="#linear-gradient"/>
    <linearGradient id="linear-gradient-76" x1="111.49" y1="1395.96" x2="3314.43" y2="1395.96" xlink:href="#linear-gradient"/>
    <linearGradient id="linear-gradient-77" y1="1448.97" y2="1448.97" xlink:href="#linear-gradient"/>
    <linearGradient id="linear-gradient-78" x1="111.49" y1="1493.79" x2="3314.43" y2="1493.79" xlink:href="#linear-gradient"/>
    <linearGradient id="linear-gradient-79" y1="1541.74" x2="3314.43" y2="1541.74" xlink:href="#linear-gradient"/>
    <linearGradient id="linear-gradient-80" x1="111.49" y1="1582.06" x2="3314.43" y2="1582.06" xlink:href="#linear-gradient"/>
    <linearGradient id="linear-gradient-81" y1="1624.98" y2="1624.98" xlink:href="#linear-gradient"/>
    <linearGradient id="linear-gradient-82" x1="111.49" y1="1660.93" x2="3314.43" y2="1660.93" xlink:href="#linear-gradient"/>
    <linearGradient id="linear-gradient-83" y1="1699.08" y2="1699.08" xlink:href="#linear-gradient"/>
    <linearGradient id="linear-gradient-84" x1="111.49" y1="1730.92" x2="3314.43" y2="1730.92" xlink:href="#linear-gradient"/>
    <linearGradient id="linear-gradient-85" y1="1764.61" x2="3314.43" y2="1764.61" xlink:href="#linear-gradient"/>
    <linearGradient id="linear-gradient-86" x1="111.49" y1="1792.63" x2="3314.43" y2="1792.63" xlink:href="#linear-gradient"/>
    <linearGradient id="linear-gradient-87" y1="1822.16" x2="3314.43" y2="1822.16" xlink:href="#linear-gradient"/>
    <linearGradient id="linear-gradient-88" x1="111.49" y1="1846.63" x2="3314.43" y2="1846.63" xlink:href="#linear-gradient"/>
    <linearGradient id="linear-gradient-89" y1="1872.29" y2="1872.29" xlink:href="#linear-gradient"/>
    <linearGradient id="linear-gradient-90" x1="111.49" y1="1893.43" x2="3314.43" y2="1893.43" xlink:href="#linear-gradient"/>
    <linearGradient id="linear-gradient-91" y1="1915.45" y2="1915.45" xlink:href="#linear-gradient"/>
    <linearGradient id="linear-gradient-92" y1="1933.46" y2="1933.46" xlink:href="#linear-gradient"/>
    <linearGradient id="linear-gradient-93" y1="1952.04" y2="1952.04" xlink:href="#linear-gradient"/>
    <linearGradient id="linear-gradient-94" x1="111.49" y1="1967.07" x2="3314.43" y2="1967.07" xlink:href="#linear-gradient"/>
    <linearGradient id="linear-gradient-95" y1="1982.38" y2="1982.38" xlink:href="#linear-gradient"/>
    <linearGradient id="linear-gradient-96" x1="111.49" y1="1994.56" x2="3314.43" y2="1994.56" xlink:href="#linear-gradient"/>
    <linearGradient id="linear-gradient-97" y1="2006.72" y2="2006.72" xlink:href="#linear-gradient"/>
    <linearGradient id="linear-gradient-98" x1="111.49" y1="2016.16" x2="3314.43" y2="2016.16" xlink:href="#linear-gradient"/>
    <linearGradient id="linear-gradient-99" y1="2025.29" y2="2025.29" xlink:href="#linear-gradient"/>
    <linearGradient id="linear-gradient-100" x1="111.49" y1="2032.07" x2="3314.43" y2="2032.07" xlink:href="#linear-gradient"/>
    <linearGradient id="linear-gradient-101" y1="2038.25" y2="2038.25" xlink:href="#linear-gradient"/>
    <linearGradient id="linear-gradient-102" x1="111.49" y1="2042.45" x2="3314.43" y2="2042.45" xlink:href="#linear-gradient"/>
    <linearGradient id="linear-gradient-103" y1="2045.75" y2="2045.75" xlink:href="#linear-gradient"/>
    <linearGradient id="linear-gradient-104" x1="111.49" y1="2047.42" x2="3314.43" y2="2047.42" xlink:href="#linear-gradient"/>
    <linearGradient id="linear-gradient-105" y1="2047.9" y2="2047.9" xlink:href="#linear-gradient"/>
    <linearGradient id="linear-gradient-106" x1="111.49" y1="2047.09" x2="3314.43" y2="2047.09" xlink:href="#linear-gradient"/>
    <linearGradient id="linear-gradient-107" y1="2044.77" y2="2044.77" xlink:href="#linear-gradient"/>
    <linearGradient id="linear-gradient-108" x1="111.49" y1="2041.46" x2="3314.43" y2="2041.46" xlink:href="#linear-gradient"/>
    <linearGradient id="linear-gradient-109" y1="2036.31" y2="2036.31" xlink:href="#linear-gradient"/>
    <linearGradient id="linear-gradient-110" x1="111.49" y1="2030.45" x2="3314.43" y2="2030.45" xlink:href="#linear-gradient"/>
    <linearGradient id="linear-gradient-111" y1="2022.39" y2="2022.39" xlink:href="#linear-gradient"/>
    <linearGradient id="linear-gradient-112" x1="111.49" y1="2013.92" x2="3314.43" y2="2013.92" xlink:href="#linear-gradient"/>
    <linearGradient id="linear-gradient-113" y1="2002.87" y2="2002.87" xlink:href="#linear-gradient"/>
    <linearGradient id="linear-gradient-114" x1="111.49" y1="1991.71" x2="3314.43" y2="1991.71" xlink:href="#linear-gradient"/>
    <linearGradient id="linear-gradient-115" y1="1977.58" y2="1977.58" xlink:href="#linear-gradient"/>
    <linearGradient id="linear-gradient-116" x1="111.49" y1="1963.63" x2="3314.43" y2="1963.63" xlink:href="#linear-gradient"/>
    <linearGradient id="linear-gradient-117" y1="1946.3" y2="1946.3" xlink:href="#linear-gradient"/>
    <linearGradient id="linear-gradient-118" x1="111.49" y1="1929.44" x2="3314.43" y2="1929.44" xlink:href="#linear-gradient"/>
    <linearGradient id="linear-gradient-119" x1="111.49" y1="1908.75" x2="3314.43" y2="1908.75" xlink:href="#linear-gradient"/>
    <linearGradient id="linear-gradient-120" x1="111.49" y1="1888.85" x2="3314.43" y2="1888.85" xlink:href="#linear-gradient"/>
    <linearGradient id="linear-gradient-121" y1="1864.62" y2="1864.62" xlink:href="#linear-gradient"/>
    <linearGradient id="linear-gradient-122" x1="111.49" y1="1841.48" x2="3314.43" y2="1841.48" xlink:href="#linear-gradient"/>
    <linearGradient id="linear-gradient-123" y1="1813.5" y2="1813.5" xlink:href="#linear-gradient"/>
    <linearGradient id="linear-gradient-124" x1="111.49" y1="1786.82" x2="3314.43" y2="1786.82" xlink:href="#linear-gradient"/>
    <linearGradient id="linear-gradient-125" y1="1754.71" y2="1754.71" xlink:href="#linear-gradient"/>
    <linearGradient id="linear-gradient-126" x1="111.49" y1="1724.3" x2="3314.43" y2="1724.3" xlink:href="#linear-gradient"/>
    <linearGradient id="linear-gradient-127" y1="1687.85" y2="1687.85" xlink:href="#linear-gradient"/>
    <linearGradient id="linear-gradient-128" x1="111.49" y1="1653.44" x2="3314.43" y2="1653.44" xlink:href="#linear-gradient"/>
    <linearGradient id="linear-gradient-129" y1="1612.32" y2="1612.32" xlink:href="#linear-gradient"/>
    <linearGradient id="linear-gradient-130" x1="111.49" y1="1573.64" x2="3314.43" y2="1573.64" xlink:href="#linear-gradient"/>
    <linearGradient id="linear-gradient-131" y1="1527.57" y2="1527.57" xlink:href="#linear-gradient"/>
    <linearGradient id="linear-gradient-132" x1="111.49" y1="1484.41" x2="3314.43" y2="1484.41" xlink:href="#linear-gradient"/>
    <linearGradient id="linear-gradient-133" y1="1433.26" y2="1433.26" xlink:href="#linear-gradient"/>
    <linearGradient id="linear-gradient-134" x1="111.49" y1="1385.63" x2="3314.43" y2="1385.63" xlink:href="#linear-gradient"/>
    <linearGradient id="linear-gradient-135" y1="1329.63" y2="1329.63" xlink:href="#linear-gradient"/>
    <linearGradient id="linear-gradient-136" x1="111.49" y1="1278" x2="3314.43" y2="1278" xlink:href="#linear-gradient"/>
    <linearGradient id="linear-gradient-137" y1="1218.05" y2="1218.05" xlink:href="#linear-gradient"/>
    <linearGradient id="linear-gradient-138" x1="111.49" y1="1163.58" x2="3314.43" y2="1163.58" xlink:href="#linear-gradient"/>
    <linearGradient id="linear-gradient-139" x1="3026.37" y1="1101.39" x2="3573.24" y2="1101.39" xlink:href="#linear-gradient"/>
    <linearGradient id="linear-gradient-140" x1="-7.01" y1="1074.65" x2="3432.92" y2="1074.65" gradientUnits="userSpaceOnUse">
      <stop offset="0" stop-color="#fff"/>
      <stop offset="1" stop-color="#129786"/>
    </linearGradient>
    <linearGradient id="linear-gradient-141" y1="1130.06" y2="1130.06" xlink:href="#linear-gradient-140"/>
    <linearGradient id="linear-gradient-142" y1="1192.06" y2="1192.06" xlink:href="#linear-gradient-140"/>
    <linearGradient id="linear-gradient-143" x1="-7.01" y1="1246.29" x2="3432.92" y2="1246.29" xlink:href="#linear-gradient-140"/>
    <linearGradient id="linear-gradient-144" y1="1306.1" y2="1306.1" xlink:href="#linear-gradient-140"/>
    <linearGradient id="linear-gradient-145" x1="-7.01" y1="1357.73" x2="3432.92" y2="1357.73" xlink:href="#linear-gradient-140"/>
    <linearGradient id="linear-gradient-146" y1="1414.01" y2="1414.01" xlink:href="#linear-gradient-140"/>
    <linearGradient id="linear-gradient-147" x1="-7.01" y1="1462.11" x2="3432.92" y2="1462.11" xlink:href="#linear-gradient-140"/>
    <linearGradient id="linear-gradient-148" y1="1514.11" x2="3432.92" y2="1514.11" xlink:href="#linear-gradient-140"/>
    <linearGradient id="linear-gradient-149" x1="-7.01" y1="1558.24" x2="3432.92" y2="1558.24" xlink:href="#linear-gradient-140"/>
    <linearGradient id="linear-gradient-150" y1="1605.67" x2="3432.92" y2="1605.67" xlink:href="#linear-gradient-140"/>
    <linearGradient id="linear-gradient-151" x1="-7.01" y1="1645.74" x2="3432.92" y2="1645.74" xlink:href="#linear-gradient-140"/>
    <linearGradient id="linear-gradient-152" y1="1688.64" x2="3432.92" y2="1688.64" xlink:href="#linear-gradient-140"/>
    <linearGradient id="linear-gradient-153" x1="-7.01" y1="1724.76" x2="3432.92" y2="1724.76" xlink:href="#linear-gradient-140"/>
    <linearGradient id="linear-gradient-154" y1="1763.3" x2="3432.92" y2="1763.3" xlink:href="#linear-gradient-140"/>
    <linearGradient id="linear-gradient-155" x1="-7.01" y1="1795.65" x2="3432.92" y2="1795.65" xlink:href="#linear-gradient-140"/>
    <linearGradient id="linear-gradient-156" y1="1830.08" x2="3432.92" y2="1830.08" xlink:href="#linear-gradient-140"/>
    <linearGradient id="linear-gradient-157" x1="-7.01" y1="1858.88" x2="3432.92" y2="1858.88" xlink:href="#linear-gradient-140"/>
    <linearGradient id="linear-gradient-158" y1="1889.43" x2="3432.92" y2="1889.43" xlink:href="#linear-gradient-140"/>
    <linearGradient id="linear-gradient-159" x1="-7.01" y1="1914.89" x2="3432.92" y2="1914.89" xlink:href="#linear-gradient-140"/>
    <linearGradient id="linear-gradient-160" y1="1941.79" x2="3432.92" y2="1941.79" xlink:href="#linear-gradient-140"/>
    <linearGradient id="linear-gradient-161" x1="-7.01" y1="1964.09" x2="3432.92" y2="1964.09" xlink:href="#linear-gradient-140"/>
    <linearGradient id="linear-gradient-162" y1="1987.53" x2="3432.92" y2="1987.53" xlink:href="#linear-gradient-140"/>
    <linearGradient id="linear-gradient-163" x1="-7.01" y1="2006.84" x2="3432.92" y2="2006.84" xlink:href="#linear-gradient-140"/>
    <linearGradient id="linear-gradient-164" y1="2026.98" x2="3432.92" y2="2026.98" xlink:href="#linear-gradient-140"/>
    <linearGradient id="linear-gradient-165" x1="-7.01" y1="2043.44" x2="3432.92" y2="2043.44" xlink:href="#linear-gradient-140"/>
    <linearGradient id="linear-gradient-166" y1="2060.43" y2="2060.43" xlink:href="#linear-gradient-140"/>
    <linearGradient id="linear-gradient-167" x1="-7.01" y1="2074.15" x2="3432.92" y2="2074.15" xlink:href="#linear-gradient-140"/>
    <linearGradient id="linear-gradient-168" y1="2088.11" y2="2088.11" xlink:href="#linear-gradient-140"/>
    <linearGradient id="linear-gradient-169" x1="-7.01" y1="2099.18" x2="3432.92" y2="2099.18" xlink:href="#linear-gradient-140"/>
    <linearGradient id="linear-gradient-170" y1="2110.21" y2="2110.21" xlink:href="#linear-gradient-140"/>
    <linearGradient id="linear-gradient-171" x1="-7.01" y1="2118.72" x2="3432.92" y2="2118.72" xlink:href="#linear-gradient-140"/>
    <linearGradient id="linear-gradient-172" y1="2126.9" y2="2126.9" xlink:href="#linear-gradient-140"/>
    <linearGradient id="linear-gradient-173" x1="-7.01" y1="2132.91" x2="3432.92" y2="2132.91" xlink:href="#linear-gradient-140"/>
    <linearGradient id="linear-gradient-174" y1="2138.3" y2="2138.3" xlink:href="#linear-gradient-140"/>
    <linearGradient id="linear-gradient-175" x1="-7.01" y1="2141.87" x2="3432.92" y2="2141.87" xlink:href="#linear-gradient-140"/>
    <linearGradient id="linear-gradient-176" y1="2144.54" y2="2144.54" xlink:href="#linear-gradient-140"/>
    <linearGradient id="linear-gradient-177" x1="-7.01" y1="2145.71" x2="3432.92" y2="2145.71" xlink:href="#linear-gradient-140"/>
    <linearGradient id="linear-gradient-178" y1="2145.69" y2="2145.69" xlink:href="#linear-gradient-140"/>
    <linearGradient id="linear-gradient-179" x1="-7.01" y1="2144.5" x2="3432.92" y2="2144.5" xlink:href="#linear-gradient-140"/>
    <linearGradient id="linear-gradient-180" y1="2141.82" x2="3432.92" y2="2141.82" xlink:href="#linear-gradient-140"/>
    <linearGradient id="linear-gradient-181" x1="-7.01" y1="2138.25" x2="3432.92" y2="2138.25" xlink:href="#linear-gradient-140"/>
    <linearGradient id="linear-gradient-182" y1="2132.86" y2="2132.86" xlink:href="#linear-gradient-140"/>
    <linearGradient id="linear-gradient-183" x1="-7.01" y1="2126.86" x2="3432.92" y2="2126.86" xlink:href="#linear-gradient-140"/>
    <linearGradient id="linear-gradient-184" y1="2118.7" y2="2118.7" xlink:href="#linear-gradient-140"/>
    <linearGradient id="linear-gradient-185" x1="-7.01" y1="2110.22" x2="3432.92" y2="2110.22" xlink:href="#linear-gradient-140"/>
    <linearGradient id="linear-gradient-186" y1="2099.23" y2="2099.23" xlink:href="#linear-gradient-140"/>
    <linearGradient id="linear-gradient-187" x1="-7.01" y1="2088.2" x2="3432.92" y2="2088.2" xlink:href="#linear-gradient-140"/>
    <linearGradient id="linear-gradient-188" y1="2074.29" x2="3432.92" y2="2074.29" xlink:href="#linear-gradient-140"/>
    <linearGradient id="linear-gradient-189" x1="-7.01" y1="2060.64" x2="3432.92" y2="2060.64" xlink:href="#linear-gradient-140"/>
    <linearGradient id="linear-gradient-190" y1="2043.72" y2="2043.72" xlink:href="#linear-gradient-140"/>
    <linearGradient id="linear-gradient-191" x1="-7.01" y1="2027.34" x2="3432.92" y2="2027.34" xlink:href="#linear-gradient-140"/>
    <linearGradient id="linear-gradient-192" y1="2007.3" y2="2007.3" xlink:href="#linear-gradient-140"/>
    <linearGradient id="linear-gradient-193" x1="-7.01" y1="1988.09" x2="3432.92" y2="1988.09" xlink:href="#linear-gradient-140"/>
    <linearGradient id="linear-gradient-194" y1="1964.77" x2="3432.92" y2="1964.77" xlink:href="#linear-gradient-140"/>
    <linearGradient id="linear-gradient-195" x1="-7.01" y1="1942.6" x2="3432.92" y2="1942.6" xlink:href="#linear-gradient-140"/>
    <linearGradient id="linear-gradient-196" y1="1915.85" y2="1915.85" xlink:href="#linear-gradient-140"/>
    <linearGradient id="linear-gradient-197" x1="-7.01" y1="1890.54" x2="3432.92" y2="1890.54" xlink:href="#linear-gradient-140"/>
    <linearGradient id="linear-gradient-198" y1="1860.17" y2="1860.17" xlink:href="#linear-gradient-140"/>
    <linearGradient id="linear-gradient-199" y1="1831.44" y2="1831.44" xlink:href="#linear-gradient-140"/>
    <linearGradient id="linear-gradient-200" y1="1797.1" y2="1797.1" xlink:href="#linear-gradient-140"/>
    <linearGradient id="linear-gradient-201" x1="-7.01" y1="1764.82" x2="3432.92" y2="1764.82" xlink:href="#linear-gradient-140"/>
    <linearGradient id="linear-gradient-202" y1="1726.36" y2="1726.36" xlink:href="#linear-gradient-140"/>
    <linearGradient id="linear-gradient-203" y1="1690.33" y2="1690.33" xlink:href="#linear-gradient-140"/>
    <linearGradient id="linear-gradient-204" y1="1647.52" y2="1647.52" xlink:href="#linear-gradient-140"/>
    <linearGradient id="linear-gradient-205" x1="-7.01" y1="1607.54" x2="3432.92" y2="1607.54" xlink:href="#linear-gradient-140"/>
    <linearGradient id="linear-gradient-206" y1="1560.2" y2="1560.2" xlink:href="#linear-gradient-140"/>
    <linearGradient id="linear-gradient-207" x1="-7.01" y1="1516.15" x2="3432.92" y2="1516.15" xlink:href="#linear-gradient-140"/>
    <linearGradient id="linear-gradient-208" y1="1464.25" y2="1464.25" xlink:href="#linear-gradient-140"/>
    <linearGradient id="linear-gradient-209" x1="-7.01" y1="1416.23" x2="3432.92" y2="1416.23" xlink:href="#linear-gradient-140"/>
    <linearGradient id="linear-gradient-210" y1="1360.03" y2="1360.03" xlink:href="#linear-gradient-140"/>
    <linearGradient id="linear-gradient-211" x1="-7.01" y1="1308.45" x2="3432.92" y2="1308.45" xlink:href="#linear-gradient-140"/>
    <linearGradient id="linear-gradient-212" y1="1248.71" y2="1248.71" xlink:href="#linear-gradient-140"/>
    <linearGradient id="linear-gradient-213" y1="1194.51" y2="1194.51" xlink:href="#linear-gradient-140"/>
    <linearGradient id="linear-gradient-214" y1="1132.55" y2="1132.55" xlink:href="#linear-gradient-140"/>
    <linearGradient id="linear-gradient-215" y1="1077.13" x2="3432.92" y2="1077.13" xlink:href="#linear-gradient-140"/>
    <linearGradient id="linear-gradient-216" y1="1014.69" y2="1014.69" xlink:href="#linear-gradient-140"/>
    <linearGradient id="linear-gradient-217" x1="-7.01" y1="959.67" x2="3432.92" y2="959.67" xlink:href="#linear-gradient-140"/>
    <linearGradient id="linear-gradient-218" y1="898.59" x2="3432.92" y2="898.59" xlink:href="#linear-gradient-140"/>
    <linearGradient id="linear-gradient-219" x1="-7.01" y1="845.53" x2="3432.92" y2="845.53" xlink:href="#linear-gradient-140"/>
    <linearGradient id="linear-gradient-220" y1="787.39" y2="787.39" xlink:href="#linear-gradient-140"/>
    <linearGradient id="linear-gradient-221" x1="-7.01" y1="737.47" x2="3432.92" y2="737.47" xlink:href="#linear-gradient-140"/>
    <linearGradient id="linear-gradient-222" y1="683.31" y2="683.31" xlink:href="#linear-gradient-140"/>
    <linearGradient id="linear-gradient-223" x1="-7.01" y1="637.2" x2="3432.92" y2="637.2" xlink:href="#linear-gradient-140"/>
    <linearGradient id="linear-gradient-224" y1="587.52" y2="587.52" xlink:href="#linear-gradient-140"/>
    <linearGradient id="linear-gradient-225" x1="-7.01" y1="545.45" x2="3432.92" y2="545.45" xlink:href="#linear-gradient-140"/>
    <linearGradient id="linear-gradient-226" y1="500.35" y2="500.35" xlink:href="#linear-gradient-140"/>
    <linearGradient id="linear-gradient-227" x1="-7.01" y1="462.3" x2="3432.92" y2="462.3" xlink:href="#linear-gradient-140"/>
    <linearGradient id="linear-gradient-228" y1="421.65" x2="3432.92" y2="421.65" xlink:href="#linear-gradient-140"/>
    <linearGradient id="linear-gradient-229" x1="-7.01" y1="387.47" x2="3432.92" y2="387.47" xlink:href="#linear-gradient-140"/>
    <linearGradient id="linear-gradient-230" y1="351.06" y2="351.06" xlink:href="#linear-gradient-140"/>
    <linearGradient id="linear-gradient-231" x1="-7.01" y1="320.54" x2="3432.92" y2="320.54" xlink:href="#linear-gradient-140"/>
    <linearGradient id="linear-gradient-232" y1="288.12" y2="288.12" xlink:href="#linear-gradient-140"/>
    <linearGradient id="linear-gradient-233" x1="-7.01" y1="261.03" x2="3432.92" y2="261.03" xlink:href="#linear-gradient-140"/>
    <linearGradient id="linear-gradient-234" y1="232.38" y2="232.38" xlink:href="#linear-gradient-140"/>
    <linearGradient id="linear-gradient-235" x1="-7.01" y1="208.54" x2="3432.92" y2="208.54" xlink:href="#linear-gradient-140"/>
    <linearGradient id="linear-gradient-236" y1="183.43" x2="3432.92" y2="183.43" xlink:href="#linear-gradient-140"/>
    <linearGradient id="linear-gradient-237" x1="-7.01" y1="162.66" x2="3432.92" y2="162.66" xlink:href="#linear-gradient-140"/>
    <linearGradient id="linear-gradient-238" y1="140.93" y2="140.93" xlink:href="#linear-gradient-140"/>
    <linearGradient id="linear-gradient-239" x1="-7.01" y1="123.08" x2="3432.92" y2="123.08" xlink:href="#linear-gradient-140"/>
    <linearGradient id="linear-gradient-240" y1="104.56" y2="104.56" xlink:href="#linear-gradient-140"/>
    <linearGradient id="linear-gradient-241" x1="-7.01" y1="89.5" x2="3432.92" y2="89.5" xlink:href="#linear-gradient-140"/>
    <linearGradient id="linear-gradient-242" y1="74.07" y2="74.07" xlink:href="#linear-gradient-140"/>
    <linearGradient id="linear-gradient-243" x1="-7.01" y1="61.7" x2="3432.92" y2="61.7" xlink:href="#linear-gradient-140"/>
    <linearGradient id="linear-gradient-244" y1="49.25" y2="49.25" xlink:href="#linear-gradient-140"/>
    <linearGradient id="linear-gradient-245" x1="-7.01" y1="39.49" x2="3432.92" y2="39.49" xlink:href="#linear-gradient-140"/>
    <linearGradient id="linear-gradient-246" y1="29.92" y2="29.92" xlink:href="#linear-gradient-140"/>
    <linearGradient id="linear-gradient-247" x1="-7.01" y1="22.69" x2="3432.92" y2="22.69" xlink:href="#linear-gradient-140"/>
    <linearGradient id="linear-gradient-248" y1="15.94" y2="15.94" xlink:href="#linear-gradient-140"/>
    <linearGradient id="linear-gradient-249" x1="-7.01" y1="11.17" x2="3432.92" y2="11.17" xlink:href="#linear-gradient-140"/>
    <linearGradient id="linear-gradient-250" y1="7.18" y2="7.18" xlink:href="#linear-gradient-140"/>
    <linearGradient id="linear-gradient-251" x1="-7.01" y1="4.83" x2="3432.91" y2="4.83" xlink:href="#linear-gradient-140"/>
    <linearGradient id="linear-gradient-252" y1="3.54" y2="3.54" xlink:href="#linear-gradient-140"/>
    <linearGradient id="linear-gradient-253" x1="-7.01" y1="3.57" x2="3432.92" y2="3.57" xlink:href="#linear-gradient-140"/>
    <linearGradient id="linear-gradient-254" y1="4.93" x2="3432.92" y2="4.93" xlink:href="#linear-gradient-140"/>
    <linearGradient id="linear-gradient-255" x1="-7.01" y1="7.32" x2="3432.92" y2="7.32" xlink:href="#linear-gradient-140"/>
    <linearGradient id="linear-gradient-256" y1="11.37" y2="11.37" xlink:href="#linear-gradient-140"/>
    <linearGradient id="linear-gradient-257" x1="-7.01" y1="16.17" x2="3432.92" y2="16.17" xlink:href="#linear-gradient-140"/>
    <linearGradient id="linear-gradient-258" y1="22.95" y2="22.95" xlink:href="#linear-gradient-140"/>
    <linearGradient id="linear-gradient-259" x1="-7.01" y1="30.21" x2="3432.92" y2="30.21" xlink:href="#linear-gradient-140"/>
    <linearGradient id="linear-gradient-260" y1="39.79" y2="39.79" xlink:href="#linear-gradient-140"/>
    <linearGradient id="linear-gradient-261" x1="-7.01" y1="49.56" x2="3432.92" y2="49.56" xlink:href="#linear-gradient-140"/>
    <linearGradient id="linear-gradient-262" y1="62.01" y2="62.01" xlink:href="#linear-gradient-140"/>
    <linearGradient id="linear-gradient-263" x1="-7.01" y1="74.37" x2="3432.92" y2="74.37" xlink:href="#linear-gradient-140"/>
    <linearGradient id="linear-gradient-264" y1="89.79" x2="3432.92" y2="89.79" xlink:href="#linear-gradient-140"/>
    <linearGradient id="linear-gradient-265" y1="104.81" y2="104.81" xlink:href="#linear-gradient-140"/>
    <linearGradient id="linear-gradient-266" x1="-7.01" y1="123.3" x2="3432.92" y2="123.3" xlink:href="#linear-gradient-140"/>
    <linearGradient id="linear-gradient-267" x1="-7.01" y1="141.1" x2="3432.92" y2="141.1" xlink:href="#linear-gradient-140"/>
    <linearGradient id="linear-gradient-268" y1="162.78" y2="162.78" xlink:href="#linear-gradient-140"/>
    <linearGradient id="linear-gradient-269" x1="-7.01" y1="183.48" x2="3432.92" y2="183.48" xlink:href="#linear-gradient-140"/>
    <linearGradient id="linear-gradient-270" y1="208.51" y2="208.51" xlink:href="#linear-gradient-140"/>
    <linearGradient id="linear-gradient-271" x1="-7.01" y1="232.26" x2="3432.92" y2="232.26" xlink:href="#linear-gradient-140"/>
    <linearGradient id="linear-gradient-272" y1="260.81" x2="3432.92" y2="260.81" xlink:href="#linear-gradient-140"/>
    <linearGradient id="linear-gradient-273" x1="-7.01" y1="287.78" x2="3432.92" y2="287.78" xlink:href="#linear-gradient-140"/>
    <linearGradient id="linear-gradient-274" y1="320.07" y2="320.07" xlink:href="#linear-gradient-140"/>
    <linearGradient id="linear-gradient-275" x1="-7.01" y1="350.57" x2="3432.92" y2="350.57" xlink:href="#linear-gradient-140"/>
    <linearGradient id="linear-gradient-276" y1="386.95" x2="3432.92" y2="386.95" xlink:href="#linear-gradient-140"/>
    <linearGradient id="linear-gradient-277" x1="-7.01" y1="421.11" x2="3432.92" y2="421.11" xlink:href="#linear-gradient-140"/>
    <linearGradient id="linear-gradient-278" y1="461.73" y2="461.73" xlink:href="#linear-gradient-140"/>
    <linearGradient id="linear-gradient-279" y1="499.75" y2="499.75" xlink:href="#linear-gradient-140"/>
    <linearGradient id="linear-gradient-280" y1="544.82" y2="544.82" xlink:href="#linear-gradient-140"/>
    <linearGradient id="linear-gradient-281" x1="-7.01" y1="586.86" x2="3432.92" y2="586.86" xlink:href="#linear-gradient-140"/>
    <linearGradient id="linear-gradient-282" x1="-7.01" y1="636.51" x2="3432.92" y2="636.51" xlink:href="#linear-gradient-140"/>
    <linearGradient id="linear-gradient-283" x1="-7.01" y1="682.6" x2="3432.92" y2="682.6" xlink:href="#linear-gradient-140"/>
    <linearGradient id="linear-gradient-284" y1="736.73" y2="736.73" xlink:href="#linear-gradient-140"/>
    <linearGradient id="linear-gradient-285" x1="-7.01" y1="786.64" x2="3432.92" y2="786.64" xlink:href="#linear-gradient-140"/>
    <linearGradient id="linear-gradient-286" y1="844.75" y2="844.75" xlink:href="#linear-gradient-140"/>
    <linearGradient id="linear-gradient-287" x1="-7.01" y1="897.8" x2="3432.92" y2="897.8" xlink:href="#linear-gradient-140"/>
    <linearGradient id="linear-gradient-288" y1="958.86" x2="2735.18" y2="958.86" xlink:href="#linear-gradient-140"/>
    <linearGradient id="linear-gradient-289" x1="2394.13" y1="1013.88" x2="4438.06" y2="1013.88" xlink:href="#linear-gradient-140"/>
  </defs>
  <g id="Layer_1-2" data-name="Layer 1">
    <g>
      <g>
        <circle class="cls-272" cx="3300.43" cy="1074.64" r="14"/>
        <path class="cls-36" d="M3284.09,1020.97l-.09-.97v-.02c-.69-7.65,4.96-14.41,12.6-15.09,7.65-.69,14.4,4.91,15.09,12.56l.09,1.02c.71,7.65-4.91,14.42-12.55,15.14-7.65.71-14.42-4.91-15.14-12.55v-.05s0-.02,0-.02Z"/>
        <circle class="cls-124" cx="3289.02" cy="957.38" r="13.8"/>
        <path class="cls-105" d="M3262.93,907.74l-.27-.94v-.02c-2.1-7.27,2.1-14.86,9.38-16.95s14.85,2.06,16.94,9.34l.29.98c2.12,7.27-2.06,14.87-9.33,16.99s-14.87-2.06-16.99-9.33v-.05s-.02-.02-.02-.02Z"/>
        <path class="cls-127" d="M3255.73,857.95c-7.51,0-13.59-6.09-13.59-13.6s6.09-13.6,13.59-13.6,13.6,6.09,13.6,13.6-6.09,13.6-13.6,13.6Z"/>
        <path class="cls-215" d="M3221.35,800.01l-.43-.88v-.02c-3.28-6.7-.51-14.78,6.19-18.06,6.7-3.27,14.76-.54,18.04,6.16l.45.91c3.3,6.69.55,14.78-6.14,18.08-6.69,3.3-14.78.55-18.08-6.14l-.02-.04v-.02Z"/>
        <path class="cls-194" d="M3203.36,752.15c-7.4,0-13.39-6-13.39-13.39s6-13.39,13.39-13.39,13.39,6,13.39,13.39-6,13.39-13.39,13.39Z"/>
        <path class="cls-150" d="M3162.55,700.2l-.56-.81h0c-4.19-6.04-2.7-14.33,3.33-18.52s14.29-2.74,18.48,3.29l.58.83c4.21,6.02,2.75,14.31-3.27,18.52s-14.31,2.75-18.52-3.27l-.03-.04h0Z"/>
        <circle class="cls-200" cx="3135.58" cy="642.28" r="13.19"/>
        <path class="cls-53" d="M3090.04,609.41l-.66-.73h0c-4.86-5.36-4.47-13.64.88-18.51,5.35-4.86,13.6-4.5,18.47.85l.68.75c4.88,5.33,4.52,13.62-.82,18.5s-13.62,4.52-18.5-.82l-.03-.03h0Z"/>
        <path class="cls-205" d="M3055.86,568.37c-7.17,0-12.99-5.81-12.99-12.99s5.81-12.99,12.99-12.99,12.99,5.81,12.99,12.99-5.81,12.99-12.99,12.99Z"/>
        <path class="cls-54" d="M3006.93,527.78l-.74-.65h0c-5.34-4.71-5.86-12.86-1.16-18.2s12.82-5.89,18.16-1.19l.76.67c5.36,4.69,5.91,12.83,1.22,18.19-4.69,5.36-12.83,5.91-18.19,1.22l-.03-.03h0Z"/>
        <path class="cls-8" d="M2967.01,490.6c-7.06,0-12.79-5.72-12.79-12.79s5.72-12.79,12.79-12.79,12.79,5.72,12.79,12.79-5.72,12.79-12.79,12.79Z"/>
        <path class="cls-175" d="M2915.68,454.99l-.8-.58h0c-5.68-4.11-6.95-12.05-2.84-17.72,4.11-5.68,12.01-6.98,17.68-2.87l.82.59c5.69,4.09,6.99,12.02,2.9,17.71-4.09,5.69-12.02,6.99-17.71,2.9l-.04-.03h0Z"/>
        <path class="cls-7" d="M2871.18,421.62c-6.95,0-12.58-5.63-12.58-12.58s5.63-12.58,12.58-12.58,12.58,5.63,12.58,12.58-5.63,12.58-12.58,12.58Z"/>
        <path class="cls-267" d="M2818.15,390.53l-.85-.51h0c-5.9-3.57-7.8-11.24-4.24-17.15,3.56-5.9,11.2-7.83,17.11-4.26l.86.52c5.92,3.54,7.84,11.21,4.3,17.13s-11.21,7.84-17.13,4.3l-.04-.02h0Z"/>
        <path class="cls-191" d="M2769.95,360.85c-6.84,0-12.38-5.54-12.38-12.38s5.54-12.38,12.38-12.38,12.38,5.54,12.38,12.38-5.54,12.38-12.38,12.38Z"/>
        <path class="cls-287" d="M2715.73,333.85l-.88-.45h0c-6.05-3.07-8.47-10.46-5.41-16.51s10.42-8.49,16.47-5.43l.9.45c6.06,3.05,8.51,10.43,5.47,16.49-3.05,6.06-10.43,8.51-16.49,5.47l-.04-.02h0Z"/>
        <path class="cls-210" d="M2664.52,307.71c-6.73,0-12.18-5.45-12.18-12.18s5.45-12.18,12.18-12.18,12.18,5.45,12.18,12.18-5.45,12.18-12.18,12.18Z"/>
        <path class="cls-185" d="M2609.5,284.45l-.91-.39h0c-6.14-2.61-9-9.71-6.39-15.85,2.61-6.14,9.67-9.02,15.81-6.41l.93.39c6.15,2.59,9.04,9.68,6.44,15.83s-9.68,9.04-15.83,6.45l-.04-.02h0Z"/>
        <path class="cls-233" d="M2555.8,261.7c-6.61,0-11.98-5.36-11.98-11.98s5.36-11.98,11.98-11.98,11.98,5.36,11.98,11.98-5.36,11.98-11.98,11.98Z"/>
        <path class="cls-132" d="M2500.25,241.9l-.94-.33h0c-6.18-2.2-9.42-8.99-7.22-15.17,2.19-6.18,8.95-9.43,15.13-7.24l.95.33c6.19,2.17,9.45,8.95,7.28,15.15-2.17,6.19-8.95,9.45-15.15,7.28h-.04s0-.02,0-.02Z"/>
        <path class="cls-274" d="M2444.48,222.41c-6.5,0-11.77-5.27-11.77-11.77s5.27-11.77,11.77-11.77,11.77,5.27,11.77,11.77-5.27,11.77-11.77,11.77Z"/>
        <path class="cls-133" d="M2388.61,205.83l-.95-.28h0c-6.19-1.81-9.74-8.29-7.93-14.49,1.81-6.19,8.25-9.75,14.44-7.95l.96.28c6.2,1.79,9.77,8.26,7.99,14.46-1.79,6.2-8.26,9.77-14.46,7.99h-.04s0-.01,0-.01Z"/>
        <path class="cls-46" d="M2331.13,189.49c-6.39,0-11.57-5.18-11.57-11.57s5.18-11.57,11.57-11.57,11.57,5.18,11.57,11.57-5.18,11.57-11.57,11.57Z"/>
        <path class="cls-96" d="M2275.12,175.94l-.97-.23h0c-6.17-1.45-10-7.63-8.55-13.8,1.45-6.17,7.59-10,13.76-8.55l.98.23c6.18,1.43,10.02,7.59,8.59,13.77s-7.59,10.02-13.77,8.59h-.04Z"/>
        <path class="cls-56" d="M2216.19,162.66c-6.28,0-11.37-5.09-11.37-11.37s5.09-11.37,11.37-11.37,11.37,5.09,11.37,11.37-5.09,11.37-11.37,11.37Z"/>
        <path class="cls-10" d="M2160.18,151.98l-.98-.18c-6.13-1.11-10.19-6.98-9.08-13.11s6.95-10.2,13.07-9.08l.99.18c6.13,1.09,10.21,6.95,9.12,13.08-1.09,6.13-6.95,10.21-13.08,9.12h-.04Z"/>
        <circle class="cls-179" cx="2100.05" cy="130.51" r="11.17"/>
        <path class="cls-108" d="M2044.16,133.75l-.99-.13c-6.06-.8-10.33-6.36-9.53-12.42s6.33-10.33,12.39-9.53l1,.13c6.06.78,10.35,6.33,9.57,12.4-.78,6.06-6.33,10.35-12.4,9.57h-.04Z"/>
        <path class="cls-275" d="M1983.03,126.36c-6.06,0-10.96-4.91-10.96-10.96s4.91-10.96,10.96-10.96,10.96,4.91,10.96,10.96-4.91,10.96-10.96,10.96Z"/>
        <path class="cls-260" d="M1927.37,121.08l-.99-.08c-5.98-.5-10.42-5.76-9.92-11.74.5-5.98,5.73-10.42,11.71-9.92l1,.08c5.98.49,10.44,5.73,9.95,11.71-.49,5.98-5.73,10.44-11.71,9.95h-.04Z"/>
        <path class="cls-144" d="M1865.43,116.56c-5.94,0-10.76-4.82-10.76-10.76s4.82-10.76,10.76-10.76,10.76,4.82,10.76,10.76-4.82,10.76-10.76,10.76Z"/>
        <path class="cls-125" d="M1810.1,113.84l-1-.04c-5.89-.23-10.48-5.18-10.25-11.07.23-5.89,5.15-10.48,11.03-10.25l1,.04c5.89.21,10.49,5.15,10.29,11.04-.21,5.89-5.15,10.49-11.04,10.28h-.04Z"/>
        <path class="cls-107" d="M1747.51,112.15c-5.83,0-10.56-4.73-10.56-10.56s4.73-10.56,10.56-10.56,10.56,4.73,10.56,10.56-4.73,10.56-10.56,10.56Z"/>
        <path class="cls-232" d="M1692.6,111.91h-.64c-5.78.03-10.49-4.62-10.52-10.4-.03-5.76,4.6-10.46,10.35-10.52h.65c5.78-.07,10.51,4.57,10.57,10.35.06,5.78-4.58,10.51-10.35,10.57h-.06Z"/>
        <path class="cls-63" d="M1629.88,113.04c-5.72,0-10.36-4.64-10.36-10.36s4.64-10.36,10.36-10.36,10.36,4.64,10.36,10.36-4.64,10.36-10.36,10.36Z"/>
        <path class="cls-129" d="M1575.47,115.24l-.64.03c-5.66.29-10.48-4.07-10.77-9.73-.29-5.64,4.05-10.45,9.68-10.76l.64-.04c5.66-.31,10.5,4.02,10.82,9.68.31,5.66-4.02,10.5-9.68,10.82h-.06Z"/>
        <circle class="cls-75" cx="1512.42" cy="109.06" r="10.15"/>
        <path class="cls-55" d="M1458.63,123.9l-.63.06c-5.53.54-10.45-3.51-10.98-9.04-.53-5.51,3.49-10.41,8.99-10.98l.64-.06c5.53-.56,10.46,3.46,11.03,8.99s-3.46,10.46-8.99,11.03h-.06Z"/>
        <path class="cls-263" d="M1395.38,130.8c-5.5,0-9.95-4.46-9.95-9.95s4.46-9.95,9.95-9.95,9.95,4.46,9.95,9.95-4.46,9.95-9.95,9.95Z"/>
        <path class="cls-19" d="M1342.32,138l-.62.09c-5.39.78-10.39-2.95-11.17-8.34-.78-5.37,2.93-10.35,8.29-11.16l.63-.09c5.38-.81,10.4,2.9,11.21,8.28.81,5.38-2.9,10.4-8.28,11.21h-.06Z"/>
        <circle class="cls-45" cx="1279.04" cy="138.17" r="9.75"/>
        <path class="cls-120" d="M1226.84,157.69l-.62.12c-5.23,1.02-10.3-2.39-11.33-7.62-1.02-5.21,2.37-10.27,7.57-11.32l.62-.12c5.23-1.05,10.32,2.34,11.37,7.57s-2.34,10.32-7.57,11.37h-.05Z"/>
        <path class="cls-235" d="M1163.69,170.75c-5.27,0-9.55-4.27-9.55-9.55s4.27-9.55,9.55-9.55,9.55,4.27,9.55,9.55-4.27,9.55-9.55,9.55Z"/>
        <path class="cls-21" d="M1112.51,183.15l-.6.15c-5.06,1.26-10.19-1.82-11.46-6.88-1.26-5.05,1.8-10.16,6.84-11.45l.61-.15c5.06-1.29,10.21,1.77,11.49,6.83,1.29,5.06-1.77,10.21-6.83,11.49h-.05Z"/>
        <circle class="cls-95" cx="1049.69" cy="190.13" r="9.34"/>
        <path class="cls-253" d="M999.7,214.59l-.59.18c-4.88,1.5-10.06-1.24-11.56-6.12-1.5-4.86,1.22-10.02,6.07-11.55l.59-.19c4.88-1.53,10.07,1.18,11.59,6.06,1.53,4.87-1.18,10.07-6.06,11.59l-.05.02Z"/>
        <path class="cls-123" d="M937.44,234.35c-5.05,0-9.14-4.09-9.14-9.14s4.09-9.14,9.14-9.14,9.14,4.09,9.14,9.14-4.09,9.14-9.14,9.14Z"/>
        <path class="cls-193" d="M888.86,252.28l-.57.21c-4.68,1.74-9.89-.64-11.63-5.32-1.74-4.67.63-9.86,5.28-11.62l.57-.22c4.67-1.77,9.9.59,11.66,5.26,1.77,4.67-.59,9.9-5.26,11.67l-.05.02Z"/>
        <circle class="cls-149" cx="827.42" cy="266.75" r="8.94"/>
        <path class="cls-83" d="M780.52,296.56l-.55.24c-4.46,1.99-9.69-.02-11.68-4.48-1.98-4.45,0-9.65,4.44-11.66l.55-.25c4.45-2.01,9.69-.03,11.7,4.42,2.01,4.45.03,9.69-4.42,11.7l-.05.02Z"/>
        <circle class="cls-17" cx="720.24" cy="315.1" r="8.74"/>
        <path class="cls-139" d="M675.36,347.81l-.88.47h0c-4.21,2.24-9.45.64-11.69-3.57s-.67-9.43,3.55-11.67l.89-.47c4.21-2.26,9.45-.67,11.7,3.53,2.26,4.21.67,9.45-3.53,11.7h-.03s0,.02,0,.02Z"/>
        <circle class="cls-71" cx="616.31" cy="370.93" r="8.54"/>
        <path class="cls-44" d="M573.91,406.72l-.84.53h0c-3.94,2.5-9.15,1.34-11.65-2.6s-1.36-9.13,2.58-11.63l.85-.54c3.93-2.51,9.15-1.36,11.66,2.56,2.51,3.93,1.36,9.15-2.56,11.66l-.02.02h0Z"/>
        <path class="cls-157" d="M517,442.94c-4.6,0-8.33-3.73-8.33-8.33s3.73-8.33,8.33-8.33,8.33,3.73,8.33,8.33-3.73,8.33-8.33,8.33Z"/>
        <path class="cls-89" d="M477.66,473.67l-.79.6h0c-3.61,2.77-8.78,2.08-11.55-1.54-2.76-3.61-2.09-8.77,1.52-11.53l.8-.61c3.61-2.78,8.78-2.1,11.55,1.5s2.1,8.78-1.5,11.55l-.02.02h0Z"/>
        <path class="cls-203" d="M423.64,514.84c-4.49,0-8.13-3.64-8.13-8.13s3.64-8.13,8.13-8.13,8.13,3.64,8.13,8.13-3.64,8.13-8.13,8.13Z"/>
        <path class="cls-32" d="M388.14,549.22l-.72.68h0c-3.24,3.04-8.32,2.87-11.36-.36s-2.89-8.3.35-11.34l.73-.69c3.23-3.05,8.31-2.9,11.36.33,3.05,3.23,2.9,8.31-.33,11.36l-.02.02h0Z"/>
        <path class="cls-5" d="M338.02,595.76c-4.38,0-7.93-3.55-7.93-7.93s3.55-7.93,7.93-7.93,7.93,3.55,7.93,7.93-3.55,7.93-7.93,7.93Z"/>
        <path class="cls-176" d="M307.4,633.92l-.64.76h0c-2.79,3.31-7.73,3.73-11.04.94s-3.74-7.71-.95-11.02l.65-.77c2.78-3.32,7.72-3.75,11.04-.97,3.32,2.78,3.75,7.72.97,11.04l-.02.02h0Z"/>
        <path class="cls-277" d="M262.54,686.17c-4.27,0-7.73-3.46-7.73-7.73s3.46-7.73,7.73-7.73,7.73,3.46,7.73,7.73-3.46,7.73-7.73,7.73Z"/>
        <path class="cls-42" d="M238.12,728.02l-.53.84h0c-2.25,3.57-6.96,4.63-10.52,2.38s-4.64-6.94-2.39-10.5l.54-.86c2.24-3.57,6.95-4.65,10.52-2.41,3.57,2.24,4.65,6.95,2.41,10.52v.02s-.02,0-.02,0Z"/>
        <circle class="cls-13" cx="200.28" cy="778.56" r="7.52"/>
        <path class="cls-156" d="M183.62,831.18l-.39.91h0c-1.61,3.78-5.97,5.54-9.75,3.93-3.77-1.61-5.54-5.95-3.93-9.72l.39-.93c1.6-3.78,5.96-5.55,9.73-3.95,3.78,1.6,5.55,5.96,3.95,9.73v.02s-.01,0-.01,0Z"/>
        <path class="cls-188" d="M154.86,894.64c-4.04,0-7.32-3.28-7.32-7.32s3.28-7.32,7.32-7.32,7.32,3.28,7.32,7.32-3.28,7.32-7.32,7.32Z"/>
        <path class="cls-58" d="M147.52,941.97l-.22.96h0c-.88,3.9-4.75,6.35-8.64,5.47-3.89-.88-6.34-4.72-5.46-8.62l.22-.98c.87-3.9,4.73-6.35,8.62-5.49,3.9.87,6.35,4.73,5.48,8.62v.02s0,.01,0,.01Z"/>
        <path class="cls-16" d="M129.79,1009.56c-3.93,0-7.12-3.19-7.12-7.12s3.19-7.12,7.12-7.12,7.12,3.19,7.12,7.12-3.19,7.12-7.12,7.12Z"/>
        <path class="cls-29" d="M132.75,1057.48l-.03.99h0c-.11,3.89-3.35,6.94-7.23,6.82s-6.93-3.33-6.81-7.2l.03-1.01c.1-3.88,3.33-6.94,7.2-6.84,3.88.1,6.94,3.33,6.84,7.2v.02s0,.01,0,.01Z"/>
        <path class="cls-119" d="M127.2,1127.15c-3.82,0-6.92-3.1-6.92-6.92s3.1-6.92,6.92-6.92,6.92,3.1,6.92,6.92-3.1,6.92-6.92,6.92Z"/>
        <path class="cls-103" d="M140.52,1173.7l.16.97h0c.62,3.73-1.9,7.24-5.61,7.85-3.72.62-7.22-1.87-7.84-5.59l-.17-.99c-.63-3.71,1.87-7.24,5.59-7.86,3.71-.63,7.24,1.87,7.86,5.59v.02s0,.01,0,.01Z"/>
        <circle class="cls-117" cx="147.29" cy="1236.33" r="6.71"/>
        <path class="cls-98" d="M170.22,1286.43l.34.93h0c1.25,3.44-.51,7.24-3.95,8.49-3.43,1.25-7.22-.49-8.48-3.93l-.35-.94c-1.27-3.43.49-7.24,3.92-8.5,3.43-1.27,7.24.49,8.5,3.92v.02s.01,0,.01,0Z"/>
        <circle class="cls-69" cx="188.37" cy="1346.78" r="6.51"/>
        <path class="cls-111" d="M219.37,1392.36l.49.86h0c1.75,3.09.67,7-2.41,8.75-3.08,1.75-6.99.69-8.74-2.39l-.5-.87c-1.76-3.08-.7-7,2.38-8.76,3.08-1.76,7-.69,8.76,2.38v.02s.01,0,.01,0Z"/>
        <circle class="cls-158" cx="247.14" cy="1448.97" r="6.31"/>
        <path class="cls-148" d="M284.43,1489.59l.61.78h0c2.1,2.72,1.61,6.62-1.1,8.72-2.71,2.1-6.6,1.63-8.7-1.08l-.62-.79c-2.11-2.7-1.64-6.61,1.07-8.72,2.7-2.11,6.61-1.64,8.72,1.07v.02s.02,0,.02,0Z"/>
        <path class="cls-146" d="M319.91,1547.85c-3.37,0-6.11-2.73-6.11-6.11s2.73-6.11,6.11-6.11,6.11,2.73,6.11,6.11-2.73,6.11-6.11,6.11Z"/>
        <path class="cls-212" d="M361.94,1577.47l.7.7h0c2.34,2.36,2.33,6.16-.02,8.5s-6.14,2.35-8.48,0l-.71-.71c-2.35-2.35-2.35-6.15,0-8.5,2.35-2.35,6.15-2.35,8.5,0h.01s0,.02,0,.02Z"/>
        <circle class="cls-243" cx="403.46" cy="1624.98" r="5.9"/>
        <path class="cls-47" d="M449,1656.11l.77.63c2.49,2.02,2.87,5.68.84,8.17s-5.67,2.88-8.16.85l-.78-.63c-2.5-2.02-2.88-5.67-.87-8.17,2.02-2.5,5.67-2.88,8.17-.87l.02.02Z"/>
        <path class="cls-218" d="M495.23,1704.78c-3.15,0-5.7-2.55-5.7-5.7s2.55-5.7,5.7-5.7,5.7,2.55,5.7,5.7-2.55,5.7-5.7,5.7Z"/>
        <path class="cls-246" d="M543.38,1726l.82.55c2.57,1.73,3.25,5.21,1.52,7.78s-5.2,3.26-7.77,1.53l-.83-.56c-2.57-1.72-3.27-5.2-1.54-7.78,1.72-2.57,5.2-3.27,7.78-1.54h.02Z"/>
        <path class="cls-241" d="M593.31,1770.11c-3.04,0-5.5-2.46-5.5-5.5s2.46-5.5,5.5-5.5,5.5,2.46,5.5,5.5-2.46,5.5-5.5,5.5Z"/>
        <path class="cls-261" d="M643.42,1787.68l.87.49c2.6,1.46,3.52,4.76,2.06,7.36s-4.75,3.53-7.35,2.07l-.87-.49c-2.61-1.46-3.54-4.75-2.08-7.35,1.46-2.61,4.75-3.54,7.35-2.08h.02Z"/>
        <path class="cls-39" d="M696.28,1827.46c-2.93,0-5.3-2.37-5.3-5.3s2.37-5.3,5.3-5.3,5.3,2.37,5.3,5.3-2.37,5.3-5.3,5.3Z"/>
        <path class="cls-168" d="M747.86,1841.72l.9.43c2.6,1.23,3.71,4.33,2.48,6.92-1.23,2.6-4.31,3.71-6.91,2.48l-.91-.43c-2.6-1.22-3.72-4.32-2.5-6.92,1.22-2.6,4.32-3.72,6.92-2.5h.02Z"/>
        <circle class="cls-80" cx="803.08" cy="1872.29" r="5.09"/>
        <path class="cls-143" d="M855.77,1888.6l.93.37c2.57,1.02,3.82,3.92,2.81,6.49-1.02,2.57-3.91,3.83-6.47,2.81l-.93-.37c-2.57-1.01-3.83-3.91-2.82-6.48,1.01-2.57,3.91-3.83,6.48-2.82h.02Z"/>
        <path class="cls-130" d="M912.88,1920.34c-2.7,0-4.89-2.19-4.89-4.89s2.19-4.89,4.89-4.89,4.89,2.19,4.89,4.89-2.19,4.89-4.89,4.89Z"/>
        <path class="cls-142" d="M966.4,1928.75l.95.31c2.52.83,3.88,3.54,3.06,6.05-.83,2.52-3.53,3.89-6.04,3.06l-.95-.31c-2.52-.82-3.9-3.53-3.07-6.05s3.53-3.9,6.05-3.07h.02Z"/>
        <circle class="cls-34" cx="1025.05" cy="1952.04" r="4.69"/>
        <path class="cls-136" d="M1079.18,1962.5l.96.26c2.45.66,3.9,3.18,3.24,5.63-.66,2.45-3.17,3.91-5.62,3.25l-.97-.26c-2.45-.65-3.91-3.17-3.26-5.62.65-2.45,3.17-3.91,5.62-3.26h.02Z"/>
        <path class="cls-35" d="M1139.07,1986.86c-2.48,0-4.49-2.01-4.49-4.49s2.01-4.49,4.49-4.49,4.49,2.01,4.49,4.49-2.01,4.49-4.49,4.49Z"/>
        <path class="cls-122" d="M1193.64,1990.16l.97.21c2.37.51,3.88,2.84,3.38,5.21-.51,2.37-2.83,3.89-5.2,3.38l-.98-.21c-2.37-.5-3.89-2.83-3.39-5.2.5-2.37,2.83-3.89,5.2-3.39h.02Z"/>
        <circle class="cls-102" cx="1254.51" cy="2006.72" r="4.28"/>
        <path class="cls-242" d="M1309.37,2011.94l.98.16c2.28.37,3.83,2.52,3.46,4.81-.37,2.28-2.51,3.84-4.79,3.47l-.99-.16c-2.29-.36-3.84-2.51-3.48-4.8.36-2.29,2.51-3.84,4.8-3.48h.02Z"/>
        <path class="cls-285" d="M1371.03,2029.37c-2.25,0-4.08-1.83-4.08-4.08s1.83-4.08,4.08-4.08,4.08,1.83,4.08,4.08-1.83,4.08-4.08,4.08Z"/>
        <path class="cls-37" d="M1426.06,2028.05l.99.11c2.19.25,3.76,2.22,3.51,4.41-.25,2.19-2.21,3.76-4.4,3.51l-1-.11c-2.19-.24-3.77-2.21-3.53-4.4.24-2.19,2.21-3.77,4.4-3.53h.02Z"/>
        <path class="cls-211" d="M1488.31,2042.13c-2.14,0-3.88-1.74-3.88-3.88s1.74-3.88,3.88-3.88,3.88,1.74,3.88,3.88-1.74,3.88-3.88,3.88Z"/>
        <path class="cls-258" d="M1543.39,2038.64l1,.07c2.08.14,3.66,1.94,3.52,4.03-.14,2.08-1.93,3.66-4.01,3.53l-1-.06c-2.09-.13-3.67-1.93-3.54-4.02.13-2.09,1.93-3.67,4.02-3.54h.01Z"/>
        <path class="cls-163" d="M1606.05,2049.43c-2.03,0-3.68-1.65-3.68-3.68s1.65-3.68,3.68-3.68,3.68,1.65,3.68,3.68-1.65,3.68-3.68,3.68Z"/>
        <path class="cls-202" d="M1661.1,2043.83l.99.02c1.98.04,3.55,1.68,3.51,3.66-.04,1.98-1.67,3.55-3.64,3.51l-1-.02c-1.98-.04-3.55-1.67-3.52-3.65.04-1.98,1.67-3.55,3.65-3.52h.01Z"/>
        <path class="cls-226" d="M1724.02,2051.37c-1.92,0-3.48-1.56-3.48-3.48s1.56-3.48,3.48-3.48,3.47,1.56,3.47,3.48-1.56,3.48-3.47,3.48Z"/>
        <path class="cls-186" d="M1778.93,2043.71h.64c1.87-.06,3.41,1.42,3.46,3.29.04,1.86-1.43,3.4-3.28,3.46l-.64.02c-1.87.05-3.42-1.42-3.47-3.29-.05-1.87,1.42-3.42,3.29-3.47h.02Z"/>
        <path class="cls-9" d="M1841.62,2048.04c-1.81,0-3.27-1.47-3.27-3.27s1.47-3.27,3.27-3.27,3.27,1.47,3.27,3.27-1.47,3.27-3.27,3.27Z"/>
        <path class="cls-209" d="M1896.3,2038.31l.64-.04c1.75-.12,3.27,1.2,3.39,2.95.12,1.74-1.2,3.26-2.94,3.38l-.64.05c-1.75.13-3.27-1.19-3.4-2.94s1.19-3.27,2.94-3.4h.02Z"/>
        <circle class="cls-116" cx="1958.95" cy="2036.31" r="3.07"/>
        <path class="cls-167" d="M2013.29,2027.53l.63-.07c1.63-.19,3.11.98,3.3,2.61.19,1.63-.98,3.1-2.6,3.29l-.63.08c-1.63.2-3.11-.97-3.31-2.6-.2-1.63.97-3.11,2.6-3.31h.02Z"/>
        <path class="cls-269" d="M2075.75,2025.26c-1.58,0-2.87-1.28-2.87-2.87s1.28-2.87,2.87-2.87,2.87,1.28,2.87,2.87-1.28,2.87-2.87,2.87Z"/>
        <path class="cls-219" d="M2129.65,2011.23l.62-.1c1.51-.25,2.94.78,3.18,2.29.25,1.5-.77,2.93-2.27,3.18l-.62.11c-1.51.26-2.94-.76-3.2-2.27s.76-2.94,2.27-3.2h.02Z"/>
        <path class="cls-85" d="M2191.74,2005.54c-1.47,0-2.67-1.19-2.67-2.67s1.19-2.67,2.67-2.67,2.67,1.19,2.67,2.67-1.19,2.67-2.67,2.67Z"/>
        <path class="cls-247" d="M2245.07,1989.27l.61-.13c1.39-.3,2.75.58,3.05,1.97.3,1.38-.58,2.74-1.96,3.05l-.61.14c-1.39.31-2.76-.57-3.07-1.95-.31-1.39.57-2.76,1.95-3.07h.01Z"/>
        <circle class="cls-279" cx="2306.61" cy="1977.58" r="2.46"/>
        <path class="cls-72" d="M2359.21,1961.43l.6-.16c1.26-.34,2.56.4,2.9,1.66.34,1.26-.4,2.55-1.65,2.9l-.6.17c-1.26.35-2.57-.39-2.92-1.65-.35-1.26.39-2.57,1.65-2.92h.01Z"/>
        <path class="cls-252" d="M2419.99,1948.56c-1.25,0-2.26-1.01-2.26-2.26s1.01-2.26,2.26-2.26,2.26,1.01,2.26,2.26-1.01,2.26-2.26,2.26Z"/>
        <path class="cls-3" d="M2471.69,1927.48l.58-.19c1.13-.38,2.36.24,2.74,1.37.38,1.13-.23,2.35-1.36,2.73l-.58.2c-1.13.38-2.36-.23-2.75-1.36-.38-1.13.23-2.36,1.36-2.75h.01Z"/>
        <path class="cls-234" d="M2531.44,1910.81c-1.14,0-2.06-.92-2.06-2.06s.92-2.06,2.06-2.06,2.06.92,2.06,2.06-.92,2.06-2.06,2.06Z"/>
        <path class="cls-207" d="M2582.02,1887.13l.56-.23c1.01-.4,2.15.09,2.55,1.09.4,1-.09,2.14-1.08,2.55l-.56.23c-1,.41-2.15-.08-2.56-1.08s.08-2.15,1.08-2.56h.01Z"/>
        <circle class="cls-165" cx="2640.43" cy="1864.62" r="1.86"/>
        <path class="cls-87" d="M2689.63,1840.02l.54-.26c.88-.42,1.93-.05,2.35.83.42.87.05,1.92-.82,2.34l-.54.26c-.88.42-1.93.06-2.35-.82-.42-.88-.06-1.93.82-2.35h0Z"/>
        <path class="cls-288" d="M2746.32,1815.16c-.91,0-1.65-.74-1.65-1.65s.74-1.65,1.65-1.65,1.65.74,1.65,1.65-.74,1.65-1.65,1.65Z"/>
        <path class="cls-171" d="M2793.78,1785.71l.87-.49c.75-.43,1.7-.17,2.12.58.43.75.17,1.7-.58,2.12l-.87.5c-.75.43-1.7.17-2.13-.58-.43-.75-.17-1.7.58-2.13h0Z"/>
        <path class="cls-109" d="M2848.6,1756.16c-.8,0-1.45-.65-1.45-1.45s.65-1.45,1.45-1.45,1.45.65,1.45,1.45-.65,1.45-1.45,1.45Z"/>
        <path class="cls-282" d="M2893.85,1723.46l.83-.56c.62-.42,1.46-.26,1.88.36.42.62.27,1.46-.35,1.88l-.83.57c-.62.42-1.46.27-1.89-.35s-.27-1.46.35-1.89h0Z"/>
        <path class="cls-239" d="M2945.79,1689.1c-.69,0-1.25-.56-1.25-1.25s.56-1.25,1.25-1.25,1.25.56,1.25,1.25-.56,1.25-1.25,1.25Z"/>
        <path class="cls-173" d="M2988.22,1652.87l.77-.64c.49-.41,1.22-.34,1.62.15s.34,1.22-.15,1.62l-.77.64c-.49.41-1.22.34-1.62-.15-.41-.49-.34-1.22.15-1.63h0Z"/>
        <path class="cls-160" d="M3036.4,1613.37c-.58,0-1.05-.47-1.05-1.05s.47-1.05,1.05-1.05,1.05.47,1.05,1.05-.47,1.05-1.05,1.05Z"/>
        <path class="cls-264" d="M3075.16,1573.33l.7-.71c.37-.38.97-.38,1.34-.02.38.37.38.97.02,1.34l-.7.72c-.37.38-.97.39-1.35.02-.38-.37-.38-.97-.02-1.35h0Z"/>
        <circle class="cls-159" cx="3118.42" cy="1527.57" r=".84"/>
        <path class="cls-2" d="M3152.4,1484.35l.6-.79c.25-.33.72-.39,1.05-.14s.39.72.14,1.05l-.6.8c-.25.33-.72.4-1.05.15-.33-.25-.4-.72-.15-1.05h0Z"/>
        <circle class="cls-134" cx="3189.19" cy="1433.26" r=".64"/>
        <path class="cls-198" d="M3216.95,1385.8l.48-.88c.14-.26.48-.36.74-.21s.36.48.22.74l-.48.88c-.15.27-.48.36-.74.22-.26-.15-.36-.48-.22-.74h0Z"/>
        <path class="cls-164" d="M3245.39,1330.07c-.24,0-.44-.2-.44-.44s.2-.44.44-.44.44.2.44.44-.2.44-.44.44Z"/>
        <path class="cls-6" d="M3265.24,1278.36l.33-.95c.06-.18.26-.27.44-.21s.27.26.21.44l-.33.95c-.06.18-.26.28-.44.21-.18-.06-.28-.26-.21-.44h0Z"/>
        <path class="cls-229" d="M3283.32,1218.28c-.13,0-.24-.11-.24-.24s.11-.24.24-.24.24.11.24.24-.11.24-.24.24Z"/>
        <path class="cls-51" d="M3293.68,1164.05l.15-.98c.01-.08.08-.13.16-.12.08.01.13.08.12.16l-.14.98c-.01.08-.08.13-.16.12-.08-.01-.13-.08-.12-.16h0Z"/>
        <path class="cls-189" d="M3299.84,1101.43s-.03-.02-.03-.03.02-.03.03-.03c.02,0,.03.02.03.03s-.01.03-.03.03Z"/>
      </g>
      <g>
        <circle class="cls-248" cx="3418.92" cy="1074.65" r="14"/>
        <path class="cls-192" d="M3430.58,1130.7l-.08,1.01c-.63,7.66-7.35,13.35-15.01,12.72-7.66-.63-13.35-7.35-12.72-15.01v.02s.08-.97.08-.97v-.02c.61-7.66,7.31-13.38,14.97-12.77,7.66.61,13.38,7.31,12.77,14.97v.04Z"/>
        <path class="cls-27" d="M3408.79,1205.87c-7.63,0-13.81-6.18-13.81-13.81s6.18-13.81,13.81-13.81,13.81,6.18,13.81,13.81-6.18,13.81-13.81,13.81Z"/>
        <path class="cls-114" d="M3410.55,1249.23l-.25.98c-1.89,7.34-9.38,11.75-16.72,9.86-7.34-1.9-11.75-9.38-9.86-16.72v.02s.24-.95.24-.95v-.02c1.88-7.35,9.35-11.78,16.69-9.91,7.35,1.87,11.78,9.34,9.91,16.69v.04Z"/>
        <path class="cls-121" d="M3378.99,1319.73c-7.53,0-13.63-6.1-13.63-13.63s6.1-13.63,13.63-13.63,13.63,6.1,13.63,13.63-6.1,13.63-13.63,13.63Z"/>
        <path class="cls-15" d="M3371.33,1362.69l-.41.93c-3,6.85-10.98,9.98-17.83,6.98s-9.98-10.98-6.98-17.83v.02s.38-.9.38-.9v-.02c2.98-6.86,10.95-10.01,17.81-7.04,6.86,2.97,10.01,10.95,7.04,17.81l-.02.04Z"/>
        <circle class="cls-101" cx="3331.54" cy="1414.01" r="13.44"/>
        <path class="cls-140" d="M3315.52,1468.72l-.53.86c-3.89,6.27-12.12,8.19-18.38,4.31-6.27-3.89-8.19-12.12-4.31-18.38v.02s.5-.84.5-.84h0c3.87-6.29,12.09-8.25,18.37-4.38s8.23,12.09,4.37,18.37l-.02.04Z"/>
        <path class="cls-190" d="M3269.21,1527.36c-7.32,0-13.25-5.93-13.25-13.25s5.93-13.25,13.25-13.25,13.25,5.93,13.25,13.25-5.93,13.25-13.25,13.25Z"/>
        <path class="cls-131" d="M3246.15,1566.13l-.64.79c-4.58,5.65-12.86,6.52-18.51,1.95-5.65-4.57-6.52-12.86-1.95-18.51l-.02.02.62-.77h0c4.56-5.68,12.84-6.57,18.51-2.02,5.67,4.56,6.56,12.85,2.01,18.51l-.03.03Z"/>
        <path class="cls-38" d="M3194.89,1618.74c-7.22,0-13.07-5.85-13.07-13.07s5.85-13.07,13.07-13.07,13.07,5.85,13.07,13.07-5.85,13.07-13.07,13.07Z"/>
        <path class="cls-244" d="M3166.02,1654.6l-.72.71c-5.09,5.05-13.31,5.01-18.35-.08-5.05-5.09-5.01-13.31.08-18.35l-.02.02.7-.7h0c5.07-5.07,13.29-5.06,18.35.01,5.06,5.07,5.05,13.29-.02,18.35l-.03.03Z"/>
        <path class="cls-94" d="M3111.06,1701.52c-7.11,0-12.88-5.77-12.88-12.88s5.77-12.88,12.88-12.88,12.88,5.77,12.88,12.88-5.77,12.88-12.88,12.88Z"/>
        <path class="cls-251" d="M3077.44,1734.34l-.78.64c-5.47,4.47-13.52,3.67-18-1.8-4.47-5.47-3.67-13.52,1.8-18l-.02.02.76-.63h0c5.45-4.5,13.51-3.72,18.01,1.73,4.49,5.45,3.71,13.51-1.74,18.01l-.03.03Z"/>
        <path class="cls-220" d="M3019.74,1776c-7.01,0-12.69-5.68-12.69-12.69s5.68-12.69,12.69-12.69,12.69,5.68,12.69,12.69-5.68,12.69-12.69,12.69Z"/>
        <path class="cls-25" d="M2982.23,1805.76l-.83.57c-5.74,3.94-13.58,2.49-17.53-3.25s-2.49-13.58,3.25-17.52l-.03.02.81-.56h0c5.72-3.97,13.58-2.54,17.54,3.19s2.53,13.58-3.19,17.54l-.03.02Z"/>
        <circle class="cls-177" cx="2922.5" cy="1830.08" r="12.5"/>
        <path class="cls-104" d="M2881.77,1869.36l-.87.51c-5.93,3.45-13.53,1.45-16.98-4.48s-1.45-13.53,4.48-16.98l-.03.02.85-.5h0c5.92-3.47,13.52-1.49,17,4.42,3.47,5.92,1.49,13.52-4.43,16.99l-.03.02Z"/>
        <path class="cls-11" d="M2820.54,1901.75c-6.8,0-12.32-5.52-12.32-12.32s5.52-12.32,12.32-12.32,12.32,5.51,12.32,12.32-5.51,12.32-12.32,12.32Z"/>
        <path class="cls-65" d="M2777.13,1925.63l-.9.45c-6.05,3-13.39.52-16.39-5.53-3-6.05-.52-13.39,5.53-16.39h-.03s.89-.43.89-.43h0c6.04-3.02,13.39-.57,16.41,5.48,3.02,6.04.56,13.39-5.48,16.41l-.03.02Z"/>
        <circle class="cls-76" cx="2714.81" cy="1941.79" r="12.13"/>
        <path class="cls-110" d="M2669.15,1975l-.93.39c-6.13,2.58-13.19-.3-15.77-6.43-2.58-6.13.3-13.19,6.43-15.77h-.03s.91-.38.91-.38h0c6.12-2.6,13.19.26,15.79,6.38,2.6,6.12-.26,13.19-6.38,15.79h-.04Z"/>
        <path class="cls-4" d="M2606.06,1999.47c-6.6,0-11.94-5.35-11.94-11.94s5.35-11.94,11.94-11.94,11.94,5.35,11.94,11.94-5.35,11.94-11.94,11.94Z"/>
        <path class="cls-41" d="M2558.49,2017.85l-.95.34c-6.17,2.19-12.95-1.04-15.14-7.21-2.19-6.17,1.04-12.95,7.21-15.14h-.03s.94-.32.94-.32h0c6.17-2.21,12.95,1,15.16,7.16,2.21,6.17-1,12.95-7.16,15.16h-.04Z"/>
        <path class="cls-174" d="M2494.87,2038.74c-6.49,0-11.76-5.26-11.76-11.76s5.26-11.76,11.76-11.76,11.76,5.26,11.76,11.76-5.26,11.76-11.76,11.76Z"/>
        <path class="cls-172" d="M2445.68,2054.49l-.96.28c-6.18,1.83-12.67-1.7-14.5-7.88-1.83-6.18,1.7-12.67,7.88-14.5h-.03s.95-.27.95-.27c6.17-1.85,12.68,1.66,14.53,7.83s-1.66,12.68-7.83,14.53h-.04Z"/>
        <path class="cls-88" d="M2381.73,2072c-6.39,0-11.57-5.18-11.57-11.57s5.18-11.57,11.57-11.57,11.57,5.18,11.57,11.57-5.18,11.57-11.57,11.57Z"/>
        <path class="cls-231" d="M2331.15,2085.2l-.97.23c-6.16,1.49-12.37-2.31-13.85-8.47s2.28-12.36,8.44-13.85l.96-.24c6.16-1.51,12.38,2.26,13.89,8.42,1.51,6.16-2.26,12.38-8.42,13.89h-.04Z"/>
        <circle class="cls-161" cx="2267.03" cy="2088.11" r="11.38"/>
        <path class="cls-208" d="M2215.28,2110.19l-.99.19c-6.13,1.17-12.04-2.85-13.21-8.98s2.82-12.04,8.95-13.2l.98-.19c6.12-1.19,12.05,2.81,13.24,8.94s-2.81,12.05-8.94,13.24h-.04Z"/>
        <path class="cls-166" d="M2151.14,2121.41c-6.18,0-11.2-5.01-11.2-11.2s5.01-11.2,11.2-11.2,11.2,5.01,11.2,11.2-5.01,11.2-11.2,11.2Z"/>
        <path class="cls-92" d="M2098.38,2129.65l-.99.14c-6.07.87-11.7-3.36-12.56-9.43-.87-6.07,3.33-11.69,9.4-12.56l.98-.14c6.07-.89,11.71,3.31,12.6,9.39s-3.31,11.71-9.39,12.6h-.04Z"/>
        <path class="cls-61" d="M2034.33,2137.91c-6.08,0-11.01-4.93-11.01-11.01s4.93-11.01,11.01-11.01,11.01,4.93,11.01,11.01-4.93,11.01-11.01,11.01Z"/>
        <path class="cls-43" d="M1980.73,2143.73l-1,.1c-6,.58-11.34-3.81-11.92-9.82-.58-6,3.78-11.34,9.79-11.92l.99-.1c6-.6,11.36,3.77,11.96,9.78.6,6-3.77,11.36-9.78,11.96h-.04Z"/>
        <circle class="cls-57" cx="1916.89" cy="2138.3" r="10.82"/>
        <path class="cls-91" d="M1862.59,2152.56l-1,.05c-5.92.31-10.97-4.24-11.28-10.16-.31-5.92,4.21-10.97,10.13-11.28l.99-.06c5.92-.33,10.99,4.2,11.32,10.12.33,5.92-4.2,10.99-10.12,11.32h-.04Z"/>
        <path class="cls-79" d="M1799.07,2155.17c-5.87,0-10.64-4.76-10.64-10.64s4.76-10.64,10.64-10.64,10.64,4.76,10.64,10.64-4.76,10.64-10.64,10.64Z"/>
        <path class="cls-183" d="M1744.2,2156.25h-1c-5.83.06-10.59-4.61-10.65-10.44-.06-5.82,4.59-10.59,10.42-10.65h.99c5.83-.09,10.61,4.57,10.69,10.4s-4.59,10.61-10.41,10.69h-.04Z"/>
        <circle class="cls-240" cx="1681.08" cy="2145.69" r="10.45"/>
        <path class="cls-227" d="M1625.77,2154.87l-.64-.02c-5.72-.2-10.2-4.99-10-10.71s4.94-10.2,10.66-10l.63.02c5.72.17,10.22,4.94,10.06,10.66-.17,5.72-4.94,10.22-10.66,10.06h-.05Z"/>
        <path class="cls-237" d="M1563.52,2152.09c-5.67,0-10.26-4.59-10.26-10.26s4.59-10.26,10.26-10.26,10.26,4.59,10.26,10.26-4.59,10.26-10.26,10.26Z"/>
        <path class="cls-100" d="M1507.87,2148.42l-.64-.05c-5.6-.43-9.79-5.33-9.36-10.93s5.28-9.79,10.88-9.36l.63.05c5.6.41,9.82,5.28,9.41,10.88-.41,5.6-5.28,9.82-10.88,9.42h-.05Z"/>
        <circle class="cls-23" cx="1446.23" cy="2132.86" r="10.08"/>
        <path class="cls-213" d="M1390.37,2136.81l-.63-.08c-5.47-.67-9.37-5.65-8.7-11.13.67-5.46,5.62-9.34,11.08-8.71l.62.07c5.48.64,9.4,5.6,8.76,11.08-.64,5.48-5.6,9.4-11.08,8.76h-.05Z"/>
        <circle class="cls-206" cx="1329.46" cy="2118.7" r="9.89"/>
        <path class="cls-195" d="M1273.5,2119.94l-.62-.1c-5.34-.9-8.93-5.96-8.03-11.3.9-5.32,5.93-8.91,11.25-8.04l.62.1c5.34.87,8.96,5.91,8.09,11.26-.87,5.34-5.91,8.96-11.26,8.09h-.05Z"/>
        <path class="cls-284" d="M1213.47,2108.93c-5.36,0-9.7-4.34-9.7-9.7s4.34-9.7,9.7-9.7,9.7,4.34,9.7,9.7-4.34,9.7-9.7,9.7Z"/>
        <path class="cls-271" d="M1157.55,2097.66l-.61-.13c-5.19-1.13-8.48-6.25-7.34-11.44,1.13-5.17,6.22-8.45,11.4-7.35l.61.13c5.19,1.1,8.51,6.21,7.41,11.4-1.1,5.19-6.21,8.51-11.4,7.41h-.05Z"/>
        <path class="cls-68" d="M1098.52,2083.81c-5.25,0-9.52-4.26-9.52-9.51s4.26-9.52,9.52-9.52,9.52,4.26,9.52,9.52-4.26,9.51-9.52,9.51Z"/>
        <path class="cls-169" d="M1042.79,2069.82l-.6-.16c-5.03-1.36-8-6.53-6.64-11.56,1.35-5.01,6.5-7.98,11.52-6.65l.59.16c5.03,1.33,8.04,6.49,6.7,11.52-1.33,5.03-6.49,8.04-11.53,6.7h-.05Z"/>
        <path class="cls-28" d="M984.96,2053.05c-5.15,0-9.33-4.18-9.33-9.33s4.18-9.33,9.33-9.33,9.33,4.18,9.33,9.33-4.18,9.33-9.33,9.33Z"/>
        <path class="cls-90" d="M929.58,2036.22l-.58-.19c-4.85-1.58-7.5-6.8-5.91-11.65,1.58-4.83,6.77-7.48,11.61-5.93l.58.19c4.86,1.56,7.54,6.76,5.98,11.62-1.56,4.86-6.76,7.54-11.62,5.98l-.05-.02Z"/>
        <circle class="cls-78" cx="873.14" cy="2007.3" r="9.14"/>
        <path class="cls-273" d="M818.31,1996.64l-.57-.22c-4.66-1.81-6.97-7.06-5.16-11.72,1.81-4.64,7.03-6.95,11.68-5.17l.56.22c4.67,1.79,7.01,7.02,5.22,11.69-1.79,4.67-7.02,7.01-11.69,5.22l-.05-.02Z"/>
        <path class="cls-145" d="M763.5,1973.73c-4.95,0-8.95-4.01-8.95-8.95s4.01-8.95,8.95-8.95,8.95,4.01,8.95,8.95-4.01,8.95-8.95,8.95Z"/>
        <path class="cls-270" d="M709.45,1950.78l-.54-.25c-4.45-2.04-6.41-7.3-4.37-11.75,2.03-4.44,7.27-6.39,11.71-4.38l.54.24c4.46,2.02,6.45,7.27,4.43,11.73s-7.27,6.45-11.73,4.43l-.05-.02Z"/>
        <circle class="cls-62" cx="656.58" cy="1915.85" r="8.77"/>
        <path class="cls-265" d="M603.59,1898.32l-.52-.28c-4.22-2.27-5.8-7.54-3.53-11.76,2.26-4.21,7.5-5.79,11.72-3.55l.52.27c4.23,2.25,5.84,7.5,3.6,11.74s-7.5,5.84-11.74,3.6l-.04-.02Z"/>
        <circle class="cls-49" cx="553.04" cy="1860.17" r="8.58"/>
        <path class="cls-20" d="M501.46,1838.89l-.85-.54c-3.97-2.5-5.15-7.75-2.65-11.71,2.5-3.97,7.75-5.15,11.71-2.65h-.02s.84.52.84.52h0c3.97,2.49,5.18,7.74,2.69,11.71-2.49,3.97-7.73,5.18-11.71,2.69h-.02Z"/>
        <path class="cls-222" d="M453.33,1805.49c-4.64,0-8.39-3.76-8.39-8.39s3.76-8.39,8.39-8.39,8.39,3.76,8.39,8.39-3.76,8.39-8.39,8.39Z"/>
        <path class="cls-14" d="M403.64,1771.77l-.81-.6c-3.67-2.75-4.43-7.95-1.68-11.62,2.75-3.67,7.95-4.43,11.62-1.68h-.02s.8.58.8.58h0c3.68,2.74,4.45,7.94,1.72,11.62-2.73,3.68-7.94,4.45-11.62,1.72l-.02-.02Z"/>
        <path class="cls-59" d="M358.92,1734.57c-4.53,0-8.21-3.67-8.21-8.21s3.67-8.21,8.21-8.21,8.21,3.67,8.21,8.21-3.67,8.21-8.21,8.21Z"/>
        <path class="cls-221" d="M311.69,1696.71l-.75-.67c-3.34-2.99-3.62-8.12-.63-11.46s8.12-3.62,11.46-.63h-.01s.74.65.74.65h0c3.35,2.98,3.65,8.12.67,11.47-2.98,3.35-8.11,3.65-11.46.67l-.02-.02Z"/>
        <circle class="cls-257" cx="271.18" cy="1647.52" r="8.02"/>
        <path class="cls-30" d="M227.2,1613.25l-.68-.74c-2.95-3.24-2.72-8.25.52-11.2s8.25-2.72,11.21.52h-.01s.67.72.67.72h0c2.96,3.23,2.75,8.25-.48,11.21-3.23,2.96-8.25,2.75-11.21-.48l-.02-.02Z"/>
        <path class="cls-223" d="M191.9,1568.03c-4.33,0-7.83-3.51-7.83-7.83s3.51-7.83,7.83-7.83,7.83,3.51,7.83,7.83-3.51,7.83-7.83,7.83Z"/>
        <path class="cls-255" d="M152.17,1521.08l-.59-.82c-2.5-3.47-1.71-8.31,1.77-10.81,3.47-2.5,8.31-1.71,10.81,1.77h0s.58.79.58.79h0c2.51,3.47,1.73,8.31-1.73,10.82-3.47,2.51-8.31,1.73-10.82-1.73v-.02Z"/>
        <path class="cls-268" d="M123.33,1471.9c-4.22,0-7.65-3.42-7.65-7.65s3.42-7.65,7.65-7.65,7.65,3.42,7.65,7.65-3.42,7.65-7.65,7.65Z"/>
        <path class="cls-33" d="M89.13,1420.23l-.47-.89c-1.96-3.68-.57-8.26,3.11-10.23,3.68-1.96,8.26-.57,10.23,3.11h0s.47.86.47.86h0c1.98,3.69.6,8.27-3.08,10.24-3.68,1.98-8.26.6-10.24-3.08v-.02Z"/>
        <circle class="cls-249" cx="68.2" cy="1360.03" r="7.46"/>
        <path class="cls-52" d="M40.97,1311.38l-.34-.96c-1.35-3.84.66-8.05,4.5-9.4,3.84-1.35,8.05.66,9.4,4.5h0s.33.92.33.92h0c1.37,3.84-.63,8.06-4.47,9.43s-8.05-.63-9.42-4.47v-.02Z"/>
        <path class="cls-256" d="M29.4,1255.98c-4.02,0-7.27-3.26-7.27-7.27s3.26-7.27,7.27-7.27,7.27,3.26,7.27,7.27-3.26,7.27-7.27,7.27Z"/>
        <path class="cls-250" d="M10.57,1196.25l-.17-.99c-.69-3.91,1.92-7.63,5.83-8.32,3.91-.69,7.63,1.92,8.32,5.83h0s.17.96.17.96h0c.7,3.92-1.9,7.65-5.81,8.35s-7.64-1.9-8.34-5.81v-.02Z"/>
        <path class="cls-236" d="M9.44,1139.64c-3.91,0-7.09-3.17-7.09-7.09s3.17-7.09,7.09-7.09,7.09,3.17,7.09,7.09-3.17,7.09-7.09,7.09Z"/>
        <path class="cls-84" d="M0,1077.64v-1.01c-.01-3.86,3.12-7,6.98-7.01s7,3.12,7.01,6.98h0s0,.98,0,.98h0c.02,3.88-3.1,7.02-6.96,7.04S.02,1081.53,0,1077.67v-.02Z"/>
        <path class="cls-196" d="M9.62,1021.59c-3.81,0-6.9-3.09-6.9-6.9s3.09-6.9,6.9-6.9,6.9,3.09,6.9,6.9-3.09,6.9-6.9,6.9Z"/>
        <path class="cls-97" d="M9.91,959.02l.17-.99c.64-3.71,4.16-6.2,7.86-5.56s6.2,4.16,5.56,7.86h0s-.16.96-.16.96h0c-.62,3.72-4.14,6.22-7.85,5.6-3.71-.62-6.21-4.14-5.59-7.85v-.02Z"/>
        <circle class="cls-276" cx="29.92" cy="898.59" r="6.71"/>
        <path class="cls-278" d="M39.68,843.82l.33-.95c1.2-3.45,4.98-5.28,8.44-4.07,3.45,1.2,5.28,4.98,4.07,8.43h0s-.32.92-.32.92h0c-1.19,3.47-4.97,5.3-8.42,4.11s-5.29-4.97-4.1-8.42v-.02Z"/>
        <path class="cls-82" d="M69.02,793.92c-3.6,0-6.52-2.92-6.52-6.52s2.92-6.53,6.52-6.53,6.53,2.92,6.53,6.53-2.92,6.52-6.53,6.52Z"/>
        <path class="cls-141" d="M87.29,734.9l.47-.89c1.66-3.14,5.56-4.34,8.7-2.67,3.14,1.66,4.34,5.56,2.68,8.7h0s-.46.86-.46.86h0c-1.65,3.15-5.55,4.36-8.69,2.71-3.15-1.65-4.36-5.55-2.7-8.69v-.02Z"/>
        <path class="cls-18" d="M124.41,689.65c-3.5,0-6.34-2.84-6.34-6.34s2.84-6.34,6.34-6.34,6.34,2.84,6.34,6.34-2.84,6.34-6.34,6.34Z"/>
        <path class="cls-40" d="M149.88,633.97l.58-.82c2.01-2.81,5.91-3.45,8.72-1.44s3.45,5.91,1.44,8.72h0s-.57.8-.57.8h0c-2,2.82-5.9,3.48-8.72,1.48-2.81-2-3.47-5.9-1.47-8.72v-.02Z"/>
        <path class="cls-289" d="M193.17,593.67c-3.4,0-6.15-2.75-6.15-6.15s2.75-6.15,6.15-6.15,6.15,2.75,6.15,6.15-2.75,6.15-6.15,6.15Z"/>
        <path class="cls-128" d="M224.53,541.74l.68-.74c2.25-2.48,6.09-2.66,8.56-.41,2.48,2.25,2.66,6.09.41,8.56h0s-.67.73-.67.73h0c-2.25,2.49-6.08,2.68-8.57.44-2.48-2.25-2.68-6.08-.43-8.57h.01Z"/>
        <path class="cls-135" d="M272.62,506.31c-3.29,0-5.96-2.67-5.96-5.96s2.67-5.96,5.96-5.96,5.96,2.67,5.96,5.96-2.67,5.96-5.96,5.96Z"/>
        <path class="cls-184" d="M308.71,458.26l.75-.67c2.42-2.17,6.13-1.96,8.3.45s1.98,6.12-.44,8.29l-.74.67c-2.41,2.18-6.12,1.99-8.3-.42-2.18-2.41-1.99-6.12.42-8.3l.02-.02Z"/>
        <path class="cls-170" d="M360.48,427.43c-3.19,0-5.78-2.59-5.78-5.78s2.59-5.78,5.78-5.78,5.78,2.59,5.78,5.78-2.59,5.78-5.78,5.78Z"/>
        <path class="cls-154" d="M400.38,383.22l.8-.6c2.52-1.88,6.08-1.37,7.96,1.15s1.38,6.07-1.14,7.95l-.79.6c-2.51,1.89-6.08,1.39-7.97-1.12-1.89-2.51-1.39-6.08,1.12-7.97h.02Z"/>
        <path class="cls-12" d="M454.98,356.65c-3.09,0-5.59-2.5-5.59-5.59s2.5-5.59,5.59-5.59,5.59,2.5,5.59,5.59-2.5,5.59-5.59,5.59Z"/>
        <path class="cls-50" d="M497.96,316.15l.85-.53c2.57-1.62,5.97-.85,7.59,1.72s.87,5.96-1.7,7.58l-.84.53c-2.56,1.63-5.97.88-7.6-1.69-1.63-2.56-.88-5.97,1.69-7.6h.02Z"/>
        <path class="cls-73" d="M554.76,293.52c-2.98,0-5.4-2.42-5.4-5.4s2.42-5.4,5.4-5.4,5.4,2.42,5.4,5.4-2.42,5.4-5.4,5.4Z"/>
        <path class="cls-138" d="M600.23,256.59l.88-.47c2.59-1.39,5.81-.42,7.2,2.17s.43,5.8-2.16,7.19l-.88.47c-2.58,1.4-5.81.44-7.21-2.15s-.44-5.81,2.15-7.21h.02Z"/>
        <path class="cls-155" d="M658.73,237.59c-2.88,0-5.22-2.34-5.22-5.22s2.34-5.22,5.22-5.22,5.22,2.34,5.22,5.22-2.34,5.22-5.22,5.22Z"/>
        <path class="cls-115" d="M706.26,204.08l.91-.42c2.58-1.18,5.62-.04,6.79,2.54,1.17,2.58.05,5.61-2.53,6.79l-.91.42c-2.57,1.19-5.62.06-6.81-2.51-1.19-2.57-.06-5.62,2.51-6.81h.02Z"/>
        <path class="cls-201" d="M766.08,188.46c-2.78,0-5.03-2.25-5.03-5.03s2.25-5.03,5.03-5.03,5.03,2.25,5.03,5.03-2.25,5.03-5.03,5.03Z"/>
        <path class="cls-238" d="M815.29,158.23l.93-.36c2.55-.98,5.41.28,6.39,2.83.98,2.55-.27,5.4-2.82,6.38l-.93.36c-2.54.99-5.41-.26-6.4-2.81-.99-2.54.26-5.41,2.81-6.4h.02Z"/>
        <path class="cls-106" d="M876.14,145.77c-2.67,0-4.84-2.17-4.84-4.84s2.17-4.84,4.84-4.84,4.84,2.17,4.84,4.84-2.17,4.84-4.84,4.84Z"/>
        <path class="cls-48" d="M926.74,118.71l.95-.31c2.5-.81,5.18.56,5.99,3.06.81,2.5-.55,5.17-3.05,5.98l-.94.31c-2.5.82-5.18-.54-6-3.04-.82-2.5.54-5.18,3.04-6h.02Z"/>
        <circle class="cls-113" cx="988.38" cy="104.56" r="4.66"/>
        <path class="cls-1" d="M1040.12,85.22l.96-.26c2.44-.65,4.94.8,5.59,3.23.65,2.44-.78,4.94-3.22,5.59l-.96.26c-2.44.66-4.95-.78-5.61-3.21-.66-2.44.78-4.95,3.21-5.61h.02Z"/>
        <circle class="cls-93" cx="1102.36" cy="74.07" r="4.47"/>
        <path class="cls-228" d="M1155.04,57.52l.98-.21c2.37-.51,4.7,1,5.2,3.36.51,2.37-.99,4.69-3.35,5.2l-.97.21c-2.36.52-4.7-.98-5.22-3.34s.98-4.7,3.34-5.22h.02Z"/>
        <path class="cls-214" d="M1217.7,53.53c-2.37,0-4.28-1.92-4.28-4.28s1.92-4.28,4.28-4.28,4.28,1.92,4.28,4.28-1.92,4.28-4.28,4.28Z"/>
        <path class="cls-187" d="M1271.15,35.43l.99-.16c2.29-.38,4.44,1.17,4.82,3.45.38,2.28-1.16,4.44-3.44,4.82l-.98.17c-2.28.39-4.45-1.15-4.84-3.44-.39-2.28,1.15-4.45,3.44-4.84h.01Z"/>
        <path class="cls-262" d="M1334.1,34.02c-2.26,0-4.1-1.83-4.1-4.1s1.83-4.1,4.1-4.1,4.1,1.83,4.1,4.1-1.83,4.1-4.1,4.1Z"/>
        <path class="cls-151" d="M1388.14,18.77l.99-.12c2.2-.26,4.19,1.31,4.45,3.51.26,2.2-1.3,4.19-3.49,4.45l-.99.12c-2.2.27-4.2-1.29-4.47-3.49-.27-2.2,1.29-4.2,3.49-4.47h.01Z"/>
        <path class="cls-66" d="M1451.25,19.85c-2.16,0-3.91-1.75-3.91-3.91s1.75-3.91,3.91-3.91,3.91,1.75,3.91,3.91-1.75,3.91-3.91,3.91Z"/>
        <path class="cls-147" d="M1505.76,7.4l1-.07c2.1-.16,3.94,1.42,4.09,3.53.16,2.1-1.41,3.94-3.52,4.09l-1,.08c-2.1.16-3.94-1.41-4.11-3.51s1.41-3.94,3.51-4.11h.01Z"/>
        <path class="cls-286" d="M1568.92,10.9c-2.06,0-3.72-1.67-3.72-3.72s1.67-3.72,3.72-3.72,3.72,1.67,3.72,3.72-1.67,3.72-3.72,3.72Z"/>
        <path class="cls-31" d="M1623.75,1.21l1-.03c2.01-.06,3.68,1.51,3.74,3.52.06,2.01-1.5,3.68-3.51,3.74l-1,.03c-2.01.07-3.69-1.5-3.76-3.51s1.5-3.69,3.51-3.76h.01Z"/>
        <path class="cls-118" d="M1686.85,7.07c-1.95,0-3.54-1.58-3.54-3.53s1.58-3.54,3.54-3.54,3.53,1.58,3.53,3.54-1.58,3.53-3.53,3.53Z"/>
        <path class="cls-199" d="M1741.89.11h.64c1.9.03,3.43,1.6,3.4,3.5-.02,1.9-1.57,3.43-3.47,3.4h-.64c-1.9-.02-3.44-1.58-3.42-3.48.01-1.9,1.57-3.44,3.47-3.42h.02Z"/>
        <circle class="cls-86" cx="1804.48" cy="4.93" r="3.35"/>
        <path class="cls-245" d="M1859.6,4.05l.64.04c1.8.1,3.17,1.64,3.07,3.44-.1,1.8-1.62,3.17-3.42,3.07l-.63-.03c-1.8-.09-3.18-1.62-3.09-3.42.09-1.8,1.62-3.18,3.42-3.09h.02Z"/>
        <path class="cls-26" d="M1921.93,14.53c-1.75,0-3.16-1.42-3.16-3.16s1.42-3.16,3.16-3.16,3.16,1.42,3.16,3.16-1.42,3.16-3.16,3.16Z"/>
        <path class="cls-99" d="M1977.02,13.08l.63.06c1.69.17,2.92,1.68,2.75,3.36-.17,1.68-1.67,2.91-3.35,2.75l-.63-.06c-1.69-.16-2.93-1.66-2.77-3.35.16-1.69,1.66-2.93,3.35-2.77h.02Z"/>
        <path class="cls-217" d="M2038.99,25.93c-1.64,0-2.97-1.33-2.97-2.97s1.33-2.97,2.97-2.97,2.97,1.33,2.97,2.97-1.33,2.97-2.97,2.97Z"/>
        <path class="cls-281" d="M2093.92,27.31l.62.09c1.58.23,2.67,1.69,2.44,3.27-.23,1.57-1.69,2.66-3.26,2.44l-.62-.09c-1.58-.22-2.68-1.68-2.46-3.26s1.68-2.68,3.26-2.46h.01Z"/>
        <path class="cls-112" d="M2155.4,42.58c-1.54,0-2.79-1.25-2.79-2.79s1.25-2.79,2.79-2.79,2.79,1.25,2.79,2.79-1.25,2.79-2.79,2.79Z"/>
        <path class="cls-137" d="M2210.04,46.85l.61.12c1.46.28,2.42,1.7,2.14,3.16-.28,1.46-1.69,2.41-3.15,2.14l-.61-.12c-1.47-.28-2.43-1.69-2.15-3.15.28-1.47,1.69-2.43,3.15-2.16h.01Z"/>
        <circle class="cls-81" cx="2270.9" cy="62.01" r="2.6"/>
        <path class="cls-224" d="M2325.1,71.86l.6.15c1.35.33,2.17,1.69,1.85,3.04-.33,1.34-1.68,2.17-3.02,1.85l-.6-.14c-1.35-.32-2.18-1.68-1.86-3.03.32-1.35,1.68-2.18,3.03-1.86h.01Z"/>
        <path class="cls-24" d="M2385.18,92.2c-1.33,0-2.41-1.08-2.41-2.41s1.08-2.41,2.41-2.41,2.41,1.08,2.41,2.41-1.08,2.41-2.41,2.41Z"/>
        <path class="cls-178" d="M2438.77,102.5l.59.18c1.23.37,1.93,1.66,1.56,2.89-.37,1.23-1.65,1.93-2.88,1.57l-.59-.17c-1.23-.36-1.94-1.65-1.58-2.89.36-1.23,1.65-1.94,2.89-1.58h.01Z"/>
        <path class="cls-254" d="M2497.91,125.52c-1.23,0-2.23-1-2.23-2.23s1-2.23,2.23-2.23,2.23,1,2.23,2.23-1,2.23-2.23,2.23Z"/>
        <path class="cls-60" d="M2550.7,138.98l.57.2c1.11.4,1.69,1.62,1.29,2.73-.4,1.11-1.61,1.69-2.72,1.3l-.57-.2c-1.12-.39-1.7-1.61-1.31-2.73.39-1.11,1.61-1.7,2.73-1.31h.01Z"/>
        <circle class="cls-153" cx="2608.68" cy="162.78" r="2.04"/>
        <path class="cls-197" d="M2660.44,181.57l.55.23c.99.42,1.46,1.56,1.04,2.56-.42.99-1.56,1.45-2.55,1.04l-.55-.23c-1-.41-1.47-1.56-1.05-2.55.41-1,1.56-1.47,2.55-1.05h.01Z"/>
        <circle class="cls-126" cx="2717.01" cy="208.51" r="1.85"/>
        <path class="cls-77" d="M2767.46,230.55l.53.26c.87.43,1.23,1.49.79,2.37-.43.87-1.49,1.23-2.36.8l-.53-.26c-.88-.43-1.24-1.49-.81-2.36.43-.88,1.49-1.24,2.36-.81h0Z"/>
        <path class="cls-152" d="M2822.31,262.48c-.92,0-1.67-.75-1.67-1.67s.75-1.67,1.67-1.67,1.67.75,1.67,1.67-.75,1.67-1.67,1.67Z"/>
        <path class="cls-22" d="M2871.12,286.27l.5.29c.75.44,1.01,1.41.57,2.16-.44.75-1.4,1-2.15.57l-.5-.29c-.76-.44-1.02-1.4-.58-2.16s1.4-1.02,2.16-.58h0Z"/>
        <path class="cls-70" d="M2923.85,321.55c-.82,0-1.48-.66-1.48-1.48s.66-1.48,1.48-1.48,1.48.66,1.48,1.48-.66,1.48-1.48,1.48Z"/>
        <path class="cls-280" d="M2970.59,349.14l.83.57c.63.43.79,1.3.36,1.93-.43.63-1.3.8-1.93.36l-.83-.56c-.64-.43-.8-1.3-.37-1.93s1.3-.8,1.93-.37h0Z"/>
        <path class="cls-162" d="M3021.03,388.25c-.71,0-1.29-.58-1.29-1.29s.58-1.29,1.29-1.29,1.29.58,1.29,1.29-.58,1.29-1.29,1.29Z"/>
        <path class="cls-67" d="M3065.14,419.86l.78.63c.51.42.59,1.18.17,1.69-.42.51-1.18.59-1.69.17l-.78-.63c-.52-.42-.6-1.18-.18-1.7.42-.52,1.18-.6,1.7-.18h0Z"/>
        <path class="cls-225" d="M3112.27,462.83c-.61,0-1.11-.49-1.11-1.11s.5-1.11,1.11-1.11,1.11.49,1.11,1.11-.5,1.11-1.11,1.11Z"/>
        <path class="cls-266" d="M3153.05,498.67l.71.7c.4.39.4,1.04,0,1.44-.4.4-1.04.4-1.44.01l-.71-.7c-.4-.39-.41-1.04-.01-1.44.39-.4,1.04-.41,1.44-.01h0Z"/>
        <path class="cls-74" d="M3195.99,545.74c-.51,0-.92-.41-.92-.92s.41-.92.92-.92.92.41.92.92-.41.92-.92.92Z"/>
        <path class="cls-230" d="M3232.54,585.95l.63.78c.29.36.24.88-.12,1.17-.36.29-.88.24-1.17-.12l-.63-.77c-.29-.35-.24-.88.12-1.17s.88-.24,1.17.12h0Z"/>
        <path class="cls-259" d="M3270.17,637.24c-.4,0-.73-.33-.73-.73s.33-.73.73-.73.73.33.73.73-.33.73-.73.73Z"/>
        <path class="cls-283" d="M3301.34,681.84l.53.85c.19.3.1.7-.21.89-.3.19-.7.1-.89-.2l-.53-.85c-.19-.3-.1-.7.2-.89.3-.19.7-.1.89.2h0Z"/>
        <path class="cls-181" d="M3332.3,737.27c-.3,0-.54-.24-.54-.55s.24-.54.54-.54.55.24.55.54-.24.55-.55.55Z"/>
        <path class="cls-216" d="M3356.77,785.99l.4.92c.1.23,0,.5-.23.6s-.5,0-.6-.23l-.41-.91c-.1-.23,0-.5.23-.6.23-.1.5,0,.6.23h0Z"/>
        <path class="cls-204" d="M3379.54,845.1c-.2,0-.36-.16-.36-.36s.16-.36.36-.36.36.16.36.36-.16.36-.36.36Z"/>
        <path class="cls-180" d="M3395.92,897.25l.25.97c.04.14-.05.29-.19.33-.14.04-.29-.05-.33-.19l-.26-.96c-.04-.14.05-.29.19-.33.14-.04.29.05.33.19h0Z"/>
        <path class="cls-182" d="M3409.07,959.03c-.09,0-.17-.08-.17-.17s.08-.17.17-.17.17.08.17.17-.08.17-.17.17Z"/>
        <path class="cls-64" d="M3416.26,1013.37l.09.99s-.03.09-.08.09c-.05,0-.09-.03-.09-.07l-.09-.99s.03-.09.08-.09c.05,0,.09.03.09.08h0Z"/>
      </g>
    </g>
  </g>
</svg>