<?xml version="1.0" encoding="UTF-8"?>
<svg id="Layer_1" data-name="Layer 1" xmlns="http://www.w3.org/2000/svg" viewBox="0 0 1202.5 275.33">
  <defs>
    <style>
      .cls-1 {
        fill: #2f527b;
      }

      .cls-2 {
        fill: #3f3f3f;
      }

      .cls-3 {
        stroke: #231f20;
        stroke-miterlimit: 10;
      }

      .cls-3, .cls-4 {
        fill: #fff;
      }

      .cls-5 {
        fill: #b92027;
      }

      .cls-6 {
        fill: #0b548e;
      }

      .cls-7 {
        fill: #c93a27;
      }

      .cls-8 {
        fill: #113559;
      }

      .cls-9 {
        fill: #292929;
      }

      .cls-10 {
        fill: #3ebae9;
      }
    </style>
  </defs>
  <polygon class="cls-3" points="108.55 200.22 37.83 169.27 51.09 85.29 108.55 120.65 108.55 200.22"/>
  <polygon class="cls-3" points="133.79 83.98 63.06 53.04 126.23 5.72 188.12 58.77 133.79 83.98"/>
  <polygon class="cls-3" points="161.6 204.64 148.34 125.07 210.22 80.87 223.48 160.43 161.6 204.64"/>
  <polygon class="cls-2" points="857.07 54.53 867.47 54.53 867.47 81.42 888.4 81.42 888.4 90.42 867.47 90.42 867.47 162.24 857.07 162.24 857.07 90.42 835.17 90.42 835.17 81.42 857.07 81.42 857.07 54.53"/>
  <polygon class="cls-9" points="598.82 163.62 598.82 54.74 673.46 54.74 673.46 73.15 620.79 73.15 620.79 98.94 666.26 98.94 666.26 117.33 620.79 117.33 620.79 163.62 598.82 163.62"/>
  <rect class="cls-9" x="690.91" y="54.74" width="22.01" height="108.89"/>
  <polygon class="cls-9" points="734.06 163.62 734.06 54.74 755.47 54.74 800.03 127.44 800.03 54.74 820.46 54.74 820.46 163.62 798.37 163.62 754.47 92.62 754.47 163.62 734.06 163.62"/>
  <path class="cls-2" d="M967.62,135.42l8.74,4.59c-2.87,5.66-6.19,10.21-9.94,13.69-3.78,3.45-8.03,6.1-12.73,7.88-4.71,1.83-10.04,2.72-15.99,2.72-13.18,0-23.48-4.32-30.93-12.97-7.42-8.63-11.17-18.38-11.17-29.3,0-10.24,3.18-19.37,9.47-27.4,7.98-10.2,18.65-15.29,32.04-15.29s24.77,5.23,32.99,15.68c5.85,7.37,8.82,16.57,8.94,27.62h-72.74c.19,9.38,3.2,17.07,9,23.08,5.79,6,12.98,9,21.53,9,4.07,0,8.1-.7,11.97-2.14,3.9-1.43,7.23-3.34,9.94-5.7,2.72-2.37,5.66-6.2,8.87-11.46M967.62,113.66h0c-1.42-5.55-3.44-9.97-6.07-13.3-2.67-3.32-6.17-5.99-10.53-8.02-4.36-2.02-8.94-3.03-13.78-3.03-7.92,0-14.75,2.53-20.44,7.64-4.16,3.7-7.31,9.28-9.43,16.72h60.25Z"/>
  <path class="cls-2" d="M1076.84,98.2l-8.21,5.14c-7.13-9.45-16.88-14.17-29.18-14.17-9.83,0-18,3.14-24.48,9.48-6.54,6.32-9.81,14.02-9.81,23.07,0,5.88,1.52,11.42,4.5,16.61,3,5.21,7.1,9.22,12.33,12.09,5.22,2.86,11.05,4.31,17.54,4.31,11.87,0,21.58-4.74,29.11-14.17l8.21,5.41c-3.86,5.82-9.03,10.33-15.55,13.54-6.51,3.19-13.9,4.8-22.24,4.8-12.79,0-23.39-4.06-31.78-12.19-8.43-8.1-12.62-17.98-12.62-29.61,0-7.84,1.96-15.1,5.88-21.81,3.96-6.71,9.35-11.95,16.23-15.7,6.87-3.78,14.6-5.66,23.11-5.66,5.34,0,10.51.84,15.46,2.45,5,1.64,9.24,3.77,12.67,6.39,3.47,2.62,6.43,5.98,8.85,10.02"/>
  <path class="cls-2" d="M1096.85,50.22h10.39v45.68c4.18-5.55,8.84-9.68,13.88-12.44,5.05-2.75,10.54-4.11,16.42-4.11s11.41,1.51,16.07,4.61c4.67,3.05,8.12,7.18,10.38,12.35,2.21,5.17,3.34,13.3,3.34,24.33v41.6h-10.4v-38.55c0-9.31-.37-15.53-1.12-18.64-1.29-5.36-3.63-9.37-7.02-12.08-3.38-2.7-7.82-4.05-13.33-4.05-6.28,0-11.91,2.08-16.88,6.24-4.99,4.15-8.28,9.31-9.84,15.45-.99,3.97-1.48,11.28-1.48,22v29.63h-10.39V50.22Z"/>
  <path class="cls-1" d="M411.76,96.53c3.75-.42,6.72-1.75,8.88-3.88,2.15-2.17,3.22-4.99,3.22-8.5s-.93-6.12-2.78-8.23c-1.85-2.1-4.62-3.4-8.29-3.82-2.18-.24-8.43-.38-18.78-.38h-12.64v25.17h14.42c8.57,0,13.87-.1,15.97-.37"/>
  <path class="cls-1" d="M418.62,116.6c-3.01-1.04-9.5-1.57-19.48-1.57h-17.77v29.12h20.36c7.92,0,12.93-.22,15.08-.69,3.27-.58,5.93-2.02,7.97-4.34,2.05-2.31,3.11-5.38,3.11-9.25,0-3.24-.82-6.03-2.39-8.31-1.59-2.29-3.88-3.93-6.88-4.97"/>
  <path class="cls-1" d="M286.98,187.83h290.01V28.35h-290.01v159.48ZM338.38,162.5h-21.99V53.61h21.99v108.89ZM447.15,145.37c-2.3,4.69-5.46,8.43-9.44,11.22-3.99,2.79-8.9,4.52-14.75,5.15-3.67.4-12.48.66-26.52.76h-37.07V53.6h43.54c8.62,0,15.04.36,19.28,1.08,4.23.71,8.01,2.21,11.35,4.5,3.36,2.27,6.14,5.3,8.38,9.09,2.2,3.78,3.33,8.02,3.33,12.75,0,5.08-1.38,9.76-4.13,14.02-2.75,4.25-6.46,7.46-11.17,9.57,6.64,1.95,11.74,5.25,15.3,9.89,3.57,4.66,5.34,10.13,5.34,16.42,0,4.95-1.16,9.76-3.44,14.43M546.92,148.31c-3.47,5.45-8.38,9.5-14.7,12.14-6.34,2.65-14.23,3.99-23.69,3.99-13.79,0-24.33-3.19-31.7-9.56-7.39-6.36-11.79-15.63-13.23-27.8l21.38-2.1c1.3,7.19,3.9,12.47,7.85,15.84,3.94,3.36,9.25,5.03,15.93,5.03,7.06,0,12.4-1.5,16-4.5,3.59-2.98,5.4-6.48,5.4-10.5,0-2.56-.76-4.76-2.28-6.56-1.51-1.82-4.14-3.39-7.9-4.72-2.59-.89-8.44-2.49-17.61-4.76-11.79-2.91-20.05-6.51-24.82-10.78-6.68-5.98-10.03-13.29-10.03-21.9,0-5.54,1.59-10.73,4.73-15.56,3.13-4.82,7.66-8.49,13.58-11.02,5.91-2.52,13.07-3.79,21.43-3.79,13.67,0,23.95,3,30.85,8.98,6.93,5.99,10.55,14,10.89,24l-21.98.98c-.92-5.59-2.97-9.65-6.03-12.08-3.13-2.44-7.75-3.68-13.93-3.68s-11.41,1.32-15.02,3.94c-2.32,1.68-3.48,3.94-3.48,6.77,0,2.55,1.08,4.76,3.26,6.6,2.77,2.31,9.5,4.76,20.21,7.28,10.69,2.52,18.61,5.12,23.72,7.82,5.12,2.71,9.14,6.38,12.04,11.07,2.9,4.69,4.34,10.48,4.34,17.36,0,6.25-1.72,12.1-5.2,17.52"/>
  <polygon class="cls-7" points="260.95 37.8 244.05 47.4 244.05 92.26 252.5 87.47 260.95 82.66 260.95 60.24 260.95 37.8"/>
  <polygon class="cls-5" points="260.82 38.28 243.88 47.79 205.47 24.62 213.94 19.86 222.4 15.11 241.62 26.69 260.82 38.28"/>
  <polygon class="cls-10" points="131.39 264.86 131.48 245.41 92.56 223.1 92.52 232.82 92.47 242.53 111.94 253.69 131.39 264.86"/>
  <polygon class="cls-6" points="131.05 264.51 131.22 245.08 170.44 223.3 170.35 233.01 170.26 242.73 150.65 253.62 131.05 264.51"/>
  <polygon class="cls-8" points="0 38.85 17.01 48.25 55.26 24.83 46.75 20.12 38.25 15.42 19.13 27.14 0 38.85"/>
  <polygon class="cls-10" points=".47 38.71 17.43 48.19 17.74 93.05 9.27 88.32 .78 83.57 .63 61.14 .47 38.71"/>
  <polygon class="cls-6" points="228.31 56.9 228.31 56.9 228.3 56.9 228.31 56.9"/>
  <polygon class="cls-4" points="129.76 113.77 129.78 113.8 129.78 113.78 129.76 113.77"/>
  <path class="cls-8" d="M179.02,28.45L129.78,0l-49.28,28.45-43.76,25.26,93.03,53.71,93.02-53.71-43.77-25.26ZM160.47,60.1l-7.7,4.77c-26.14-.94-39.25-1.41-39.3-1.47l-3.72-2.88-.06-.16c.68-.35,1.39-.71,2.14-1.14.74-.42,1.53-.88,2.36-1.39,7.79-4.83,10.74-9.34,8.83-13.48-.28-.61-.69-1.16-1.31-1.62l-21.14,13.09h-.25c-.22-3.45-.31-5.18-.28-5.21l16.77-10.41-.03-.03c-2.43-.55-5.42-.33-9.02.75-2.12.74-3.93,1.52-5.39,2.35-.23.13-.46.27-.69.4l-9.39,5.81-.13-.12c-.29-3.39-.36-5.11-.33-5.16l35.61-22.02.05.04c.34,3.21.45,4.96.38,5.26l-9.52,5.86c2.51.1,4.76.66,6.87,1.66l10.15-6.28.29-.02c.3,3.4.43,5.12.36,5.15l-6.6,4.08c1.19,1.13,1.97,2.88,2.29,5.28-.14,2.74-.89,4.88-2.17,6.44-2.2,3.12-4.86,5.65-8.03,7.62l.04.03c.2.14,1.76.28,4.66.38l33.57,1.6.77.58-.09.22Z"/>
  <polygon class="cls-7" points="1202.5 28.79 1187.82 28.96 1187.82 67.99 1195.16 67.9 1202.5 67.8 1202.5 48.3 1202.5 28.79"/>
  <polygon class="cls-5" points="1163.67 43.48 1163.67 28.79 1202.5 28.79 1187.82 43.48 1163.67 43.48"/>
  <path class="cls-10" d="M31.23,63.25v107.42l49.27,28.44,43.74,25.25v-107.41L31.23,63.25ZM89.89,133.45c-2.83-4.38-6.05-7.68-9.63-9.86-3.89-2.37-7.15-3.29-9.79-2.76-1.59.32-3.01,1.25-4.27,2.8-1.3,1.62-2.07,3.43-2.29,5.46l23.69,14.41-.93,4.73-23.32-14.19c-.03.54-.05,1.06-.05,1.56,0,2.05.02,3.26.05,3.67l22.37,13.61-.97,4.72-20.68-12.57c.98,6.63,3.32,12.34,7.03,17.13,2.66,3.45,5.55,6.11,8.66,7.99,4.32,2.64,7.71,3.42,10.14,2.3v8.15c-2.9-.21-6.1-1.41-9.59-3.54-10.48-6.36-17.56-15.63-21.24-27.8-.74-2.45-1.39-5.26-1.91-8.45l-5.32-3.23.96-4.72,3.66,2.22c-.06-1.14-.11-2.38-.11-3.68,0-.52.02-1.05.05-1.59l-4.57-2.77.96-4.71,4.03,2.45c1.46-7.74,5.19-11.63,11.23-11.71,3.74-.05,7.84,1.29,12.35,4.02,4.3,2.61,7.93,5.89,10.87,9.82l-1.38,6.53Z"/>
  <path class="cls-6" d="M192.98,142.13c-1.04-.64-3.09-.55-6.18.28v17.46c2.23-1.6,4.07-3.66,5.52-6.18,1.48-2.52,2.2-5.01,2.2-7.46,0-2.09-.53-3.44-1.54-4.1"/>
  <path class="cls-6" d="M178.13,128.08c-1.27,2.21-1.92,4.3-1.92,6.28s.55,3.26,1.64,3.92c1.1.66,2.96.61,5.57-.16v-15.86c-2.24,1.67-3.99,3.6-5.29,5.82"/>
  <path class="cls-6" d="M135.3,116.95v107.42l43.72-25.26,49.29-28.44V63.25l-93.02,53.7ZM196.61,154.53c-2.53,4.17-5.8,7.53-9.81,10.12v5.8l-3.37,2.01v-5.73c-2.88,1.36-5.21,2.11-7.01,2.25-1.79.14-3.34-.43-4.64-1.71-1.3-1.28-2.07-3.34-2.28-6.19l5.76-4.53c.45,2.82,1.24,4.61,2.36,5.39,1.61,1.08,3.54,1.06,5.8-.05v-18.24c-2.37.95-4.78,1.47-7.24,1.55-1.82.07-3.23-.5-4.22-1.72-.98-1.22-1.48-2.97-1.48-5.26,0-4.09,1.44-8.26,4.32-12.5,1.95-2.86,4.81-5.6,8.62-8.24v-2.75l3.37-2.02v2.75c3.33-1.67,5.98-2.28,7.93-1.82,2.5.59,4.01,2.55,4.52,5.88l-5.92,4.42c-.34-2.06-1.05-3.35-2.14-3.91-1.06-.56-2.52-.47-4.4.26v16.53c2.88-.98,4.8-1.56,5.73-1.72,1.79-.28,3.24-.19,4.37.27,1.12.45,1.99,1.27,2.6,2.46.61,1.19.91,2.67.91,4.48,0,3.99-1.28,8.06-3.8,12.21"/>
  <polygon points="287.88 228.44 287.88 224.52 309.79 224.52 309.79 228.44 300.87 228.44 300.87 264.51 296.79 264.51 296.79 228.44 287.88 228.44"/>
  <path d="M320.61,223.51h3.81v16.72c1.54-2.03,3.24-3.55,5.08-4.55,1.85-1.01,3.85-1.51,6.01-1.51s4.17.56,5.89,1.68c1.71,1.12,2.98,2.63,3.79,4.53.82,1.89,1.22,4.86,1.22,8.9v15.23h-3.81v-14.11c0-3.41-.14-5.68-.41-6.82-.47-1.96-1.33-3.43-2.57-4.42-1.24-.99-2.87-1.48-4.88-1.48-2.3,0-4.36.76-6.18,2.28-1.82,1.52-3.02,3.41-3.6,5.66-.36,1.45-.54,4.13-.54,8.05v10.85h-3.81v-41Z"/>
  <path d="M385.15,254.7l3.21,1.69c-1.05,2.07-2.27,3.73-3.65,5-1.38,1.27-2.93,2.24-4.65,2.9-1.72.66-3.67.99-5.85.99-4.83,0-8.6-1.58-11.32-4.74-2.72-3.16-4.08-6.74-4.08-10.73,0-3.75,1.15-7.1,3.46-10.03,2.92-3.73,6.83-5.6,11.73-5.6s9.07,1.91,12.08,5.74c2.14,2.7,3.23,6.07,3.27,10.11h-26.62c.07,3.44,1.17,6.25,3.29,8.45,2.12,2.2,4.75,3.3,7.87,3.3,1.51,0,2.97-.26,4.4-.79,1.42-.52,2.64-1.22,3.63-2.09,1-.87,2.08-2.27,3.24-4.2M385.15,246.73c-.51-2.03-1.25-3.65-2.22-4.87-.97-1.22-2.26-2.19-3.85-2.94-1.6-.74-3.28-1.11-5.04-1.11-2.9,0-5.4.93-7.49,2.8-1.52,1.36-2.68,3.4-3.46,6.12h22.05Z"/>
  <polygon points="419.86 228.44 419.86 224.52 441.77 224.52 441.77 228.44 432.85 228.44 432.85 264.51 428.78 264.51 428.78 228.44 419.86 228.44"/>
  <path d="M451.15,234.93h3.89v4.32c1.16-1.7,2.38-2.98,3.67-3.82,1.29-.84,2.63-1.26,4.02-1.26,1.05,0,2.18.33,3.37,1.01l-1.98,3.21c-.8-.34-1.47-.52-2.01-.52-1.27,0-2.49.52-3.67,1.56-1.18,1.04-2.08,2.66-2.69,4.85-.47,1.69-.71,5.09-.71,10.22v10h-3.89v-29.58Z"/>
  <path d="M499.92,254.7l3.21,1.69c-1.05,2.07-2.27,3.73-3.65,5-1.38,1.27-2.93,2.24-4.65,2.9-1.72.66-3.67.99-5.85.99-4.83,0-8.6-1.58-11.32-4.74-2.72-3.16-4.08-6.74-4.08-10.73,0-3.75,1.15-7.1,3.46-10.03,2.92-3.73,6.83-5.6,11.73-5.6s9.07,1.91,12.08,5.74c2.14,2.7,3.23,6.07,3.27,10.11h-26.62c.07,3.44,1.17,6.25,3.29,8.45,2.12,2.2,4.75,3.3,7.87,3.3,1.51,0,2.97-.26,4.4-.79,1.42-.52,2.64-1.22,3.63-2.09,1-.87,2.08-2.27,3.24-4.2M499.92,246.73c-.51-2.03-1.25-3.65-2.22-4.87-.97-1.22-2.25-2.19-3.85-2.94-1.6-.74-3.28-1.11-5.04-1.11-2.9,0-5.4.93-7.49,2.8-1.52,1.36-2.68,3.4-3.46,6.12h22.05Z"/>
  <path d="M546.35,234.93v29.58h-3.75v-5.08c-1.59,1.94-3.38,3.4-5.37,4.38-1.99.98-4.16,1.47-6.51,1.47-4.19,0-7.76-1.52-10.73-4.55-2.96-3.04-4.44-6.73-4.44-11.08s1.5-7.9,4.49-10.93c2.99-3.03,6.59-4.54,10.79-4.54,2.43,0,4.63.52,6.59,1.55,1.97,1.03,3.69,2.58,5.18,4.65v-5.44h3.75ZM531.14,237.84c-2.12,0-4.07.52-5.87,1.56-1.79,1.04-3.22,2.5-4.28,4.39-1.06,1.88-1.59,3.87-1.59,5.97s.53,4.07,1.6,5.97c1.07,1.9,2.5,3.38,4.3,4.44,1.8,1.06,3.73,1.59,5.8,1.59s4.05-.52,5.92-1.57c1.86-1.05,3.3-2.47,4.3-4.26,1-1.79,1.51-3.81,1.51-6.06,0-3.42-1.13-6.28-3.38-8.58-2.25-2.3-5.03-3.45-8.32-3.45"/>
  <path d="M575.47,238.17l-2.45,2.53c-2.04-1.98-4.03-2.96-5.97-2.96-1.24,0-2.29.41-3.17,1.22-.88.82-1.32,1.77-1.32,2.86,0,.96.36,1.88,1.09,2.75.73.89,2.25,1.93,4.58,3.13,2.83,1.47,4.76,2.88,5.78,4.24,1,1.38,1.5,2.93,1.5,4.65,0,2.43-.85,4.49-2.56,6.17-1.71,1.69-3.84,2.53-6.4,2.53-1.71,0-3.34-.37-4.89-1.11-1.55-.74-2.84-1.77-3.85-3.07l2.39-2.72c1.94,2.19,4.01,3.29,6.19,3.29,1.53,0,2.82-.49,3.9-1.47,1.07-.98,1.61-2.13,1.61-3.45,0-1.09-.35-2.06-1.06-2.91-.71-.83-2.31-1.89-4.8-3.15-2.67-1.38-4.49-2.74-5.45-4.08-.96-1.34-1.44-2.87-1.44-4.59,0-2.25.77-4.11,2.3-5.6,1.53-1.49,3.47-2.23,5.81-2.23,2.72,0,5.46,1.33,8.22,4"/>
  <path d="M587.4,234.93h3.81v13.81c0,3.37.18,5.69.54,6.96.54,1.81,1.58,3.24,3.12,4.3,1.53,1.05,3.36,1.58,5.49,1.58s3.92-.51,5.4-1.54c1.48-1.02,2.5-2.37,3.06-4.04.38-1.14.57-3.56.57-7.26v-13.81h3.89v14.52c0,4.08-.48,7.15-1.43,9.22-.95,2.07-2.38,3.68-4.3,4.85-1.91,1.17-4.31,1.75-7.19,1.75s-5.29-.58-7.22-1.75c-1.93-1.17-3.37-2.8-4.32-4.89-.95-2.09-1.43-5.24-1.43-9.45v-14.25Z"/>
  <path d="M625.98,234.93h3.89v4.32c1.16-1.7,2.38-2.98,3.67-3.82,1.29-.84,2.63-1.26,4.02-1.26,1.05,0,2.18.33,3.37,1.01l-1.98,3.21c-.8-.34-1.47-.52-2.01-.52-1.27,0-2.49.52-3.67,1.56-1.18,1.04-2.08,2.66-2.69,4.85-.47,1.69-.71,5.09-.71,10.22v10h-3.89v-29.58Z"/>
  <polygon points="646.66 234.93 650.69 234.93 660.85 257.71 670.72 234.93 674.77 234.93 657.13 275.33 653.11 275.33 658.8 262.27 646.66 234.93"/>
  <polygon points="682.03 228.44 682.03 224.52 703.94 224.52 703.94 228.44 695.03 228.44 695.03 264.51 690.95 264.51 690.95 228.44 682.03 228.44"/>
  <path d="M739.66,254.7l3.21,1.69c-1.05,2.07-2.27,3.73-3.65,5-1.38,1.27-2.93,2.24-4.65,2.9-1.72.66-3.67.99-5.85.99-4.83,0-8.6-1.58-11.32-4.74-2.72-3.16-4.08-6.74-4.08-10.73,0-3.75,1.15-7.1,3.46-10.03,2.92-3.73,6.83-5.6,11.73-5.6s9.07,1.91,12.08,5.74c2.14,2.7,3.23,6.07,3.27,10.11h-26.62c.07,3.44,1.17,6.25,3.29,8.45,2.12,2.2,4.75,3.3,7.87,3.3,1.51,0,2.97-.26,4.4-.79,1.42-.52,2.64-1.22,3.63-2.09,1-.87,2.08-2.27,3.24-4.2M739.66,246.73c-.51-2.03-1.25-3.65-2.22-4.87-.97-1.22-2.26-2.19-3.85-2.94-1.6-.74-3.28-1.11-5.04-1.11-2.9,0-5.4.93-7.49,2.8-1.52,1.36-2.68,3.4-3.46,6.12h22.05Z"/>
  <path d="M785.34,241.08l-3.02,1.88c-2.61-3.46-6.16-5.19-10.67-5.19-3.6,0-6.59,1.16-8.97,3.48-2.38,2.32-3.57,5.13-3.57,8.45,0,2.15.55,4.18,1.64,6.08,1.09,1.9,2.6,3.38,4.51,4.43,1.91,1.05,4.05,1.58,6.42,1.58,4.34,0,7.89-1.73,10.64-5.19l3.02,1.98c-1.41,2.13-3.31,3.78-5.7,4.96-2.38,1.17-5.1,1.76-8.14,1.76-4.68,0-8.56-1.49-11.64-4.46-3.08-2.97-4.62-6.59-4.62-10.85,0-2.86.72-5.52,2.16-7.98,1.44-2.46,3.42-4.37,5.94-5.75,2.52-1.38,5.34-2.07,8.46-2.07,1.96,0,3.85.3,5.67.9,1.82.6,3.37,1.38,4.63,2.34,1.27.96,2.35,2.18,3.24,3.67"/>
  <path d="M798.33,223.51h3.81v16.72c1.54-2.03,3.23-3.55,5.08-4.55,1.85-1.01,3.85-1.51,6.01-1.51s4.17.56,5.89,1.68c1.71,1.12,2.98,2.63,3.79,4.53.82,1.89,1.22,4.86,1.22,8.9v15.23h-3.81v-14.11c0-3.41-.14-5.68-.41-6.82-.47-1.96-1.33-3.43-2.57-4.42-1.24-.99-2.87-1.48-4.88-1.48-2.3,0-4.36.76-6.18,2.28-1.82,1.52-3.02,3.41-3.6,5.66-.36,1.45-.54,4.13-.54,8.05v10.85h-3.81v-41Z"/>
  <path d="M896.93,231.94l-3.15,2.42c-1.74-2.26-3.83-3.98-6.27-5.15-2.44-1.17-5.12-1.75-8.03-1.75-3.19,0-6.14.76-8.86,2.3-2.72,1.53-4.83,3.59-6.32,6.17-1.49,2.58-2.24,5.49-2.24,8.71,0,4.88,1.67,8.95,5.02,12.21,3.35,3.26,7.56,4.89,12.66,4.89,5.6,0,10.29-2.19,14.06-6.58l3.15,2.39c-1.99,2.54-4.48,4.5-7.46,5.89-2.98,1.39-6.31,2.08-9.99,2.08-7,0-12.52-2.33-16.56-6.99-3.39-3.93-5.08-8.68-5.08-14.25,0-5.85,2.05-10.78,6.16-14.78,4.11-4,9.25-5.99,15.43-5.99,3.73,0,7.11.74,10.11,2.22,3.01,1.48,5.47,3.55,7.4,6.21"/>
  <path d="M924.01,234.17c4.56,0,8.33,1.65,11.33,4.95,2.72,3.01,4.08,6.57,4.08,10.68s-1.44,7.74-4.32,10.84c-2.88,3.09-6.58,4.63-11.1,4.63s-8.25-1.55-11.13-4.63c-2.88-3.09-4.32-6.7-4.32-10.84s1.36-7.65,4.09-10.66c3-3.32,6.78-4.98,11.36-4.98M923.99,237.9c-3.16,0-5.88,1.17-8.16,3.51-2.27,2.34-3.41,5.16-3.41,8.48,0,2.14.52,4.13,1.56,5.98,1.04,1.85,2.44,3.28,4.2,4.28,1.76,1.01,3.7,1.51,5.81,1.51s4.05-.5,5.81-1.51c1.76-1.01,3.16-2.43,4.2-4.28,1.04-1.85,1.55-3.84,1.55-5.98,0-3.32-1.14-6.14-3.42-8.48-2.28-2.34-5-3.51-8.14-3.51"/>
  <path d="M952.12,234.93h3.81v5.11c1.32-1.88,2.68-3.26,4.08-4.13,1.92-1.16,3.95-1.74,6.07-1.74,1.43,0,2.79.28,4.08.84,1.29.56,2.34,1.31,3.16,2.24.82.93,1.52,2.27,2.12,4.01,1.27-2.32,2.85-4.08,4.75-5.29,1.9-1.21,3.94-1.81,6.13-1.81,2.04,0,3.85.52,5.41,1.55,1.56,1.03,2.73,2.47,3.49,4.32.76,1.85,1.14,4.62,1.14,8.32v16.15h-3.89v-16.15c0-3.17-.23-5.35-.68-6.54-.45-1.19-1.22-2.14-2.32-2.87-1.09-.72-2.4-1.09-3.92-1.09-1.84,0-3.53.54-5.05,1.63-1.53,1.09-2.64,2.54-3.35,4.35-.7,1.81-1.06,4.84-1.06,9.08v11.58h-3.81v-15.14c0-3.57-.22-5.99-.67-7.27-.44-1.28-1.22-2.3-2.32-3.07-1.11-.77-2.42-1.16-3.94-1.16-1.76,0-3.4.53-4.93,1.59-1.53,1.06-2.66,2.49-3.4,4.28-.73,1.79-1.1,4.54-1.1,8.24v12.53h-3.81v-29.58Z"/>
  <path d="M1010.1,234.93h3.81v5.44c1.5-2.07,3.23-3.62,5.19-4.65,1.95-1.03,4.14-1.55,6.55-1.55,4.2,0,7.79,1.51,10.78,4.54,2.99,3.03,4.48,6.67,4.48,10.93s-1.48,8.04-4.44,11.08c-2.96,3.04-6.53,4.55-10.71,4.55-2.35,0-4.52-.49-6.49-1.47-1.97-.98-3.76-2.44-5.35-4.38v15.91h-3.81v-40.4ZM1025.33,237.84c-3.29,0-6.06,1.15-8.31,3.45-2.25,2.3-3.38,5.16-3.38,8.58,0,2.24.5,4.26,1.51,6.06,1,1.79,2.44,3.21,4.31,4.26,1.87,1.05,3.85,1.57,5.93,1.57s3.96-.53,5.76-1.59c1.8-1.06,3.23-2.54,4.3-4.44,1.07-1.9,1.6-3.89,1.6-5.97s-.53-4.09-1.59-5.97c-1.06-1.88-2.48-3.34-4.27-4.39-1.79-1.04-3.74-1.56-5.86-1.56"/>
  <path d="M1083.18,234.93v29.58h-3.75v-5.08c-1.59,1.94-3.38,3.4-5.37,4.38-1.99.98-4.16,1.47-6.51,1.47-4.19,0-7.76-1.52-10.73-4.55-2.96-3.04-4.44-6.73-4.44-11.08s1.49-7.9,4.49-10.93c2.99-3.03,6.59-4.54,10.79-4.54,2.43,0,4.63.52,6.59,1.55,1.97,1.03,3.69,2.58,5.18,4.65v-5.44h3.75ZM1067.97,237.84c-2.12,0-4.07.52-5.87,1.56-1.79,1.04-3.22,2.5-4.28,4.39-1.06,1.88-1.59,3.87-1.59,5.97s.53,4.07,1.6,5.97c1.07,1.9,2.5,3.38,4.3,4.44,1.8,1.06,3.73,1.59,5.8,1.59s4.05-.52,5.92-1.57c1.86-1.05,3.3-2.47,4.3-4.26,1-1.79,1.51-3.81,1.51-6.06,0-3.42-1.13-6.28-3.38-8.58-2.25-2.3-5.03-3.45-8.32-3.45"/>
  <path d="M1097.42,234.93h3.81v5.3c1.52-2.03,3.21-3.55,5.06-4.55,1.85-1.01,3.86-1.51,6.03-1.51s4.17.56,5.89,1.69c1.71,1.12,2.98,2.64,3.79,4.54.82,1.9,1.22,4.87,1.22,8.89v15.22h-3.81v-14.11c0-3.41-.14-5.68-.42-6.82-.44-1.96-1.29-3.43-2.54-4.42-1.25-.99-2.88-1.48-4.9-1.48-2.3,0-4.36.76-6.19,2.28-1.82,1.52-3.02,3.41-3.6,5.65-.36,1.47-.54,4.15-.54,8.05v10.85h-3.81v-29.58Z"/>
  <polygon points="1133.88 234.93 1137.9 234.93 1148.07 257.71 1157.94 234.93 1161.99 234.93 1144.34 275.33 1140.33 275.33 1146.02 262.27 1133.88 234.93"/>
</svg>