<?xml version="1.0" encoding="UTF-8"?>
<svg id="Layer_1" data-name="Layer 1" xmlns="http://www.w3.org/2000/svg" viewBox="0 0 500 500">
  <defs>
    <style>
      .cls-1 {
        fill: #a0a0a0;
      }

      .cls-2 {
        opacity: .34;
      }
    </style>
  </defs>
  <g class="cls-2">
    <polygon class="cls-1" points="380.47 155.38 363.58 164.97 363.58 209.83 372.02 205.04 380.47 200.24 380.47 177.81 380.47 155.38"/>
    <polygon class="cls-1" points="380.35 155.85 363.41 165.36 324.99 142.19 333.47 137.43 341.93 132.68 361.14 144.27 380.35 155.85"/>
    <polygon class="cls-1" points="250.92 382.43 251.01 362.98 212.09 340.67 212.05 350.39 212 360.1 231.46 371.26 250.92 382.43"/>
    <polygon class="cls-1" points="250.58 382.08 250.75 362.65 289.97 340.87 289.87 350.59 289.79 360.3 270.17 371.19 250.58 382.08"/>
    <polygon class="cls-1" points="119.53 156.42 136.54 165.83 174.79 142.4 166.28 137.69 157.78 132.99 138.66 144.71 119.53 156.42"/>
    <polygon class="cls-1" points="120 156.28 136.96 165.76 137.27 210.62 128.79 205.89 120.3 201.14 120.15 178.71 120 156.28"/>
    <polygon class="cls-1" points="347.84 174.47 347.84 174.47 347.83 174.47 347.84 174.47"/>
    <polygon class="cls-1" points="249.29 231.34 249.31 231.37 249.31 231.35 249.29 231.34"/>
    <path class="cls-1" d="M298.55,146.03l-49.24-28.45-49.28,28.45-43.76,25.26,93.03,53.71,93.02-53.71-43.77-25.26ZM279.99,177.67l-7.7,4.77c-26.14-.94-39.25-1.41-39.3-1.47l-3.72-2.88-.06-.16c.68-.35,1.39-.71,2.14-1.14.74-.42,1.53-.88,2.36-1.39,7.79-4.83,10.74-9.34,8.83-13.48-.28-.61-.69-1.16-1.31-1.62l-21.14,13.09h-.25c-.22-3.45-.31-5.18-.28-5.21l16.77-10.41-.03-.03c-2.43-.55-5.42-.33-9.02.75-2.12.74-3.93,1.52-5.39,2.35-.23.13-.46.27-.69.4l-9.39,5.81-.13-.12c-.29-3.39-.36-5.11-.33-5.16l35.61-22.02.05.04c.34,3.21.45,4.96.38,5.26l-9.52,5.86c2.51.1,4.76.66,6.87,1.66l10.15-6.28.29-.02c.3,3.4.43,5.12.36,5.15l-6.6,4.08c1.19,1.13,1.97,2.88,2.29,5.28-.14,2.74-.89,4.88-2.17,6.44-2.2,3.12-4.86,5.65-8.03,7.62l.04.03c.2.14,1.76.28,4.66.38l33.57,1.6.77.58-.09.22Z"/>
    <path class="cls-1" d="M150.75,180.82v107.42l49.27,28.44,43.74,25.25v-107.41l-93.01-53.7ZM209.42,251.02c-2.83-4.38-6.05-7.68-9.63-9.86-3.89-2.37-7.15-3.29-9.79-2.76-1.59.32-3.01,1.25-4.27,2.8-1.3,1.62-2.07,3.43-2.29,5.46l23.69,14.41-.93,4.73-23.32-14.19c-.03.54-.05,1.06-.05,1.56,0,2.05.02,3.26.05,3.67l22.37,13.61-.97,4.72-20.68-12.57c.98,6.63,3.32,12.34,7.03,17.13,2.66,3.45,5.55,6.11,8.66,7.99,4.32,2.64,7.71,3.42,10.14,2.3v8.15c-2.9-.21-6.1-1.41-9.59-3.54-10.48-6.36-17.56-15.63-21.24-27.8-.74-2.45-1.39-5.26-1.91-8.45l-5.32-3.23.96-4.72,3.66,2.22c-.06-1.14-.11-2.38-.11-3.68,0-.52.02-1.05.05-1.59l-4.57-2.77.96-4.71,4.03,2.45c1.46-7.74,5.19-11.63,11.23-11.71,3.74-.05,7.84,1.29,12.35,4.02,4.3,2.61,7.93,5.89,10.87,9.82l-1.38,6.53Z"/>
    <path class="cls-1" d="M312.5,259.7c-1.04-.64-3.09-.55-6.18.28v17.46c2.23-1.6,4.07-3.66,5.52-6.18,1.48-2.52,2.2-5.01,2.2-7.46,0-2.09-.53-3.44-1.54-4.1"/>
    <path class="cls-1" d="M297.66,245.65c-1.27,2.21-1.92,4.3-1.92,6.28s.55,3.26,1.64,3.92c1.1.66,2.96.61,5.57-.16v-15.86c-2.24,1.67-3.99,3.6-5.29,5.82"/>
    <path class="cls-1" d="M254.82,234.52v107.42l43.72-25.26,49.29-28.44v-107.42l-93.02,53.7ZM316.14,272.1c-2.53,4.17-5.8,7.53-9.81,10.12v5.8l-3.37,2.01v-5.73c-2.88,1.36-5.21,2.11-7.01,2.25-1.79.14-3.34-.43-4.64-1.71-1.3-1.28-2.07-3.34-2.28-6.19l5.76-4.53c.45,2.82,1.24,4.61,2.36,5.39,1.61,1.08,3.54,1.06,5.8-.05v-18.24c-2.37.95-4.78,1.47-7.24,1.55-1.82.07-3.23-.5-4.22-1.72-.98-1.22-1.48-2.97-1.48-5.26,0-4.09,1.44-8.26,4.32-12.5,1.95-2.86,4.81-5.6,8.62-8.24v-2.75l3.37-2.02v2.75c3.33-1.67,5.98-2.28,7.93-1.82,2.5.59,4.01,2.55,4.52,5.88l-5.92,4.42c-.34-2.06-1.05-3.35-2.14-3.91-1.06-.56-2.52-.47-4.4.26v16.53c2.88-.98,4.8-1.56,5.73-1.72,1.79-.28,3.24-.19,4.37.27,1.12.45,1.99,1.27,2.6,2.46.61,1.19.91,2.67.91,4.48,0,3.99-1.28,8.06-3.8,12.21"/>
  </g>
</svg>