<?xml version="1.0" encoding="UTF-8"?>
<svg id="Layer_1" data-name="Layer 1" xmlns="http://www.w3.org/2000/svg" viewBox="0 0 500 500">
  <defs>
    <style>
      .cls-1 {
        fill: #49dffb;
      }
    </style>
  </defs>
  <path class="cls-1" d="M216.31,101.53v33.69c4.23.39,23.78-1.74,23.78,2.97v88.18h-21.81s-1.96,75.31-1.96,75.31h-11.9v-75.31h-21.8v-91.16h21.8v-33.69h11.89Z"/>
  <path class="cls-1" d="M155.19,327.12c1.35.86,29.5.87,32.07,0s7.39-10.59,13.8-13.93c13.88-7.25,31.15,2.07,32.75,17.76.57,5.59-3.4,8.96.33,13.29,1.27,1.47,31.14,20.15,33.06,20.44,3.7.55,10.25-5.76,17.01-5.12,9.89.93,18.33,12.75,20.26,12.91s30.82-17.73,31.8-19.32c2.25-3.65-3.09-16.67,8.92-24.64,31.38-20.83,51.03,33.04,20.33,40.13-12.14,2.8-20.81-5.78-25.71-4.06-2.37.83-32.4,19.44-33.72,20.92-3.45,3.86-3.51,11.02-9.47,15.31-14.19,10.22-33.4,1.48-36.34-15.45-.72-4.16,1.76-8.87-.13-11.43-1.24-1.68-33.21-21.95-35.27-22.3-2.6-.45-6.16,2.99-9.67,3.48-21.5,3.03-20.97-13.06-27.95-15.45-2.66-.91-30.46-.79-31.98.09-2.56,1.49-3.41,11.61-14.21,14.49-43.19,11.51-35.29-57.55,1.92-41.64,9.75,4.17,10.72,13.59,12.2,14.53ZM132.54,321.81c-13.27,2.05-13.84,24.42,3.42,21.49,14.33-2.43,9.51-23.48-3.42-21.49ZM209.82,321.81c-13.27,2.05-13.84,24.42,3.42,21.49,14.33-2.43,9.51-23.48-3.42-21.49ZM358.36,335.87c-15.95.39-13.76,24.12,3.5,21.29,11.72-1.93,8.72-21.59-3.5-21.29ZM283.05,371.55c-18.61.5-10.45,29.23,5.72,19.4,9.15-5.56,3.78-19.66-5.72-19.4Z"/>
  <path class="cls-1" d="M289.63,242.22h21.8v79.27h-21.8v27.74h-11.9c.48-24.67,4.71-30.73-23.77-27.74v-79.27h23.78v-58.46c0-3.93,11.89-3.94,11.89,0v58.46Z"/>
  <path class="cls-1" d="M364.94,113.42v57.47h21.8v65.39h-21.8v77.28h-11.89v-77.28h-23.78v-62.42c0-4.71,19.55-2.58,23.78-2.97v-57.47h11.89Z"/>
  <path class="cls-1" d="M139.03,129.27v63.41h23.78v71.34h-23.78v37.65h-11.89v-37.65h-21.8v-71.34h21.8v-60.44c0-3.03,9.06-3.5,11.89-2.97Z"/>
  <path class="cls-1" d="M275.22,105.95c-24.41,5.05-24.41,47.66,5.44,49.23,39.45,2.07,36.65-57.94-5.44-49.23ZM284.1,143.06v4.33h-3.44v-4.07c-2.65-.08-5.29-.84-6.8-1.85l1.13-3.95c1.64.97,3.99,1.85,6.55,1.85s4.45-1.3,4.45-3.32c0-1.89-1.47-3.11-4.58-4.24-4.41-1.6-7.26-3.61-7.26-7.52,0-3.61,2.52-6.38,6.76-7.14v-4.12h3.44v3.91c2.65.08,4.45.71,5.79,1.39l-1.13,3.86c-1.01-.46-2.86-1.43-5.71-1.43s-3.99,1.51-3.99,2.94c0,1.72,1.51,2.69,5.08,4.12,4.7,1.76,6.8,4.03,6.8,7.77s-2.48,6.72-7.1,7.47Z"/>
  <path class="cls-1" d="M168.27,359.57c-36.05,5.23-22.89,64.01,14.81,48.58,26.95-11.02,14.01-52.77-14.81-48.58ZM173.88,398.13v4.33h-3.44v-4.07c-2.65-.08-5.29-.84-6.8-1.85l1.13-3.95c1.64.97,3.99,1.85,6.55,1.85s4.45-1.3,4.45-3.32c0-1.89-1.47-3.11-4.58-4.24-4.41-1.6-7.26-3.61-7.26-7.52,0-3.61,2.52-6.38,6.76-7.14v-4.12h3.44v3.91c2.65.08,4.45.71,5.79,1.39l-1.13,3.86c-1.01-.46-2.86-1.43-5.71-1.43s-3.99,1.51-3.99,2.94c0,1.72,1.51,2.69,5.08,4.12,4.7,1.76,6.8,4.03,6.8,7.77s-2.48,6.72-7.1,7.47Z"/>
</svg>