<?xml version="1.0" encoding="UTF-8"?>
<svg id="Layer_1" data-name="Layer 1" xmlns="http://www.w3.org/2000/svg" viewBox="0 0 500 500">
  <defs>
    <style>
      .cls-1 {
        letter-spacing: 0em;
      }

      .cls-2 {
        fill: #129786;
      }

      .cls-3 {
        font-family: Oswald-Bold, Oswald;
        font-size: 36.83px;
        font-weight: 700;
      }
    </style>
  </defs>
  <g>
    <path class="cls-2" d="M233.07,373.23c-.38,2.6-2.48,5.14-5.26,5.29-11.26-1-24.69,1.29-35.68,0-5.77-.68-4.3-6.56-4.77-10.3-2.8-22.48-13.99-26.4-24.19-43.61-14.02-23.67-18.94-51.24-6.2-76.66,39.66,30.3,97.97,15.58,118.21-29.97,4.2-9.46,4.23-19.06,12.36-26.31,5.46-4.87,13.65-8.46,20.83-9.81,3.73-.7,8.87-1.43,10.61,3,1.82,4.63-1.12,6.4-2.64,9.99-1.68,3.96-3.5,9.34-3.47,13.65.01,1.49.97,7.27,1.64,8.45.83,1.46,6.49,5.6,8.2,7.37,8.58,8.89,14.97,19.89,19.31,31.42,9.21-.12,17.26.52,18.12,11.51.43,5.53.68,23.25-.77,27.89-2.47,7.88-9.94,7.23-16.75,7.1-3.62,11.23-9.56,21.76-17.39,30.57-8.7,9.79-19.01,14.9-20.34,29.88-.46,5.18,2.29,15.15-5.26,15.84-11.33,1.03-24.2-.84-35.7,0-1.98.02-4.75-3.12-4.75-4.79v-8.29c-8.74.54-17.41.5-26.12-.5-.27,2.59.37,5.8,0,8.29ZM315.2,249.67c0-4.54-3.68-8.22-8.22-8.22s-8.22,3.68-8.22,8.22,3.68,8.22,8.22,8.22,8.22-3.68,8.22-8.22Z"/>
    <path class="cls-2" d="M211.97,121.36c42.72,4.06,68.78,51.9,51.82,90.74-20.86,47.78-87.41,52.57-114.8,8.16-24.33-39.46.65-94.45,47.42-98.9,3.93-.37,11.63-.37,15.57,0ZM223.39,155.14c-2.07-2.16-11.5-2.73-12.91-3.91-2.13-1.78.16-7.97-2.02-9.03-.86-.42-7.17-.45-8.19-.15-2.83.83-.29,7.62-1.82,9.73-.62.85-7.21,3.11-9.32,4.74-12.23,9.5-8.22,24.79,4.6,31.54,5.16,2.72,22.47,6.82,16.96,15.64-3.73,5.97-14.01,3.88-19.58,2.05-1.63-.53-5.17-3.1-6.53-2.08-1.1.82-3.6,9.91-3.01,11.1,1.64,3.34,13.67,3.76,15.62,5.5,1.83,1.63-.38,7.13,1.48,9.06,1.36,1.41,9.1,1.48,10.06.03.71-1.07-.03-5.97.26-7.78.58-3.66,4-3.33,6.5-4.55,13.75-6.72,15.44-24.02,3.26-33.4-4.48-3.45-19.74-7.62-21.12-12.02-1.49-4.78,2.14-7.69,6.53-8.08,5.97-.53,10.85,1.61,16.34,3.32,1.36-1.86,4.44-10.09,2.88-11.72Z"/>
  </g>
  <text class="cls-3" transform="translate(57.93 -25.83)"><tspan x="0" y="0">Investment Mana</tspan><tspan class="cls-1" x="257.08" y="0">g</tspan><tspan x="275.5" y="0">ement</tspan></text>
</svg>